<?xml version="1.0" standalone="no"?>
<!DOCTYPE svg PUBLIC "-//W3C//DTD SVG 1.1//EN" "http://www.w3.org/Graphics/SVG/1.1/DTD/svg11.dtd" >
<svg>
<metadata>
Created by FontForge 20090622 at Fri Mar  6 14:55:23 2020
 By deploy user
(C)2007 House Industries/Brand Design Co., Inc. All Rights Reserved.
</metadata>
<defs>
<font id="Neutraface2Text-Bold" horiz-adv-x="500" >
  <font-face 
    font-family="Neutraface 2 Text Bold"
    font-weight="700"
    font-stretch="normal"
    units-per-em="1000"
    panose-1="2 11 8 3 2 2 2 2 1 2"
    ascent="780"
    descent="-220"
    x-height="426"
    cap-height="680"
    bbox="-73 -283 1343 981"
    underline-thickness="20"
    underline-position="-113"
    unicode-range="U+0020-U+FB04"
  />
<missing-glyph 
 />
    <glyph glyph-name="ff" unicode="ff" horiz-adv-x="670" 
d="M102 0v314h-71v112h71v123q0 166 152 166q65 0 111 -40l-56 -97q-14 16 -37 16q-35 0 -35 -43v-125h153v143q0 166 157 166q85 0 131 -54l-73 -90q-19 23 -43 23q-37 0 -37 -43v-145h115v-112h-115v-314h-135v314h-153v-314h-135z" />
    <glyph glyph-name="fi" unicode="fi" horiz-adv-x="583" 
d="M458 497q-35 0 -60.5 24t-25.5 61q0 36 25.5 60t60.5 24t60 -24t25 -60q0 -37 -25 -61t-60 -24zM102 0v314h-71v112h71v143q0 166 157 166q67 0 112 -39l-63 -95q-15 13 -36 13q-35 0 -35 -43v-145h288v-426h-135v314h-153v-314h-135z" />
    <glyph glyph-name="fl" unicode="fl" horiz-adv-x="583" 
d="M102 0v314h-71v112h71v143q0 166 151 166q64 0 104 -37l-56 -97q-15 13 -33 13q-31 0 -31 -43v-145h101v-112h-101v-314h-135zM390 0v722h135v-722h-135z" />
    <glyph glyph-name="ffi" unicode="ffi" horiz-adv-x="871" 
d="M746 497q-35 0 -60.5 24t-25.5 61q0 36 25.5 60t60.5 24t60 -24t25 -60q0 -37 -25 -61t-60 -24zM102 0v314h-71v112h71v123q0 166 152 166q65 0 111 -40l-56 -97q-14 16 -37 16q-35 0 -35 -43v-125h153v143q0 166 157 166q67 0 112 -39l-63 -95q-15 13 -36 13
q-35 0 -35 -43v-145h288v-426h-135v314h-153v-314h-135v314h-153v-314h-135z" />
    <glyph glyph-name="ffl" unicode="ffl" horiz-adv-x="871" 
d="M102 0v314h-71v112h71v123q0 166 152 166q65 0 111 -40l-56 -97q-14 16 -37 16q-35 0 -35 -43v-125h153v143q0 166 151 166q64 0 104 -37l-56 -97q-15 13 -33 13q-31 0 -31 -43v-145h101v-112h-101v-314h-135v314h-153v-314h-135zM678 0v722h135v-722h-135z" />
    <glyph glyph-name="f_b" unicode="fb" horiz-adv-x="888" 
d="M102 0v314h-71v112h71v143q0 166 151 166q64 0 104 -37l-56 -97q-15 13 -33 13q-31 0 -31 -43v-145h101v-112h-101v-314h-135zM656 -9q-96 0 -134 71l3 -62h-135v722h135v-356q46 69 134 69q80 0 135 -62t55 -159q0 -96 -56.5 -159.5t-136.5 -63.5zM617 109q43 0 68 27.5
t25 77.5q0 47 -25 74.5t-68 27.5q-44 0 -70 -27.5t-26 -74.5q0 -50 26 -77.5t70 -27.5z" />
    <glyph glyph-name="f_f_b" unicode="ffb" horiz-adv-x="1176" 
d="M102 0v314h-71v112h71v123q0 166 152 166q65 0 111 -40l-56 -97q-14 16 -37 16q-35 0 -35 -43v-125h153v143q0 166 151 166q64 0 104 -37l-56 -97q-15 13 -33 13q-31 0 -31 -43v-145h101v-112h-101v-314h-135v314h-153v-314h-135zM944 -9q-96 0 -134 71l3 -62h-135v722
h135v-356q46 69 134 69q80 0 135 -62t55 -159q0 -96 -56.5 -159.5t-136.5 -63.5zM905 109q43 0 68 27.5t25 77.5q0 47 -25 74.5t-68 27.5q-44 0 -70 -27.5t-26 -74.5q0 -50 26 -77.5t70 -27.5z" />
    <glyph glyph-name="f_f_f" unicode="fff" horiz-adv-x="958" 
d="M678 314h-153v-314h-135v314h-153v-314h-135v314h-71v112h71v123q0 166 152 166q65 0 111 -40l-56 -97q-14 16 -37 16q-35 0 -35 -43v-125h153v133q0 166 152 166q65 0 111 -40l-56 -97q-14 16 -37 16q-35 0 -35 -43v-135h153v143q0 166 157 166q85 0 131 -54l-73 -90
q-19 23 -43 23q-37 0 -37 -43v-145h115v-112h-115v-314h-135v314z" />
    <glyph glyph-name="f_f_f_i" unicode="fffi" horiz-adv-x="1159" 
d="M1034 497q-35 0 -60.5 24t-25.5 61q0 36 25.5 60t60.5 24t60 -24t25 -60q0 -37 -25 -61t-60 -24zM390 314h-153v-314h-135v314h-71v112h71v123q0 166 152 166q65 0 111 -40l-56 -97q-14 16 -37 16q-35 0 -35 -43v-125h153v133q0 166 152 166q65 0 111 -40l-56 -97
q-14 16 -37 16q-35 0 -35 -43v-135h153v143q0 166 157 166q67 0 112 -39l-63 -95q-15 13 -36 13q-35 0 -35 -43v-145h288v-426h-135v314h-153v-314h-135v314h-153v-314h-135v314z" />
    <glyph glyph-name="f_f_f_l" unicode="fffl" horiz-adv-x="1159" 
d="M390 314h-153v-314h-135v314h-71v112h71v123q0 166 152 166q65 0 111 -40l-56 -97q-14 16 -37 16q-35 0 -35 -43v-125h153v133q0 166 152 166q65 0 111 -40l-56 -97q-14 16 -37 16q-35 0 -35 -43v-135h153v143q0 166 151 166q64 0 104 -37l-56 -97q-15 13 -33 13
q-31 0 -31 -43v-145h101v-112h-101v-314h-135v314h-153v-314h-135v314zM966 0v722h135v-722h-135z" />
    <glyph glyph-name="f_f_h" unicode="ffh" horiz-adv-x="1155" 
d="M102 0v314h-71v112h71v123q0 166 152 166q65 0 111 -40l-56 -97q-14 16 -37 16q-35 0 -35 -43v-125h153v143q0 166 151 166q64 0 104 -37l-56 -97q-15 13 -33 13q-31 0 -31 -43v-145h101v-112h-101v-314h-135v314h-153v-314h-135zM678 0v722h135v-363q40 76 132 76
q71 0 115.5 -50t44.5 -139v-246h-135v237q0 75 -71 75q-41 0 -63.5 -22t-22.5 -62v-228h-135z" />
    <glyph glyph-name="f_f_iacute" unicode="ff&#xed;" horiz-adv-x="871" 
d="M690 500l52 188h154l-104 -188h-102zM102 0v314h-71v112h71v123q0 166 152 166q65 0 111 -40l-56 -97q-14 16 -37 16q-35 0 -35 -43v-125h153v143q0 166 157 166q67 0 112 -39l-63 -95q-15 13 -36 13q-35 0 -35 -43v-145h288v-426h-135v314h-153v-314h-135v314h-153v-314
h-135z" />
    <glyph glyph-name="f_f_icircumflex" unicode="ff&#xee;" horiz-adv-x="871" 
d="M580 500l159 216h11l159 -216h-108l-56 65l-57 -65h-108zM102 0v314h-71v112h71v123q0 166 152 166q65 0 111 -40l-56 -97q-14 16 -37 16q-35 0 -35 -43v-125h153v143q0 166 157 166q67 0 112 -39l-63 -95q-15 13 -36 13q-35 0 -35 -43v-145h288v-426h-135v314h-153v-314
h-135v314h-153v-314h-135z" />
    <glyph glyph-name="f_f_idieresis" unicode="ff&#xef;" horiz-adv-x="871" 
d="M851 481q-30 0 -52.5 21t-22.5 51t22.5 51t52.5 21q29 0 50.5 -21t21.5 -51t-21.5 -51t-50.5 -21zM667 481q-28 0 -50 21.5t-22 50.5t22 50.5t50 21.5q30 0 52.5 -21t22.5 -51t-22.5 -51t-52.5 -21zM102 0v314h-71v112h71v123q0 166 152 166q65 0 111 -40l-56 -97
q-14 16 -37 16q-35 0 -35 -43v-125h153v143q0 166 157 166q63 0 104 -32l-67 -96q-8 7 -24 7q-35 0 -35 -43v-145h288v-426h-135v314h-153v-314h-135v314h-153v-314h-135z" />
    <glyph glyph-name="f_f_j" unicode="ffj" horiz-adv-x="871" 
d="M746 497q-35 0 -60.5 24t-25.5 61q0 36 25.5 60t60.5 24t60 -24t25 -60q0 -37 -25 -61t-60 -24zM660 -222q-35 0 -65.5 15t-47.5 36l67 80q18 -16 33 -16q31 0 31 34v387h-153v-314h-135v314h-153v-314h-135v314h-71v112h71v123q0 166 152 166q65 0 111 -40l-56 -97
q-14 16 -37 16q-35 0 -35 -43v-125h153v143q0 166 157 166q67 0 112 -39l-63 -95q-15 13 -36 13q-35 0 -35 -43v-145h288v-494q0 -74 -39 -114t-114 -40z" />
    <glyph glyph-name="f_f_k" unicode="ffk" horiz-adv-x="1119" 
d="M102 0v314h-71v112h71v123q0 166 152 166q65 0 111 -40l-56 -97q-14 16 -37 16q-35 0 -35 -43v-125h153v143q0 166 151 166q64 0 104 -37l-56 -97q-15 13 -33 13q-31 0 -31 -43v-145h101v-112h-101v-314h-135v314h-153v-314h-135zM813 123v-123h-135v722h135v-368
q0 -45 -7 -92l140 164h150l-151 -174l167 -252h-157l-106 161z" />
    <glyph glyph-name="f_f_t" unicode="fft" horiz-adv-x="966" 
d="M826 -11q-148 0 -148 171v154h-153v-314h-135v314h-153v-314h-135v314h-71v112h71v123q0 166 152 166q65 0 111 -40l-56 -97q-14 16 -37 16q-35 0 -35 -43v-125h153v143q0 166 157 166q67 0 112 -39l-63 -95q-15 13 -36 13q-35 0 -35 -43v-145h153v152h134v-152h109v-112
h-109v-158q0 -30 9 -41t26 -11q20 0 47 18l51 -94q-48 -39 -119 -39z" />
    <glyph glyph-name="f_h" unicode="fh" horiz-adv-x="867" 
d="M102 0v314h-71v112h71v143q0 166 151 166q64 0 104 -37l-56 -97q-15 13 -33 13q-31 0 -31 -43v-145h101v-112h-101v-314h-135zM390 0v722h135v-363q40 76 132 76q71 0 115.5 -50t44.5 -139v-246h-135v237q0 75 -71 75q-41 0 -63.5 -22t-22.5 -62v-228h-135z" />
    <glyph glyph-name="f_iacute" unicode="f&#xed;" horiz-adv-x="583" 
d="M402 500l52 188h154l-104 -188h-102zM102 0v314h-71v112h71v143q0 166 157 166q67 0 112 -39l-63 -95q-15 13 -36 13q-35 0 -35 -43v-145h288v-426h-135v314h-153v-314h-135z" />
    <glyph glyph-name="f_icircumflex" unicode="f&#xee;" horiz-adv-x="583" 
d="M292 500l159 216h11l159 -216h-108l-56 65l-57 -65h-108zM102 0v314h-71v112h71v143q0 166 157 166q67 0 112 -39l-63 -95q-15 13 -36 13q-35 0 -35 -43v-145h288v-426h-135v314h-153v-314h-135z" />
    <glyph glyph-name="f_idieresis" unicode="f&#xef;" horiz-adv-x="583" 
d="M563 481q-30 0 -52.5 21t-22.5 51t22.5 51t52.5 21q29 0 50.5 -21t21.5 -51t-21.5 -51t-50.5 -21zM379 481q-28 0 -50 21.5t-22 50.5t22 50.5t50 21.5q30 0 52.5 -21t22.5 -51t-22.5 -51t-52.5 -21zM102 0v314h-71v112h71v143q0 166 157 166q63 0 104 -32l-67 -96
q-8 7 -24 7q-35 0 -35 -43v-145h288v-426h-135v314h-153v-314h-135z" />
    <glyph glyph-name="f_j" unicode="fj" horiz-adv-x="583" 
d="M458 497q-35 0 -60.5 24t-25.5 61q0 36 25.5 60t60.5 24t60 -24t25 -60q0 -37 -25 -61t-60 -24zM372 -222q-35 0 -65.5 15t-47.5 36l67 80q18 -16 33 -16q31 0 31 34v387h-153v-314h-135v314h-71v112h71v143q0 166 157 166q67 0 112 -39l-63 -95q-15 13 -36 13
q-35 0 -35 -43v-145h288v-494q0 -74 -39 -114t-114 -40z" />
    <glyph glyph-name="f_k" unicode="fk" horiz-adv-x="831" 
d="M102 0v314h-71v112h71v143q0 166 151 166q64 0 104 -37l-56 -97q-15 13 -33 13q-31 0 -31 -43v-145h101v-112h-101v-314h-135zM525 123v-123h-135v722h135v-368q0 -45 -7 -92l140 164h150l-151 -174l167 -252h-157l-106 161z" />
    <glyph glyph-name="f_t" unicode="ft" horiz-adv-x="678" 
d="M538 -11q-148 0 -148 171v154h-153v-314h-135v314h-71v112h71v143q0 166 157 166q67 0 112 -39l-63 -95q-15 13 -36 13q-35 0 -35 -43v-145h153v152h134v-152h109v-112h-109v-158q0 -30 9 -41t26 -11q20 0 47 18l51 -94q-48 -39 -119 -39z" />
    <glyph glyph-name=".notdef" 
 />
    <glyph glyph-name=".null" horiz-adv-x="0" 
 />
    <glyph glyph-name="nonmarkingreturn" horiz-adv-x="333" 
 />
    <glyph glyph-name="space" unicode=" " horiz-adv-x="221" 
 />
    <glyph glyph-name="exclam" unicode="!" horiz-adv-x="283" 
d="M88 231l-22 449h151l-22 -449h-107zM142 -6q-35 0 -60 24t-25 61q0 36 25 60t60 24q34 0 59 -24t25 -60q0 -37 -24.5 -61t-59.5 -24z" />
    <glyph glyph-name="quotedbl" unicode="&#x22;" horiz-adv-x="408" 
d="M243 433l-16 247h145l-15 -247h-114zM51 433l-15 247h144l-15 -247h-114z" />
    <glyph glyph-name="numbersign" unicode="#" horiz-adv-x="526" 
d="M61 142l25 101h-54v102h79l19 75h-54v102h79l25 97h105l-25 -97h75l25 97h105l-24 -97h53v-102h-78l-19 -75h53v-102h-79l-25 -101h-105l25 101h-75l-25 -101h-105zM217 345h75l19 75h-75z" />
    <glyph glyph-name="dollar" unicode="$" horiz-adv-x="502" 
d="M218 -7q-147 13 -204 122l99 56q36 -62 105 -73v115q-174 41 -174 163q0 61 44 105t130 49v101h67v-103q97 -15 153 -88l-87 -66q-22 35 -66 49v-100q186 -43 186 -168q0 -153 -186 -163v-108h-67v109zM285 96q61 7 61 45q0 40 -61 57v-102zM218 429q-52 -5 -52 -42
q0 -18 10 -29t42 -19v90z" />
    <glyph glyph-name="percent" unicode="%" horiz-adv-x="855" 
d="M189 217q-69 0 -116.5 44.5t-47.5 112.5q0 67 48 112t116 45t115.5 -45t47.5 -112q0 -68 -47.5 -112.5t-115.5 -44.5zM196 0l330 522h133l-330 -522h-133zM667 -9q-69 0 -116.5 44.5t-47.5 112.5q0 67 48 112t116 45t115.5 -45t47.5 -112q0 -68 -47.5 -112.5
t-115.5 -44.5zM189 318q21 0 36.5 15.5t15.5 40.5t-15.5 40.5t-36.5 15.5t-36.5 -15.5t-15.5 -40.5t15.5 -40.5t36.5 -15.5zM667 92q21 0 36.5 15.5t15.5 40.5t-15.5 40.5t-36.5 15.5t-36.5 -15.5t-15.5 -40.5t15.5 -40.5t36.5 -15.5z" />
    <glyph glyph-name="ampersand" unicode="&#x26;" horiz-adv-x="695" 
d="M378 367l107 -133q24 56 24 127h126q0 -133 -67 -230l106 -131h-165l-34 42q-79 -51 -175 -51q-124 0 -194 55.5t-70 144.5q0 71 36.5 115t120.5 86q-47 64 -47 135q0 68 49 114.5t131 46.5q81 0 128.5 -43t47.5 -115q0 -98 -124 -163zM312 448q68 38 68 83q0 23 -14 36
t-38 13q-23 0 -38.5 -14.5t-15.5 -36.5q0 -16 6 -31.5t11 -22l19 -24.5zM399 136l-143 177q-42 -23 -58 -49t-16 -62q0 -90 118 -90q54 0 99 24z" />
    <glyph glyph-name="quotesingle" unicode="'" horiz-adv-x="216" 
d="M51 433l-15 247h144l-15 -247h-114z" />
    <glyph glyph-name="parenleft" unicode="(" horiz-adv-x="344" 
d="M238 -137q-189 183 -189 428t189 428l81 -65q-64 -77 -96 -163t-32 -200q0 -208 128 -363z" />
    <glyph glyph-name="parenright" unicode=")" horiz-adv-x="344" 
d="M106 -137l-81 65q64 77 96 163t32 200q0 208 -128 363l81 65q189 -183 189 -428t-189 -428z" />
    <glyph glyph-name="asterisk" unicode="*" horiz-adv-x="425" 
d="M153 360l29 111l-82 -82l-58 100l113 31l-113 31l58 100l82 -82l-29 111h118l-29 -111l82 82l59 -100l-116 -31l116 -31l-59 -100l-82 82l29 -111h-118z" />
    <glyph glyph-name="plus" unicode="+" horiz-adv-x="411" 
d="M145 97v110h-106v118h106v110h121v-110h106v-118h-106v-110h-121z" />
    <glyph glyph-name="comma" unicode="," horiz-adv-x="249" 
d="M52 -115l38 120q-50 23 -50 76q0 35 25 58.5t60 23.5q34 0 59 -24t25 -60q0 -31 -30 -85l-59 -109h-68z" />
    <glyph glyph-name="hyphen" unicode="-" horiz-adv-x="302" 
d="M36 182v120h230v-120h-230z" />
    <glyph glyph-name="period" unicode="." horiz-adv-x="249" 
d="M125 -6q-35 0 -60 24t-25 61q0 36 25 60t60 24q34 0 59 -24t25 -60q0 -37 -24.5 -61t-59.5 -24z" />
    <glyph glyph-name="slash" unicode="/" horiz-adv-x="404" 
d="M-16 -128l279 850h132l-279 -850h-132z" />
    <glyph glyph-name="zero" unicode="0" horiz-adv-x="625" 
d="M312 -9q-111 0 -194 77.5t-83 193.5t82.5 192.5t194.5 76.5t195 -76.5t83 -192.5t-83 -193.5t-195 -77.5zM312 111q58 0 96.5 41.5t38.5 109.5t-38 108.5t-97 40.5q-58 0 -96 -40.5t-38 -108.5t38 -109.5t96 -41.5z" />
    <glyph glyph-name="one" unicode="1" horiz-adv-x="331" 
d="M126 0v410h-100v112h237v-522h-137z" />
    <glyph glyph-name="two" unicode="2" horiz-adv-x="481" 
d="M21 0v12l199 211q37 39 49 52.5t23.5 34.5t11.5 42q0 26 -17.5 41.5t-45.5 15.5q-60 0 -87 -80l-126 34q18 79 75.5 123.5t136.5 44.5q99 0 151.5 -49.5t52.5 -120.5q0 -77 -105 -189l-15 -16q-29 -30 -60 -46l14 1q14 1 30.5 2.5t24.5 1.5h116v-115h-428z" />
    <glyph glyph-name="three" unicode="3" horiz-adv-x="524" 
d="M250 -103q-165 0 -234 140l117 61q31 -81 117 -81q42 0 70 27.5t28 75.5q0 46 -33.5 70t-84.5 24q-52 0 -88 -20l-10 12l121 170q7 10 16 19.5t15 14.5l5 5q-32 -5 -61 -5h-159v112h412v-11l-129 -177l-27 -30q70 -14 118 -62t48 -125q0 -90 -63 -155t-178 -65z" />
    <glyph glyph-name="four" unicode="4" horiz-adv-x="554" 
d="M450 104h69v-104h-69v-94h-136v94h-289v92l411 436h14v-424zM314 104v88l5 62q-16 -22 -34 -41l-72 -76l-41 -36q24 3 52 3h90z" />
    <glyph glyph-name="five" unicode="5" horiz-adv-x="507" 
d="M240 -103q-86 0 -143.5 38t-80.5 94l118 59q27 -71 104 -71q43 0 67.5 25t24.5 64q0 42 -27 65.5t-78 23.5q-75 0 -136 -49l-12 5v371h363v-112h-251v-116q24 15 76 15q93 0 151 -58t58 -146q0 -90 -60 -149t-174 -59z" />
    <glyph glyph-name="six" unicode="6" horiz-adv-x="532" 
d="M267 -9q-97 0 -164.5 58.5t-67.5 149.5q0 53 20.5 101t63.5 107l146 202h152l-123 -169q-26 -35 -61 -60q34 16 73 16q82 0 136.5 -53t54.5 -141q0 -96 -66 -153.5t-164 -57.5zM266 110q42 0 67.5 27t25.5 65t-25.5 65t-67.5 27t-67.5 -27t-25.5 -65t25.5 -65t67.5 -27z
" />
    <glyph glyph-name="seven" unicode="7" horiz-adv-x="486" 
d="M58 -94l221 504h-250v112h431v-11l-263 -605h-139z" />
    <glyph glyph-name="eight" unicode="8" horiz-adv-x="540" 
d="M270 -10q-100 0 -166 53.5t-66 138.5q0 51 28 90t78 60q-74 38 -74 118q0 72 53 120t148 48q96 0 148 -47.5t52 -120.5q0 -82 -73 -119q104 -45 104 -149q0 -85 -65.5 -138.5t-166.5 -53.5zM270 111q43 0 69 22t26 60q0 39 -26.5 62.5t-68.5 23.5t-68.5 -23.5
t-26.5 -62.5q0 -38 26 -60t69 -22zM270 382q28 0 45.5 17t17.5 46q0 30 -17.5 46.5t-45.5 16.5q-29 0 -47.5 -16.5t-18.5 -46.5q0 -29 19 -46t47 -17z" />
    <glyph glyph-name="nine" unicode="9" horiz-adv-x="532" 
d="M114 -94l124 176q20 29 60 59q-34 -16 -66 -16q-85 0 -141 53.5t-56 141.5q0 96 66 153.5t164 57.5t165 -56.5t67 -151.5q0 -53 -20 -99t-64 -109l-147 -209h-152zM266 228q42 0 67.5 27t25.5 65t-25.5 65t-67.5 27t-67.5 -27t-25.5 -65t25.5 -65t67.5 -27z" />
    <glyph glyph-name="colon" unicode=":" horiz-adv-x="259" 
d="M130 224q-35 0 -60 24t-25 61q0 36 25 60t60 24q34 0 59 -24t25 -60q0 -37 -24.5 -61t-59.5 -24zM130 -6q-35 0 -60 24t-25 61q0 36 25 60t60 24q34 0 59 -24t25 -60q0 -37 -24.5 -61t-59.5 -24z" />
    <glyph glyph-name="semicolon" unicode=";" horiz-adv-x="259" 
d="M130 224q-35 0 -60 24t-25 61q0 36 25 60t60 24q34 0 59 -24t25 -60q0 -37 -24.5 -61t-59.5 -24zM57 -115l38 120q-50 23 -50 76q0 35 25 58.5t60 23.5q34 0 59 -24t25 -60q0 -31 -30 -85l-59 -109h-68z" />
    <glyph glyph-name="less" unicode="&#x3c;" horiz-adv-x="358" 
d="M321 72l-298 167v10l298 165v-117l-107 -54l107 -54v-117z" />
    <glyph glyph-name="equal" unicode="=" horiz-adv-x="405" 
d="M36 279v115h333v-115h-333zM36 115v115h333v-115h-333z" />
    <glyph glyph-name="greater" unicode="&#x3e;" horiz-adv-x="358" 
d="M37 72v117l107 54l-107 54v117l298 -167v-10z" />
    <glyph glyph-name="question" unicode="?" horiz-adv-x="513" 
d="M174 231v159h46q58 0 85 27t27 68q0 33 -23.5 58.5t-60.5 25.5q-39 0 -62.5 -16t-43.5 -49l-108 63q56 122 214 122q102 0 162 -60t60 -144q0 -81 -44 -132t-126 -63v-59h-126zM236 -6q-35 0 -60 24t-25 61q0 36 25 60t60 24q34 0 59 -24t25 -60q0 -37 -24.5 -61
t-59.5 -24z" />
    <glyph glyph-name="at" unicode="@" horiz-adv-x="925" 
d="M477 -207q-192 0 -315 109t-123 295q0 120 60.5 215t159 145.5t212.5 50.5q186 0 300.5 -102t114.5 -270q0 -117 -48 -179t-137 -62q-107 0 -139 77q-41 -81 -136 -81q-75 0 -125 56t-50 143t50 144t123 57q75 0 108 -60l-2 50h130v-225q0 -33 10.5 -48t35.5 -15
q66 0 66 141q0 138 -79 205t-222 67q-138 0 -223.5 -84.5t-85.5 -223.5q0 -141 81.5 -222t231.5 -81q80 0 159 28l42 -94q-91 -36 -199 -36zM464 100q30 0 49.5 26t19.5 64t-19.5 64t-49.5 26q-34 0 -54.5 -24.5t-20.5 -65.5t20.5 -65.5t54.5 -24.5z" />
    <glyph glyph-name="A" unicode="A" horiz-adv-x="664" 
d="M21 0l299 686h12l311 -686h-147l-38 92h-264l-38 -92h-135zM241 209h167l-43 103q-20 47 -41 121l-2 -9l-7 -21.5l-9 -28l-11 -32.5l-11 -30z" />
    <glyph glyph-name="B" unicode="B" horiz-adv-x="605" 
d="M71 0v680h259q100 0 154 -50.5t54 -131.5q0 -50 -28.5 -88.5t-75.5 -50.5q133 -33 133 -164q0 -86 -59 -140.5t-162 -54.5h-275zM211 123h129q38 0 62 23.5t24 61.5t-25.5 61t-68.5 23h-121v-169zM211 411h102q42 0 64.5 19t22.5 54q0 73 -80 73h-109v-146z" />
    <glyph glyph-name="C" unicode="C" horiz-adv-x="715" 
d="M398 -9q-147 0 -248.5 99.5t-101.5 249.5t101 249t249 99q183 0 272 -139l-107 -76q-55 89 -165 89q-91 0 -148.5 -63t-57.5 -159t57.5 -160t148.5 -64q62 0 102.5 26t72.5 74l109 -75q-96 -150 -284 -150z" />
    <glyph glyph-name="D" unicode="D" horiz-adv-x="685" 
d="M71 0v680h209q157 0 257.5 -95t100.5 -245t-100 -245t-258 -95h-209zM211 123h62q109 0 164.5 59t55.5 158t-55.5 158t-164.5 59h-62v-434z" />
    <glyph glyph-name="E" unicode="E" horiz-adv-x="594" 
d="M71 0v680h450v-123h-310v-156h273v-120h-273v-158h324v-123h-464z" />
    <glyph glyph-name="F" unicode="F" horiz-adv-x="556" 
d="M71 0v680h438v-123h-298v-177h271v-125h-271v-255h-140z" />
    <glyph glyph-name="G" unicode="G" horiz-adv-x="739" 
d="M417 -9q-165 0 -267 98.5t-102 250.5t97 250t250 98q165 0 247 -94l-95 -94q-29 30 -63 46t-89 16q-91 0 -147 -62.5t-56 -159.5q0 -98 60 -161t165 -63q82 0 133 25v110h-164v123h292v-304q-36 -30 -106.5 -54.5t-154.5 -24.5z" />
    <glyph glyph-name="H" unicode="H" horiz-adv-x="713" 
d="M71 0v680h140v-288h291v288h140v-680h-140v267h-291v-267h-140z" />
    <glyph glyph-name="I" unicode="I" horiz-adv-x="287" 
d="M74 0v680h140v-680h-140z" />
    <glyph glyph-name="J" unicode="J" horiz-adv-x="496" 
d="M223 -9q-150 0 -210 128l114 69q14 -25 23 -37.5t26.5 -23.5t40.5 -11q37 0 56 19t19 69v476h140v-478q0 -105 -56 -158t-153 -53z" />
    <glyph glyph-name="K" unicode="K" horiz-adv-x="645" 
d="M71 0v680h140v-225q0 -37 -9 -114q30 67 60 106l182 233h159l-232 -298l256 -382h-169l-181 277l-66 -79v-198h-140z" />
    <glyph glyph-name="L" unicode="L" horiz-adv-x="561" 
d="M71 0v680h140v-557h308v-123h-448z" />
    <glyph glyph-name="M" unicode="M" horiz-adv-x="830" 
d="M71 0v687h11l335 -368l330 368h12v-687h-135v255l5 119q-41 -60 -73 -96l-135 -151h-13l-135 151q-14 16 -32.5 40t-29.5 40l-11 16q5 -73 5 -119v-255h-134z" />
    <glyph glyph-name="N" unicode="N" horiz-adv-x="701" 
d="M616 -6l-343 322q-15 14 -35.5 37.5l-33.5 39.5l-12 16q10 -75 10 -124v-285h-131v686h14l343 -322q15 -14 35 -37l33 -39l12 -17q-9 77 -9 124v285h131v-686h-14z" />
    <glyph glyph-name="O" unicode="O" horiz-adv-x="800" 
d="M400 -9q-148 0 -250 99.5t-102 249.5t102 249.5t250 99.5t250 -99.5t102 -249.5t-102 -249.5t-250 -99.5zM400 116q92 0 150 64t58 160t-58 160t-150 64t-150 -64t-58 -160t58 -160t150 -64z" />
    <glyph glyph-name="P" unicode="P" horiz-adv-x="601" 
d="M71 0v680h239q111 0 182 -57.5t71 -170.5t-71 -171t-182 -58h-99v-223h-140zM211 346h95q113 0 113 106q0 105 -113 105h-95v-211z" />
    <glyph glyph-name="Q" unicode="Q" horiz-adv-x="800" 
d="M656 96l95 -109l-93 -77l-101 116q-75 -35 -157 -35q-148 0 -250 99.5t-102 249.5t102 249.5t250 99.5t250 -99.5t102 -249.5q0 -145 -96 -244zM469 126l-81 93l94 77l86 -99q40 57 40 143q0 96 -58 160t-150 64t-150 -64t-58 -160t58 -160t150 -64q39 0 69 10z" />
    <glyph glyph-name="R" unicode="R" horiz-adv-x="629" 
d="M71 0v680h252q112 0 182.5 -55.5t70.5 -168.5q0 -147 -133 -199l155 -257h-160l-138 236h-89v-236h-140zM211 354h108q113 0 113 102q0 101 -113 101h-108v-203z" />
    <glyph glyph-name="S" unicode="S" horiz-adv-x="537" 
d="M267 -9q-93 0 -157.5 39t-97.5 104l114 66q52 -85 138 -85q43 0 69 19.5t26 49.5q0 23 -14 40t-31.5 26.5t-56.5 26.5l-35 15q-83 36 -125.5 83.5t-42.5 127.5t56.5 132.5t148.5 52.5q68 0 116.5 -26.5t82.5 -85.5l-109 -70q-33 60 -90 60q-30 0 -48.5 -17t-18.5 -43
q0 -30 19 -47t67 -38l35 -15q97 -42 141.5 -89.5t44.5 -130.5q0 -92 -64.5 -143.5t-167.5 -51.5z" />
    <glyph glyph-name="T" unicode="T" horiz-adv-x="592" 
d="M226 0v557h-194v123h528v-123h-194v-557h-140z" />
    <glyph glyph-name="U" unicode="U" horiz-adv-x="686" 
d="M344 -9q-123 0 -199.5 65.5t-76.5 189.5v434h140v-426q0 -73 32.5 -105t103.5 -32q70 0 102 32t32 105v426h140v-434q0 -124 -76 -189.5t-198 -65.5z" />
    <glyph glyph-name="V" unicode="V" horiz-adv-x="664" 
d="M331 -6l-310 686h150l117 -262q8 -19 18 -46.5t16.5 -48l12.5 -39.5l6 -20q1 5 8 28.5t19.5 61.5t24.5 64l114 262h136l-298 -686h-14z" />
    <glyph glyph-name="W" unicode="W" horiz-adv-x="958" 
d="M273 -6l-251 686h148l99 -273q4 -12 36 -123q19 76 42 123l131 279h14l133 -279q17 -36 42 -123q20 79 36 123l98 273h136l-247 -686h-14l-153 328q-16 34 -38 100q-18 -55 -39 -100l-159 -328h-14z" />
    <glyph glyph-name="X" unicode="X" horiz-adv-x="660" 
d="M27 0l222 374l-185 306h159l69 -117l18.5 -36t18.5 -39l8 -18q21 62 39 93l66 117h149l-182 -307l226 -373h-160l-107 181q-26 44 -47 95q-17 -52 -42 -95l-105 -181h-147z" />
    <glyph glyph-name="Y" unicode="Y" horiz-adv-x="637" 
d="M256 0v249l-236 431h157l96 -185q11 -21 25 -53t22 -54l8 -21q28 78 53 128l92 185h144l-220 -421v-259h-141z" />
    <glyph glyph-name="Z" unicode="Z" horiz-adv-x="590" 
d="M27 0v12l312 545h-257v123h473v-12l-311 -545h294v-123h-511z" />
    <glyph glyph-name="bracketleft" unicode="[" horiz-adv-x="337" 
d="M60 -128v850h247v-114h-112v-622h112v-114h-247z" />
    <glyph glyph-name="backslash" unicode="\" horiz-adv-x="404" 
d="M288 -128l-279 850h132l279 -850h-132z" />
    <glyph glyph-name="bracketright" unicode="]" horiz-adv-x="337" 
d="M30 -128v114h112v622h-112v114h247v-850h-247z" />
    <glyph glyph-name="asciicircum" unicode="^" horiz-adv-x="439" 
d="M54 447l160 240h11l160 -240h-108l-58 71l-57 -71h-108z" />
    <glyph glyph-name="underscore" unicode="_" horiz-adv-x="283" 
d="M-2 -128v120h287v-120h-287z" />
    <glyph glyph-name="grave" unicode="`" 
d="M198 500l-104 188h154l52 -188h-102z" />
    <glyph glyph-name="a" unicode="a" horiz-adv-x="488" 
d="M304 253q-3 71 -71 71q-53 0 -97 -39l-75 80q35 34 75.5 52t109.5 18q86 0 139 -48.5t53 -144.5v-242h-134l3 59q-44 -68 -126 -68q-65 0 -107.5 32.5t-42.5 101.5q0 128 174 128h99zM304 173h-92q-49 0 -49 -39q0 -38 58 -38q40 0 61.5 16t21.5 44v17z" />
    <glyph glyph-name="b" unicode="b" horiz-adv-x="551" 
d="M319 -9q-96 0 -134 71l3 -62h-135v722h135v-356q46 69 134 69q80 0 135 -62t55 -159q0 -96 -56.5 -159.5t-136.5 -63.5zM280 109q43 0 68 27.5t25 77.5q0 47 -25 74.5t-68 27.5q-44 0 -70 -27.5t-26 -74.5q0 -50 26 -77.5t70 -27.5z" />
    <glyph glyph-name="c" unicode="c" horiz-adv-x="477" 
d="M271 -9q-100 0 -166.5 62.5t-66.5 160.5q0 96 66.5 158.5t166.5 62.5q111 0 179 -85l-96 -78q-12 20 -35 32.5t-48 12.5q-45 0 -70 -28.5t-25 -74.5q0 -48 25 -77t70 -29q46 0 86 40l91 -80q-69 -77 -177 -77z" />
    <glyph glyph-name="d" unicode="d" horiz-adv-x="551" 
d="M232 -9q-80 0 -136.5 63.5t-56.5 159.5t56 158.5t135 62.5q89 0 133 -69v356h135v-722h-135l3 62q-38 -71 -134 -71zM271 109q44 0 70 27.5t26 77.5q0 47 -26 74.5t-70 27.5q-43 0 -68 -27.5t-25 -74.5q0 -50 25 -77.5t68 -27.5z" />
    <glyph glyph-name="e" unicode="e" horiz-adv-x="538" 
d="M176 172q20 -69 110 -69q59 0 107 34l77 -83q-72 -63 -182 -63q-113 0 -181.5 62t-68.5 161q0 96 67.5 158.5t167.5 62.5q112 0 173 -74t53 -189h-323zM174 250h189q-10 75 -89 75q-84 0 -100 -75z" />
    <glyph glyph-name="f" unicode="f" horiz-adv-x="382" 
d="M102 0v314h-71v112h71v143q0 166 157 166q85 0 131 -54l-73 -90q-19 23 -43 23q-37 0 -37 -43v-145h115v-112h-115v-314h-135z" />
    <glyph glyph-name="g" unicode="g" horiz-adv-x="552" 
d="M269 -222q-149 0 -227 105l95 74q54 -66 126 -66q48 0 74.5 29t26.5 86v51q-39 -66 -132 -66q-80 0 -136.5 63.5t-56.5 159.5t56 158.5t135 62.5q95 0 137 -75l-3 66h135v-425q0 -114 -64.5 -168.5t-165.5 -54.5zM271 109q44 0 70 27.5t26 77.5q0 47 -26 74.5t-70 27.5
q-43 0 -68 -27.5t-25 -74.5q0 -50 25 -77.5t68 -27.5z" />
    <glyph glyph-name="h" unicode="h" horiz-adv-x="530" 
d="M53 0v722h135v-363q40 76 132 76q71 0 115.5 -50t44.5 -139v-246h-135v237q0 75 -71 75q-41 0 -63.5 -22t-22.5 -62v-228h-135z" />
    <glyph glyph-name="i" unicode="i" horiz-adv-x="251" 
d="M126 497q-35 0 -60.5 24t-25.5 61q0 36 25.5 60t60.5 24t60 -24t25 -60q0 -37 -25 -61t-60 -24zM58 0v426h135v-426h-135z" />
    <glyph glyph-name="j" unicode="j" horiz-adv-x="250" 
d="M126 497q-35 0 -60.5 24t-25.5 61q0 36 25.5 60t60.5 24t60 -24t25 -60q0 -37 -25 -61t-60 -24zM40 -222q-35 0 -65.5 15t-47.5 36l67 80q18 -16 33 -16q31 0 31 34v499h135v-494q0 -74 -39 -114t-114 -40z" />
    <glyph glyph-name="k" unicode="k" horiz-adv-x="494" 
d="M188 123v-123h-135v722h135v-368q0 -45 -7 -92l140 164h150l-151 -174l167 -252h-157l-106 161z" />
    <glyph glyph-name="l" unicode="l" horiz-adv-x="246" 
d="M56 0v722h134v-722h-134z" />
    <glyph glyph-name="m" unicode="m" horiz-adv-x="790" 
d="M53 0v426h135l-3 -66q43 75 121 75q82 0 120 -73q58 73 145 73q80 0 124.5 -50t44.5 -138v-247h-134v235q0 39 -15 58t-52 19q-39 0 -57 -20t-18 -64v-228h-134v235q0 39 -14.5 58t-51.5 19q-76 0 -76 -84v-228h-135z" />
    <glyph glyph-name="n" unicode="n" horiz-adv-x="530" 
d="M53 0v426h135l-3 -70q40 79 135 79q71 0 115.5 -50t44.5 -139v-246h-135v237q0 75 -71 75q-41 0 -63.5 -22t-22.5 -62v-228h-135z" />
    <glyph glyph-name="o" unicode="o" horiz-adv-x="545" 
d="M273 -9q-100 0 -167.5 62.5t-67.5 158.5q0 97 67.5 160t167.5 63t167 -63t67 -160q0 -96 -67 -158.5t-167 -62.5zM273 105q44 0 70 29.5t26 77.5q0 49 -25.5 78t-70.5 29t-71 -29.5t-26 -77.5t26.5 -77.5t70.5 -29.5z" />
    <glyph glyph-name="p" unicode="p" horiz-adv-x="551" 
d="M53 -212v638h135l-3 -66q42 75 137 75q79 0 134.5 -62.5t55.5 -158.5t-56.5 -159.5t-136.5 -63.5q-94 0 -131 66v-269h-135zM280 109q43 0 68 27.5t25 77.5q0 47 -25 74.5t-68 27.5q-44 0 -70 -27.5t-26 -74.5q0 -50 26 -77.5t70 -27.5z" />
    <glyph glyph-name="q" unicode="q" horiz-adv-x="552" 
d="M364 -212v269q-39 -66 -132 -66q-80 0 -136.5 63.5t-56.5 159.5t56 158.5t135 62.5q95 0 137 -75l-3 66h135v-638h-135zM271 109q44 0 70 27.5t26 77.5q0 47 -26 74.5t-70 27.5q-43 0 -68 -27.5t-25 -74.5q0 -50 25 -77.5t68 -27.5z" />
    <glyph glyph-name="r" unicode="r" horiz-adv-x="392" 
d="M53 0v426h135l-2 -77q38 86 125 86q34 0 66 -17l-43 -123q-28 13 -52 13q-48 0 -71 -26.5t-23 -92.5v-189h-135z" />
    <glyph glyph-name="s" unicode="s" horiz-adv-x="421" 
d="M216 -9q-126 0 -194 81l79 70q47 -45 106 -45q58 0 58 26q0 5 -1.5 8.5t-5.5 6.5t-8.5 5t-14 4.5l-17.5 4.5l-22.5 5.5l-26.5 6.5q-123 32 -123 136q0 68 46 101.5t119 33.5q98 0 155 -59l-72 -77q-38 32 -82 32q-46 0 -46 -25q0 -15 13.5 -21t53.5 -15q12 -3 18 -4
q140 -32 140 -133q0 -142 -175 -142z" />
    <glyph glyph-name="t" unicode="t" horiz-adv-x="382" 
d="M242 -11q-148 0 -148 171v154h-63v112h63v152h134v-152h109v-112h-109v-158q0 -30 9 -41t26 -11q20 0 47 18l51 -94q-48 -39 -119 -39z" />
    <glyph glyph-name="u" unicode="u" horiz-adv-x="528" 
d="M209 -9q-71 0 -115 50t-44 139v246h135v-237q0 -76 71 -76q40 0 62 22t22 63v228h135v-426h-135l3 70q-40 -79 -134 -79z" />
    <glyph glyph-name="v" unicode="v" horiz-adv-x="490" 
d="M240 -9l-231 435h149l60 -127q20 -44 35 -112q10 59 33 112l58 127h137l-228 -435h-13z" />
    <glyph glyph-name="w" unicode="w" horiz-adv-x="689" 
d="M206 -11l-197 437h149l49 -121l31 -95q16 60 35 95l70 132h10l74 -132q14 -25 37 -95l2 8l5 17l7 22.5t8.5 25t8.5 22.5l50 121h135l-199 -437h-12l-92 171q-12 21 -30 84q0 -1 -3.5 -11.5l-7.5 -22t-9.5 -26t-11.5 -24.5l-98 -171h-11z" />
    <glyph glyph-name="x" unicode="x" horiz-adv-x="511" 
d="M16 0l164 223l-143 203h159l35 -53q5 -8 10.5 -19.5l10 -20.5t8 -17t3.5 -9l2 5l5 12.5t7 16l8.5 17.5t8.5 15l34 53h144l-141 -192l164 -234h-160l-49 73q-6 8 -39 75q-33 -65 -39 -75l-48 -73h-144z" />
    <glyph glyph-name="y" unicode="y" horiz-adv-x="490" 
d="M67 -212l111 252l-169 386h149l61 -164q7 -18 14.5 -45.5t11.5 -46.5l4 -18q13 71 29 110l66 164h137l-279 -638h-135z" />
    <glyph glyph-name="z" unicode="z" horiz-adv-x="442" 
d="M23 0v11l185 306h-162v109h368v-11l-189 -306h173v-109h-375z" />
    <glyph glyph-name="braceleft" unicode="{" horiz-adv-x="414" 
d="M299 -128q-158 0 -158 144v156q0 35 -13.5 50.5t-43.5 15.5h-58v114h58q30 0 43.5 15.5t13.5 50.5v160q0 144 158 144h85v-114h-73q-20 0 -27 -8t-7 -26v-173q0 -91 -93 -106q93 -15 93 -106v-169q0 -18 7 -26t27 -8h73v-114h-85z" />
    <glyph glyph-name="bar" unicode="|" horiz-adv-x="278" 
d="M74 -128v850h130v-850h-130z" />
    <glyph glyph-name="braceright" unicode="}" horiz-adv-x="414" 
d="M30 -128v114h73q20 0 27 8t7 26v169q0 91 93 106q-93 15 -93 106v173q0 18 -7 26t-27 8h-73v114h85q158 0 158 -144v-160q0 -35 13.5 -50.5t43.5 -15.5h58v-114h-58q-30 0 -43.5 -15.5t-13.5 -50.5v-156q0 -144 -158 -144h-85z" />
    <glyph glyph-name="asciitilde" unicode="~" horiz-adv-x="408" 
d="M124 205l-91 9q4 68 34.5 104t76.5 36q31 0 63 -20l14.5 -9.5l13 -8.5t10 -5t10.5 -2q25 0 29 45l91 -9q-4 -68 -34 -104t-77 -36q-31 0 -63 20l-14.5 9.5t-12.5 8.5t-10 5t-11 2q-25 0 -29 -45z" />
    <glyph glyph-name="uni00A0" unicode="&#xa0;" horiz-adv-x="182" 
 />
    <glyph glyph-name="exclamdown" unicode="&#xa1;" horiz-adv-x="283" 
d="M141 686q35 0 60 -24t25 -61q0 -36 -25 -60t-60 -24q-34 0 -59 24t-25 60q0 37 24.5 61t59.5 24zM195 449l22 -449h-151l22 449h107z" />
    <glyph glyph-name="cent" unicode="&#xa2;" horiz-adv-x="483" 
d="M237 -7q-87 11 -143 72t-56 149t55.5 148t143.5 71v108h67v-108q89 -8 150 -83l-94 -76q-19 31 -56 41v-207q29 8 59 38l89 -78q-59 -67 -148 -75v-109h-67v109zM237 315q-64 -21 -64 -101q0 -39 17 -66.5t47 -38.5v206z" />
    <glyph glyph-name="sterling" unicode="&#xa3;" horiz-adv-x="579" 
d="M174 245h-97v102h51q-19 48 -19 86q0 80 57.5 132.5t159.5 52.5q144 0 202 -121l-111 -66q-17 35 -38 51t-53 16q-37 0 -59 -18.5t-22 -54.5q0 -32 17 -78h155v-102h-117q19 -57 19 -105v-9q48 -23 83 -23q45 0 81 39l79 -81q-55 -75 -154 -75q-70 0 -138 49
q-52 -49 -120 -49q-59 0 -95 30.5t-36 79.5q0 47 33 74.5t81 27.5q30 0 62 -10q-6 20 -21 52zM198 100q-30 23 -52 23q-14 0 -23 -7.5t-9 -18.5t9 -18.5t24 -7.5q36 0 51 29z" />
    <glyph glyph-name="yen" unicode="&#xa5;" horiz-adv-x="572" 
d="M217 0v106h-169v86h168l-32 56h-136v86h87l-111 188h150l78 -146q11 -20 20.5 -46t13.5 -42l5 -15q16 58 40 103l79 146h138l-112 -188h87v-86h-136l-32 -56h168v-86h-169v-106h-137z" />
    <glyph glyph-name="section" unicode="&#xa7;" horiz-adv-x="525" 
d="M118 379q-29 38 -29 89q0 66 49 108t123 42q66 0 107.5 -25t69.5 -77l-107 -52q-26 46 -64 46q-26 0 -38.5 -10.5t-12.5 -26.5q0 -32 37 -45l103 -38q141 -52 141 -151q0 -80 -85 -118q25 -34 25 -83q0 -66 -48.5 -103.5t-135.5 -37.5q-71 0 -125 31.5t-72 75.5l105 55
q27 -53 85 -53q56 0 56 30q0 24 -38 38l-94 36q-74 28 -108 65t-34 92q0 77 90 112zM344 173q29 14 29 42q0 38 -52 58l-103 39q-24 8 -40 18q-26 -12 -26 -42q0 -40 49 -59l97 -36q24 -9 46 -20z" />
    <glyph glyph-name="dieresis" unicode="&#xa8;" 
d="M354 506q-30 0 -53 22.5t-23 53.5t23 53.5t53 22.5t53 -22.5t23 -53.5t-23 -53.5t-53 -22.5zM146 506q-30 0 -53 22.5t-23 53.5t23 53.5t53 22.5t53 -22.5t23 -53.5t-23 -53.5t-53 -22.5z" />
    <glyph glyph-name="copyright" unicode="&#xa9;" horiz-adv-x="594" 
d="M299 -5q-110 0 -190 77t-80 191t80 191t190 77q109 0 187.5 -77t78.5 -191t-78.5 -191t-187.5 -77zM299 54q86 0 145 58t59 151t-59 151t-145 58q-88 0 -148 -58t-60 -151t60 -151t148 -58zM304 116q-68 0 -111 41.5t-43 105.5q0 65 42.5 107t107.5 42q74 0 124 -54
l-71 -66q-17 22 -44 22q-45 0 -45 -51q0 -22 12.5 -36.5t34.5 -14.5q28 0 43 21l72 -63q-46 -54 -122 -54z" />
    <glyph glyph-name="ordfeminine" unicode="&#xaa;" horiz-adv-x="428" 
d="M260 376q-3 55 -57 55q-46 0 -81 -33l-73 69q64 64 169 64q71 0 117.5 -41t46.5 -121v-207h-122l3 45q-37 -54 -103 -54q-56 0 -92.5 29t-36.5 84q0 54 40 82t106 28h83zM260 304h-72q-36 0 -36 -29q0 -12 10.5 -20t30.5 -8q34 0 50.5 13.5t16.5 33.5v10z" />
    <glyph glyph-name="guillemotleft" unicode="&#xab;" horiz-adv-x="504" 
d="M342 32l-95 168v8l95 165h130l-98 -169l98 -172h-130zM127 32l-95 168v8l95 165h130l-98 -169l98 -172h-130z" />
    <glyph glyph-name="registered" unicode="&#xae;" horiz-adv-x="503" 
d="M166 363v217h95q42 0 66 -21t24 -54q0 -47 -38 -66l41 -76h-69l-33 66h-20v-66h-66zM250 253q-93 0 -157 62t-64 156q0 95 64 156.5t157 61.5q94 0 159 -61.5t65 -156.5q0 -94 -65 -156t-159 -62zM250 301q75 0 123 45.5t48 122.5q0 80 -48 126t-123 46q-74 0 -121 -46
t-47 -126q0 -77 47 -122.5t121 -45.5zM232 477h31q23 0 23 25q0 21 -23 21h-31v-46z" />
    <glyph glyph-name="macron" unicode="&#xaf;" 
d="M118 516v99h264v-99h-264z" />
    <glyph glyph-name="degree" unicode="&#xb0;" horiz-adv-x="332" 
d="M166 268q-57 0 -98.5 38.5t-41.5 93.5q0 56 41 93.5t99 37.5t99 -37.5t41 -93.5q0 -55 -41 -93.5t-99 -38.5zM166 348q22 0 36 14.5t14 37.5t-14 37t-36 14t-36 -14t-14 -37t14 -37.5t36 -14.5z" />
    <glyph glyph-name="acute" unicode="&#xb4;" 
d="M200 500l52 188h154l-104 -188h-102z" />
    <glyph glyph-name="paragraph" unicode="&#xb6;" horiz-adv-x="668" 
d="M265 0v243h-3q-113 0 -171.5 60.5t-58.5 154.5q0 92 63.5 157t176.5 65h325v-680h-133v563h-66v-563h-133z" />
    <glyph glyph-name="periodcentered" unicode="&#xb7;" horiz-adv-x="249" 
d="M125 173q-35 0 -60 24t-25 61q0 36 25 60t60 24q34 0 59 -24t25 -60q0 -37 -24.5 -61t-59.5 -24z" />
    <glyph glyph-name="cedilla" unicode="&#xb8;" 
d="M259 -240q-83 0 -118 60l64 39q15 -28 43 -28q15 0 25.5 9t10.5 25q0 34 -41 34h-34v101h69v-39q38 -7 63.5 -33.5t25.5 -70.5q0 -43 -32.5 -70t-75.5 -27z" />
    <glyph glyph-name="ordmasculine" unicode="&#xba;" horiz-adv-x="479" 
d="M240 152q-85 0 -143 54t-58 136q0 81 58.5 135t142.5 54t142 -54.5t58 -134.5q0 -82 -58 -136t-142 -54zM240 255q34 0 54.5 23.5t20.5 63.5q0 38 -20.5 61.5t-54.5 23.5q-35 0 -54.5 -23t-19.5 -62q0 -40 19.5 -63.5t54.5 -23.5z" />
    <glyph glyph-name="guillemotright" unicode="&#xbb;" horiz-adv-x="504" 
d="M247 32l98 169l-98 172h130l95 -168v-8l-95 -165h-130zM32 32l98 169l-98 172h130l95 -168v-8l-95 -165h-130z" />
    <glyph glyph-name="questiondown" unicode="&#xbf;" horiz-adv-x="513" 
d="M277 686q35 0 60 -24t25 -61q0 -36 -25 -60t-60 -24q-34 0 -59 24t-25 60q0 37 24.5 61t59.5 24zM339 449v-159h-46q-58 0 -85 -27t-27 -68q0 -33 23.5 -58.5t60.5 -25.5q39 0 62.5 16t43.5 49l108 -63q-56 -122 -214 -122q-102 0 -162 60t-60 144q0 81 44 132t126 63v59
h126z" />
    <glyph glyph-name="Agrave" unicode="&#xc0;" horiz-adv-x="664" 
d="M21 0l299 686h12l311 -686h-147l-38 92h-264l-38 -92h-135zM277 738l-104 188h154l52 -188h-102zM241 209h167l-43 103q-20 47 -41 121l-2 -9l-7 -21.5l-9 -28l-11 -32.5l-11 -30z" />
    <glyph glyph-name="Aacute" unicode="&#xc1;" horiz-adv-x="664" 
d="M21 0l299 686h12l311 -686h-147l-38 92h-264l-38 -92h-135zM275 738l52 188h154l-104 -188h-102zM241 209h167l-43 103q-20 47 -41 121l-2 -9l-7 -21.5l-9 -28l-11 -32.5l-11 -30z" />
    <glyph glyph-name="Acircumflex" unicode="&#xc2;" horiz-adv-x="664" 
d="M21 0l299 686h12l311 -686h-147l-38 92h-264l-38 -92h-135zM160 738l159 216h11l159 -216h-108l-56 65l-57 -65h-108zM241 209h167l-43 103q-20 47 -41 121l-2 -9l-7 -21.5l-9 -28l-11 -32.5l-11 -30z" />
    <glyph glyph-name="Atilde" unicode="&#xc3;" horiz-adv-x="664" 
d="M21 0l299 686h12l311 -686h-147l-38 92h-264l-38 -92h-135zM230 742l-96 9q4 68 38 104t85 36q40 0 72 -19q8 -4 20.5 -12t19.5 -11t17 -3q26 0 32 45l96 -9q-4 -68 -38 -104t-85 -36q-42 0 -74 19q-8 4 -20.5 12t-19.5 11t-15 3q-26 0 -32 -45zM241 209h167l-43 103
q-20 47 -41 121l-2 -9l-7 -21.5l-9 -28l-11 -32.5l-11 -30z" />
    <glyph glyph-name="Adieresis" unicode="&#xc4;" horiz-adv-x="664" 
d="M21 0l299 686h12l311 -686h-147l-38 92h-264l-38 -92h-135zM222 739q-30 0 -53 22.5t-23 53.5t23 53.5t53 22.5t53 -22.5t23 -53.5t-23 -53.5t-53 -22.5zM430 739q-30 0 -53 22.5t-23 53.5t23 53.5t53 22.5t53 -22.5t23 -53.5t-23 -53.5t-53 -22.5zM241 209h167l-43 103
q-20 47 -41 121l-2 -9l-7 -21.5l-9 -28l-11 -32.5l-11 -30z" />
    <glyph glyph-name="Aring" unicode="&#xc5;" horiz-adv-x="664" 
d="M21 0l299 686h12l311 -686h-147l-38 92h-264l-38 -92h-135zM326 732q-54 0 -91.5 35t-37.5 84t37.5 84t91.5 35t91.5 -35t37.5 -84t-37.5 -84t-91.5 -35zM241 209h167l-43 103q-20 47 -41 121l-2 -9l-7 -21.5l-9 -28l-11 -32.5l-11 -30zM326 806q19 0 31 12t12 33t-12 33
t-31 12t-31 -12t-12 -33t12 -33t31 -12z" />
    <glyph glyph-name="AE" unicode="&#xc6;" horiz-adv-x="990" 
d="M15 0l467 680h435v-123h-310v-156h273v-120h-273v-158h324v-123h-464v94h-242l-62 -94h-148zM306 212h161v180q0 13 9 94q-25 -59 -42 -84z" />
    <glyph glyph-name="Ccedilla" unicode="&#xc7;" horiz-adv-x="726" 
d="M377 -240q-83 0 -118 60l64 39q15 -28 43 -28q15 0 25.5 9t10.5 25q0 34 -41 34h-34v99q-122 24 -200.5 118t-78.5 224q0 150 101 249t249 99q183 0 272 -139l-107 -76q-55 89 -165 89q-91 0 -148.5 -63t-57.5 -159t57.5 -160t148.5 -64q62 0 102.5 26t72.5 74l109 -75
q-96 -150 -284 -150h-2v-30q38 -7 63.5 -33.5t25.5 -70.5q0 -43 -32.5 -70t-75.5 -27z" />
    <glyph glyph-name="Egrave" unicode="&#xc8;" horiz-adv-x="594" 
d="M71 0v680h450v-123h-310v-156h273v-120h-273v-158h324v-123h-464zM253 738l-104 188h154l52 -188h-102z" />
    <glyph glyph-name="Eacute" unicode="&#xc9;" horiz-adv-x="594" 
d="M71 0v680h450v-123h-310v-156h273v-120h-273v-158h324v-123h-464zM251 738l52 188h154l-104 -188h-102z" />
    <glyph glyph-name="Ecircumflex" unicode="&#xca;" horiz-adv-x="594" 
d="M71 0v680h450v-123h-310v-156h273v-120h-273v-158h324v-123h-464zM136 738l159 216h11l159 -216h-108l-56 65l-57 -65h-108z" />
    <glyph glyph-name="Edieresis" unicode="&#xcb;" horiz-adv-x="594" 
d="M71 0v680h450v-123h-310v-156h273v-120h-273v-158h324v-123h-464zM406 739q-30 0 -53 22.5t-23 53.5t23 53.5t53 22.5t53 -22.5t23 -53.5t-23 -53.5t-53 -22.5zM198 739q-30 0 -53 22.5t-23 53.5t23 53.5t53 22.5t53 -22.5t23 -53.5t-23 -53.5t-53 -22.5z" />
    <glyph glyph-name="Igrave" unicode="&#xcc;" horiz-adv-x="287" 
d="M74 0v680h140v-680h-140zM95 738l-104 188h154l52 -188h-102z" />
    <glyph glyph-name="Iacute" unicode="&#xcd;" horiz-adv-x="287" 
d="M74 0v680h140v-680h-140zM93 738l52 188h154l-104 -188h-102z" />
    <glyph glyph-name="Icircumflex" unicode="&#xce;" horiz-adv-x="287" 
d="M74 0v680h140v-680h-140zM-22 738l159 216h11l159 -216h-108l-56 65l-57 -65h-108z" />
    <glyph glyph-name="Idieresis" unicode="&#xcf;" horiz-adv-x="287" 
d="M74 0v680h140v-680h-140zM248 739q-30 0 -53 22.5t-23 53.5t23 53.5t53 22.5t53 -22.5t23 -53.5t-23 -53.5t-53 -22.5zM40 739q-30 0 -53 22.5t-23 53.5t23 53.5t53 22.5t53 -22.5t23 -53.5t-23 -53.5t-53 -22.5z" />
    <glyph glyph-name="Eth" unicode="&#xd0;" horiz-adv-x="685" 
d="M71 0v278h-59v121h59v281h209q157 0 257.5 -95t100.5 -245t-100 -245t-258 -95h-209zM211 123h62q109 0 164.5 59t55.5 158t-55.5 158t-164.5 59h-62v-158h151v-121h-151v-155z" />
    <glyph glyph-name="Ntilde" unicode="&#xd1;" horiz-adv-x="701" 
d="M260 742l-96 9q4 68 38 104t85 36q40 0 72 -19q8 -4 20.5 -12t19.5 -11t17 -3q26 0 32 45l96 -9q-4 -68 -38 -104t-85 -36q-42 0 -74 19q-8 4 -20.5 12t-19.5 11t-15 3q-26 0 -32 -45zM616 -6l-343 322q-15 14 -35.5 37.5l-33.5 39.5l-12 16q10 -75 10 -124v-285h-131
v686h14l343 -322q15 -14 35 -37l33 -39l12 -17q-9 77 -9 124v285h131v-686h-14z" />
    <glyph glyph-name="Ograve" unicode="&#xd2;" horiz-adv-x="800" 
d="M400 -9q-148 0 -250 99.5t-102 249.5t102 249.5t250 99.5t250 -99.5t102 -249.5t-102 -249.5t-250 -99.5zM400 116q92 0 150 64t58 160t-58 160t-150 64t-150 -64t-58 -160t58 -160t150 -64zM351 738l-104 188h154l52 -188h-102z" />
    <glyph glyph-name="Oacute" unicode="&#xd3;" horiz-adv-x="800" 
d="M400 -9q-148 0 -250 99.5t-102 249.5t102 249.5t250 99.5t250 -99.5t102 -249.5t-102 -249.5t-250 -99.5zM400 116q92 0 150 64t58 160t-58 160t-150 64t-150 -64t-58 -160t58 -160t150 -64zM349 738l52 188h154l-104 -188h-102z" />
    <glyph glyph-name="Ocircumflex" unicode="&#xd4;" horiz-adv-x="800" 
d="M400 -9q-148 0 -250 99.5t-102 249.5t102 249.5t250 99.5t250 -99.5t102 -249.5t-102 -249.5t-250 -99.5zM400 116q92 0 150 64t58 160t-58 160t-150 64t-150 -64t-58 -160t58 -160t150 -64zM234 738l159 216h11l159 -216h-108l-56 65l-57 -65h-108z" />
    <glyph glyph-name="Otilde" unicode="&#xd5;" horiz-adv-x="800" 
d="M306 742l-96 9q4 68 38 104t85 36q40 0 72 -19q8 -4 20.5 -12t19.5 -11t17 -3q26 0 32 45l96 -9q-4 -68 -38 -104t-85 -36q-42 0 -74 19q-8 4 -20.5 12t-19.5 11t-15 3q-26 0 -32 -45zM400 -9q-148 0 -250 99.5t-102 249.5t102 249.5t250 99.5t250 -99.5t102 -249.5
t-102 -249.5t-250 -99.5zM400 116q92 0 150 64t58 160t-58 160t-150 64t-150 -64t-58 -160t58 -160t150 -64z" />
    <glyph glyph-name="Odieresis" unicode="&#xd6;" horiz-adv-x="800" 
d="M400 -9q-148 0 -250 99.5t-102 249.5t102 249.5t250 99.5t250 -99.5t102 -249.5t-102 -249.5t-250 -99.5zM400 116q92 0 150 64t58 160t-58 160t-150 64t-150 -64t-58 -160t58 -160t150 -64zM504 739q-30 0 -53 22.5t-23 53.5t23 53.5t53 22.5t53 -22.5t23 -53.5
t-23 -53.5t-53 -22.5zM296 739q-30 0 -53 22.5t-23 53.5t23 53.5t53 22.5t53 -22.5t23 -53.5t-23 -53.5t-53 -22.5z" />
    <glyph glyph-name="multiply" unicode="&#xd7;" horiz-adv-x="408" 
d="M204 184l-89 -89l-82 82l89 89l-89 89l82 82l89 -89l89 89l82 -82l-89 -89l89 -89l-82 -82z" />
    <glyph glyph-name="Oslash" unicode="&#xd8;" horiz-adv-x="800" 
d="M114 -10l-78 77l74 70q-62 91 -62 203q0 150 102 249.5t250 99.5q121 0 214 -69l72 69l78 -77l-74 -70q62 -89 62 -202q0 -150 -102 -249.5t-250 -99.5q-120 0 -213 68zM212 235l307 294q-50 36 -119 36q-92 0 -150.5 -64.5t-58.5 -160.5q0 -58 21 -105zM400 115
q92 0 150.5 64.5t58.5 160.5q0 58 -20 104l-308 -294q50 -35 119 -35z" />
    <glyph glyph-name="Ugrave" unicode="&#xd9;" horiz-adv-x="686" 
d="M344 -9q-123 0 -199.5 65.5t-76.5 189.5v434h140v-426q0 -73 32.5 -105t103.5 -32q70 0 102 32t32 105v426h140v-434q0 -124 -76 -189.5t-198 -65.5zM294 738l-104 188h154l52 -188h-102z" />
    <glyph glyph-name="Uacute" unicode="&#xda;" horiz-adv-x="686" 
d="M344 -9q-123 0 -199.5 65.5t-76.5 189.5v434h140v-426q0 -73 32.5 -105t103.5 -32q70 0 102 32t32 105v426h140v-434q0 -124 -76 -189.5t-198 -65.5zM292 738l52 188h154l-104 -188h-102z" />
    <glyph glyph-name="Ucircumflex" unicode="&#xdb;" horiz-adv-x="686" 
d="M344 -9q-123 0 -199.5 65.5t-76.5 189.5v434h140v-426q0 -73 32.5 -105t103.5 -32q70 0 102 32t32 105v426h140v-434q0 -124 -76 -189.5t-198 -65.5zM177 738l159 216h11l159 -216h-108l-56 65l-57 -65h-108z" />
    <glyph glyph-name="Udieresis" unicode="&#xdc;" horiz-adv-x="686" 
d="M344 -9q-123 0 -199.5 65.5t-76.5 189.5v434h140v-426q0 -73 32.5 -105t103.5 -32q70 0 102 32t32 105v426h140v-434q0 -124 -76 -189.5t-198 -65.5zM447 739q-30 0 -53 22.5t-23 53.5t23 53.5t53 22.5t53 -22.5t23 -53.5t-23 -53.5t-53 -22.5zM239 739q-30 0 -53 22.5
t-23 53.5t23 53.5t53 22.5t53 -22.5t23 -53.5t-23 -53.5t-53 -22.5z" />
    <glyph glyph-name="Yacute" unicode="&#xdd;" horiz-adv-x="637" 
d="M256 0v249l-236 431h157l96 -185q28 -56 55 -128q1 3 8.5 23t20.5 51.5t24 53.5l92 185h144l-220 -421v-259h-141zM277 738l52 188h154l-104 -188h-102z" />
    <glyph glyph-name="Thorn" unicode="&#xde;" horiz-adv-x="601" 
d="M71 0v680h140v-108h99q111 0 182 -57.5t71 -170.5t-71 -171t-182 -58h-99v-115h-140zM211 238h95q113 0 113 106q0 105 -113 105h-95v-211z" />
    <glyph glyph-name="germandbls" unicode="&#xdf;" horiz-adv-x="582" 
d="M327 -6q-54 0 -87 11l15 111q24 -8 48 -8q103 0 103 106q0 122 -145 117v106q86 11 86 99t-77 88q-38 0 -60 -26.5t-22 -76.5v-521h-135v517q0 104 60 161t157 57q98 0 152 -52.5t54 -140.5q0 -95 -78 -139q69 -20 107.5 -68.5t38.5 -124.5q0 -98 -57 -157t-160 -59z" />
    <glyph glyph-name="agrave" unicode="&#xe0;" horiz-adv-x="488" 
d="M304 253q-3 71 -71 71q-53 0 -97 -39l-75 80q35 34 75.5 52t109.5 18q86 0 139 -48.5t53 -144.5v-242h-134l3 59q-44 -68 -126 -68q-65 0 -107.5 32.5t-42.5 101.5q0 128 174 128h99zM304 173h-92q-49 0 -49 -39q0 -38 58 -38q40 0 61.5 16t21.5 44v17zM198 500l-104 188
h154l52 -188h-102z" />
    <glyph glyph-name="aacute" unicode="&#xe1;" horiz-adv-x="488" 
d="M304 253q-3 71 -71 71q-53 0 -97 -39l-75 80q35 34 75.5 52t109.5 18q86 0 139 -48.5t53 -144.5v-242h-134l3 59q-44 -68 -126 -68q-65 0 -107.5 32.5t-42.5 101.5q0 128 174 128h99zM304 173h-92q-49 0 -49 -39q0 -38 58 -38q40 0 61.5 16t21.5 44v17zM196 500l52 188
h154l-104 -188h-102z" />
    <glyph glyph-name="acircumflex" unicode="&#xe2;" horiz-adv-x="488" 
d="M304 253q-3 71 -71 71q-53 0 -97 -39l-75 80q35 34 75.5 52t109.5 18q86 0 139 -48.5t53 -144.5v-242h-134l3 59q-44 -68 -126 -68q-65 0 -107.5 32.5t-42.5 101.5q0 128 174 128h99zM304 173h-92q-49 0 -49 -39q0 -38 58 -38q40 0 61.5 16t21.5 44v17zM81 500l159 216
h11l159 -216h-108l-56 65l-57 -65h-108z" />
    <glyph glyph-name="atilde" unicode="&#xe3;" horiz-adv-x="488" 
d="M304 253q-3 71 -71 71q-53 0 -97 -39l-75 80q35 34 75.5 52t109.5 18q86 0 139 -48.5t53 -144.5v-242h-134l3 59q-44 -68 -126 -68q-65 0 -107.5 32.5t-42.5 101.5q0 128 174 128h99zM304 173h-92q-49 0 -49 -39q0 -38 58 -38q40 0 61.5 16t21.5 44v17zM167 506l-91 9
q4 68 34.5 104t76.5 36q31 0 63 -20l14.5 -9.5l13 -8.5t10 -5t10.5 -2q24 0 29 45l91 -9q-4 -68 -34 -104t-77 -36q-31 0 -63 20l-14.5 9.5t-12.5 8.5t-10 5t-11 2q-24 0 -29 -45z" />
    <glyph glyph-name="adieresis" unicode="&#xe4;" horiz-adv-x="488" 
d="M304 253q-3 71 -71 71q-53 0 -97 -39l-75 80q35 34 75.5 52t109.5 18q86 0 139 -48.5t53 -144.5v-242h-134l3 59q-44 -68 -126 -68q-65 0 -107.5 32.5t-42.5 101.5q0 128 174 128h99zM304 173h-92q-49 0 -49 -39q0 -38 58 -38q40 0 61.5 16t21.5 44v17zM351 506
q-30 0 -53 22.5t-23 53.5t23 53.5t53 22.5t53 -22.5t23 -53.5t-23 -53.5t-53 -22.5zM143 506q-30 0 -53 22.5t-23 53.5t23 53.5t53 22.5t53 -22.5t23 -53.5t-23 -53.5t-53 -22.5z" />
    <glyph glyph-name="aring" unicode="&#xe5;" horiz-adv-x="488" 
d="M304 253q-3 71 -71 71q-53 0 -97 -39l-75 80q35 34 75.5 52t109.5 18q86 0 139 -48.5t53 -144.5v-242h-134l3 59q-44 -68 -126 -68q-65 0 -107.5 32.5t-42.5 101.5q0 128 174 128h99zM304 173h-92q-49 0 -49 -39q0 -38 58 -38q40 0 61.5 16t21.5 44v17zM247 474
q-54 0 -91.5 35t-37.5 84t37.5 84t91.5 35t91.5 -35t37.5 -84t-37.5 -84t-91.5 -35zM247 548q19 0 31 12t12 33t-12 33t-31 12t-31 -12t-12 -33t12 -33t31 -12z" />
    <glyph glyph-name="ae" unicode="&#xe6;" horiz-adv-x="804" 
d="M304 251q-3 73 -71 73q-53 0 -97 -39l-75 80q35 34 75.5 52t109.5 18q93 0 137 -62q59 62 156 62q112 0 173 -74.5t53 -188.5h-323q20 -69 110 -69q59 0 107 34l77 -83q-72 -63 -182 -63q-119 0 -179 71q-54 -71 -168 -71q-176 0 -176 134q0 126 174 126h99zM440 251h189
q-4 34 -26.5 54t-62.5 20q-84 0 -100 -74zM304 172h-92q-49 0 -49 -38t58 -38q40 0 61.5 16t21.5 44v16z" />
    <glyph glyph-name="ccedilla" unicode="&#xe7;" horiz-adv-x="479" 
d="M245 -240q-83 0 -118 60l64 39q15 -28 43 -28q15 0 25.5 9t10.5 25q0 34 -41 34h-34v102q-71 21 -114 78t-43 135q0 96 66.5 158.5t166.5 62.5q111 0 179 -85l-96 -78q-12 20 -35 32.5t-48 12.5q-45 0 -70 -28.5t-25 -74.5q0 -48 25 -77t70 -29q46 0 86 40l91 -80
q-69 -77 -177 -77h-7v-30q38 -7 63.5 -33.5t25.5 -70.5q0 -43 -32.5 -70t-75.5 -27z" />
    <glyph glyph-name="egrave" unicode="&#xe8;" horiz-adv-x="538" 
d="M176 172q20 -69 110 -69q59 0 107 34l77 -83q-72 -63 -182 -63q-113 0 -181.5 62t-68.5 161q0 96 67.5 158.5t167.5 62.5q112 0 173 -74t53 -189h-323zM174 250h189q-10 75 -89 75q-84 0 -100 -75zM220 500l-104 188h154l52 -188h-102z" />
    <glyph glyph-name="eacute" unicode="&#xe9;" horiz-adv-x="538" 
d="M176 172q20 -69 110 -69q59 0 107 34l77 -83q-72 -63 -182 -63q-113 0 -181.5 62t-68.5 161q0 96 67.5 158.5t167.5 62.5q112 0 173 -74t53 -189h-323zM174 250h189q-10 75 -89 75q-84 0 -100 -75zM218 500l52 188h154l-104 -188h-102z" />
    <glyph glyph-name="ecircumflex" unicode="&#xea;" horiz-adv-x="538" 
d="M176 172q20 -69 110 -69q59 0 107 34l77 -83q-72 -63 -182 -63q-113 0 -181.5 62t-68.5 161q0 96 67.5 158.5t167.5 62.5q112 0 173 -74t53 -189h-323zM174 250h189q-10 75 -89 75q-84 0 -100 -75zM103 500l159 216h11l159 -216h-108l-56 65l-57 -65h-108z" />
    <glyph glyph-name="edieresis" unicode="&#xeb;" horiz-adv-x="538" 
d="M176 172q20 -69 110 -69q59 0 107 34l77 -83q-72 -63 -182 -63q-113 0 -181.5 62t-68.5 161q0 96 67.5 158.5t167.5 62.5q112 0 173 -74t53 -189h-323zM174 250h189q-10 75 -89 75q-84 0 -100 -75zM373 506q-30 0 -53 22.5t-23 53.5t23 53.5t53 22.5t53 -22.5t23 -53.5
t-23 -53.5t-53 -22.5zM165 506q-30 0 -53 22.5t-23 53.5t23 53.5t53 22.5t53 -22.5t23 -53.5t-23 -53.5t-53 -22.5z" />
    <glyph glyph-name="igrave" unicode="&#xec;" horiz-adv-x="251" 
d="M58 0v426h135v-426h-135zM76 500l-104 188h154l52 -188h-102z" />
    <glyph glyph-name="iacute" unicode="&#xed;" horiz-adv-x="251" 
d="M58 0v426h135v-426h-135zM74 500l52 188h154l-104 -188h-102z" />
    <glyph glyph-name="icircumflex" unicode="&#xee;" horiz-adv-x="251" 
d="M58 0v426h135v-426h-135zM-41 500l159 216h11l159 -216h-108l-56 65l-57 -65h-108z" />
    <glyph glyph-name="idieresis" unicode="&#xef;" horiz-adv-x="251" 
d="M58 0v426h135v-426h-135zM222 506q-30 0 -53 22.5t-23 53.5t23 53.5t53 22.5t53 -22.5t23 -53.5t-23 -53.5t-53 -22.5zM28 506q-30 0 -53 22.5t-23 53.5t23 53.5t53 22.5t53 -22.5t23 -53.5t-23 -53.5t-53 -22.5z" />
    <glyph glyph-name="eth" unicode="&#xf0;" horiz-adv-x="545" 
d="M266 528l-57 -55l-62 61l61 59q-31 31 -67 61l70 85q57 -44 81 -66l56 54l62 -61l-56 -53q153 -166 153 -369q0 -123 -65 -188t-169 -65q-100 0 -167.5 62.5t-67.5 158.5q0 95 64 159t147 64q56 0 88 -24q-20 54 -71 117zM273 105q44 0 70 29.5t26 77.5q0 49 -25.5 78
t-70.5 29t-71 -29.5t-26 -77.5t26.5 -77.5t70.5 -29.5z" />
    <glyph glyph-name="ntilde" unicode="&#xf1;" horiz-adv-x="530" 
d="M53 0v426h135l-3 -70q40 79 135 79q71 0 115.5 -50t44.5 -139v-246h-135v237q0 75 -71 75q-41 0 -63.5 -22t-22.5 -62v-228h-135zM181 506l-91 9q4 68 34.5 104t76.5 36q31 0 63 -20l14.5 -9.5l13 -8.5t10 -5t10.5 -2q24 0 29 45l91 -9q-4 -68 -34 -104t-77 -36
q-31 0 -63 20l-14.5 9.5t-12.5 8.5t-10 5t-11 2q-24 0 -29 -45z" />
    <glyph glyph-name="ograve" unicode="&#xf2;" horiz-adv-x="545" 
d="M273 -9q-100 0 -167.5 62.5t-67.5 158.5q0 97 67.5 160t167.5 63t167 -63t67 -160q0 -96 -67 -158.5t-167 -62.5zM273 105q44 0 70 29.5t26 77.5q0 49 -25.5 78t-70.5 29t-71 -29.5t-26 -77.5t26.5 -77.5t70.5 -29.5zM223 500l-104 188h154l52 -188h-102z" />
    <glyph glyph-name="oacute" unicode="&#xf3;" horiz-adv-x="545" 
d="M273 -9q-100 0 -167.5 62.5t-67.5 158.5q0 97 67.5 160t167.5 63t167 -63t67 -160q0 -96 -67 -158.5t-167 -62.5zM273 105q44 0 70 29.5t26 77.5q0 49 -25.5 78t-70.5 29t-71 -29.5t-26 -77.5t26.5 -77.5t70.5 -29.5zM221 500l52 188h154l-104 -188h-102z" />
    <glyph glyph-name="ocircumflex" unicode="&#xf4;" horiz-adv-x="545" 
d="M273 -9q-100 0 -167.5 62.5t-67.5 158.5q0 97 67.5 160t167.5 63t167 -63t67 -160q0 -96 -67 -158.5t-167 -62.5zM273 105q44 0 70 29.5t26 77.5q0 49 -25.5 78t-70.5 29t-71 -29.5t-26 -77.5t26.5 -77.5t70.5 -29.5zM106 500l159 216h11l159 -216h-108l-56 65l-57 -65
h-108z" />
    <glyph glyph-name="otilde" unicode="&#xf5;" horiz-adv-x="545" 
d="M273 -9q-100 0 -167.5 62.5t-67.5 158.5q0 97 67.5 160t167.5 63t167 -63t67 -160q0 -96 -67 -158.5t-167 -62.5zM273 105q44 0 70 29.5t26 77.5q0 49 -25.5 78t-70.5 29t-71 -29.5t-26 -77.5t26.5 -77.5t70.5 -29.5zM192 506l-91 9q4 68 34.5 104t76.5 36q31 0 63 -20
l14.5 -9.5l13 -8.5t10 -5t10.5 -2q25 0 29 45l91 -9q-4 -68 -34 -104t-77 -36q-31 0 -63 20l-14.5 9.5t-12.5 8.5t-10 5t-11 2q-25 0 -29 -45z" />
    <glyph glyph-name="odieresis" unicode="&#xf6;" horiz-adv-x="545" 
d="M273 -9q-100 0 -167.5 62.5t-67.5 158.5q0 97 67.5 160t167.5 63t167 -63t67 -160q0 -96 -67 -158.5t-167 -62.5zM273 105q44 0 70 29.5t26 77.5q0 49 -25.5 78t-70.5 29t-71 -29.5t-26 -77.5t26.5 -77.5t70.5 -29.5zM376 506q-30 0 -53 22.5t-23 53.5t23 53.5t53 22.5
t53 -22.5t23 -53.5t-23 -53.5t-53 -22.5zM168 506q-30 0 -53 22.5t-23 53.5t23 53.5t53 22.5t53 -22.5t23 -53.5t-23 -53.5t-53 -22.5z" />
    <glyph glyph-name="divide" unicode="&#xf7;" horiz-adv-x="411" 
d="M372 207h-333v118h333v-118zM206 360q-34 0 -57.5 23t-23.5 58t23.5 57.5t57.5 22.5q33 0 56.5 -22.5t23.5 -57.5t-23.5 -58t-56.5 -23zM206 11q-34 0 -57.5 23t-23.5 58t23.5 57.5t57.5 22.5q33 0 56.5 -22.5t23.5 -57.5t-23.5 -58t-56.5 -23z" />
    <glyph glyph-name="oslash" unicode="&#xf8;" horiz-adv-x="545" 
d="M473 328q34 -51 34 -116q0 -96 -67 -158.5t-167 -62.5q-83 0 -146 47l-61 -52l-52 62l58 48q-34 53 -34 116q0 97 67.5 160t167.5 63q82 0 145 -47l61 52l52 -63zM172 181l154 130q-24 13 -53 13q-47 0 -75.5 -31t-28.5 -81q0 -16 3 -31zM373 244l-155 -130
q23 -14 55 -14q47 0 75 31t28 81q0 17 -3 32z" />
    <glyph glyph-name="ugrave" unicode="&#xf9;" horiz-adv-x="528" 
d="M209 -9q-71 0 -115 50t-44 139v246h135v-237q0 -76 71 -76q40 0 62 22t22 63v228h135v-426h-135l3 70q-40 -79 -134 -79zM216 500l-104 188h154l52 -188h-102z" />
    <glyph glyph-name="uacute" unicode="&#xfa;" horiz-adv-x="528" 
d="M209 -9q-71 0 -115 50t-44 139v246h135v-237q0 -76 71 -76q40 0 62 22t22 63v228h135v-426h-135l3 70q-40 -79 -134 -79zM214 500l52 188h154l-104 -188h-102z" />
    <glyph glyph-name="ucircumflex" unicode="&#xfb;" horiz-adv-x="528" 
d="M209 -9q-71 0 -115 50t-44 139v246h135v-237q0 -76 71 -76q40 0 62 22t22 63v228h135v-426h-135l3 70q-40 -79 -134 -79zM99 500l159 216h11l159 -216h-108l-56 65l-57 -65h-108z" />
    <glyph glyph-name="udieresis" unicode="&#xfc;" horiz-adv-x="528" 
d="M209 -9q-71 0 -115 50t-44 139v246h135v-237q0 -76 71 -76q40 0 62 22t22 63v228h135v-426h-135l3 70q-40 -79 -134 -79zM369 506q-30 0 -53 22.5t-23 53.5t23 53.5t53 22.5t53 -22.5t23 -53.5t-23 -53.5t-53 -22.5zM161 506q-30 0 -53 22.5t-23 53.5t23 53.5t53 22.5
t53 -22.5t23 -53.5t-23 -53.5t-53 -22.5z" />
    <glyph glyph-name="yacute" unicode="&#xfd;" horiz-adv-x="490" 
d="M67 -212l111 252l-169 386h149l61 -164q14 -37 30 -109q11 64 29 109l66 164h137l-279 -638h-135zM202 500l52 188h154l-104 -188h-102z" />
    <glyph glyph-name="thorn" unicode="&#xfe;" horiz-adv-x="555" 
d="M57 -212v934h135v-356q46 69 134 69q80 0 135 -62t55 -159q0 -96 -56.5 -159.5t-136.5 -63.5q-94 0 -131 66v-269h-135zM284 109q43 0 68 27.5t25 77.5q0 47 -25 74.5t-68 27.5q-44 0 -70 -27.5t-26 -74.5q0 -50 26 -77.5t70 -27.5z" />
    <glyph glyph-name="ydieresis" unicode="&#xff;" horiz-adv-x="490" 
d="M67 -212l111 252l-169 386h149l61 -164q7 -18 14.5 -45.5t11.5 -46.5l4 -18q13 71 29 110l66 164h137l-279 -638h-135zM357 506q-30 0 -53 22.5t-23 53.5t23 53.5t53 22.5t53 -22.5t23 -53.5t-23 -53.5t-53 -22.5zM149 506q-30 0 -53 22.5t-23 53.5t23 53.5t53 22.5
t53 -22.5t23 -53.5t-23 -53.5t-53 -22.5z" />
    <glyph glyph-name="Amacron" unicode="&#x100;" horiz-adv-x="664" 
d="M21 0l299 686h12l311 -686h-147l-38 92h-264l-38 -92h-135zM194 749v99h264v-99h-264zM241 209h167l-43 103q-20 47 -41 121l-2 -9l-7 -21.5l-9 -28l-11 -32.5l-11 -30z" />
    <glyph glyph-name="amacron" unicode="&#x101;" horiz-adv-x="488" 
d="M304 253q-3 71 -71 71q-53 0 -97 -39l-75 80q35 34 75.5 52t109.5 18q86 0 139 -48.5t53 -144.5v-242h-134l3 59q-44 -68 -126 -68q-65 0 -107.5 32.5t-42.5 101.5q0 128 174 128h99zM304 173h-92q-49 0 -49 -39q0 -38 58 -38q40 0 61.5 16t21.5 44v17zM115 516v99h264
v-99h-264z" />
    <glyph glyph-name="Abreve" unicode="&#x102;" horiz-adv-x="664" 
d="M21 0l299 686h12l311 -686h-147l-38 92h-264l-38 -92h-135zM326 737q-70 0 -113 39t-49 101l103 15q8 -57 59 -57t59 57l103 -15q-6 -62 -49 -101t-113 -39zM241 209h167l-43 103q-20 47 -41 121l-2 -9l-7 -21.5l-9 -28l-11 -32.5l-11 -30z" />
    <glyph glyph-name="abreve" unicode="&#x103;" horiz-adv-x="488" 
d="M304 253q-3 71 -71 71q-53 0 -97 -39l-75 80q35 34 75.5 52t109.5 18q86 0 139 -48.5t53 -144.5v-242h-134l3 59q-44 -68 -126 -68q-65 0 -107.5 32.5t-42.5 101.5q0 128 174 128h99zM304 173h-92q-49 0 -49 -39q0 -38 58 -38q40 0 61.5 16t21.5 44v17zM247 500
q-70 0 -113 39t-49 101l103 15q8 -57 59 -57t59 57l103 -15q-6 -62 -49 -101t-113 -39z" />
    <glyph glyph-name="Aogonek" unicode="&#x104;" horiz-adv-x="664" 
d="M580 -240q-46 0 -76.5 26t-30.5 75q0 44 40 94l35 45h-52l-38 92h-264l-38 -92h-135l299 686h12l304 -671l-50 -84q-26 -43 -26 -68q0 -29 28 -29q24 0 41 26l66 -38q-36 -62 -115 -62zM241 209h167l-43 103q-20 47 -41 121l-2 -9l-7 -21.5l-9 -28l-11 -32.5l-11 -30z
" />
    <glyph glyph-name="aogonek" unicode="&#x105;" horiz-adv-x="488" 
d="M438 32l-60 -101q-26 -43 -26 -68q0 -29 28 -29q24 0 41 26l66 -38q-36 -62 -115 -62q-46 0 -76.5 26t-30.5 75q0 44 40 94l35 45h-36l3 59q-44 -68 -126 -68q-65 0 -107.5 32.5t-42.5 101.5q0 128 174 128h99q-3 71 -71 71q-53 0 -97 -39l-75 80q35 34 75.5 52t109.5 18
q86 0 139 -48.5t53 -144.5v-210zM304 173h-92q-49 0 -49 -39q0 -38 58 -38q40 0 61.5 16t21.5 44v17z" />
    <glyph glyph-name="Cacute" unicode="&#x106;" horiz-adv-x="715" 
d="M398 -9q-147 0 -248.5 99.5t-101.5 249.5t101 249t249 99q183 0 272 -139l-107 -76q-55 89 -165 89q-91 0 -148.5 -63t-57.5 -159t57.5 -160t148.5 -64q62 0 102.5 26t72.5 74l109 -75q-96 -150 -284 -150zM330 738l52 188h154l-104 -188h-102z" />
    <glyph glyph-name="cacute" unicode="&#x107;" horiz-adv-x="477" 
d="M271 -9q-100 0 -166.5 62.5t-66.5 160.5q0 96 66.5 158.5t166.5 62.5q111 0 179 -85l-96 -78q-12 20 -35 32.5t-48 12.5q-45 0 -70 -28.5t-25 -74.5q0 -48 25 -77t70 -29q46 0 86 40l91 -80q-69 -77 -177 -77zM205 500l52 188h154l-104 -188h-102z" />
    <glyph glyph-name="Ccircumflex" unicode="&#x108;" horiz-adv-x="715" 
d="M398 -9q-147 0 -248.5 99.5t-101.5 249.5t101 249t249 99q183 0 272 -139l-107 -76q-55 89 -165 89q-91 0 -148.5 -63t-57.5 -159t57.5 -160t148.5 -64q62 0 102.5 26t72.5 74l109 -75q-96 -150 -284 -150zM215 738l159 216h11l159 -216h-108l-56 65l-57 -65h-108z" />
    <glyph glyph-name="ccircumflex" unicode="&#x109;" horiz-adv-x="477" 
d="M271 -9q-100 0 -166.5 62.5t-66.5 160.5q0 96 66.5 158.5t166.5 62.5q111 0 179 -85l-96 -78q-12 20 -35 32.5t-48 12.5q-45 0 -70 -28.5t-25 -74.5q0 -48 25 -77t70 -29q46 0 86 40l91 -80q-69 -77 -177 -77zM90 500l159 216h11l159 -216h-108l-56 65l-57 -65h-108z" />
    <glyph glyph-name="Cdotaccent" unicode="&#x10a;" horiz-adv-x="715" 
d="M398 -9q-147 0 -248.5 99.5t-101.5 249.5t101 249t249 99q183 0 272 -139l-107 -76q-55 89 -165 89q-91 0 -148.5 -63t-57.5 -159t57.5 -160t148.5 -64q62 0 102.5 26t72.5 74l109 -75q-96 -150 -284 -150zM382 730q-35 0 -60.5 24t-25.5 61q0 36 25.5 60t60.5 24t60 -24
t25 -60q0 -37 -25 -61t-60 -24z" />
    <glyph glyph-name="cdotaccent" unicode="&#x10b;" horiz-adv-x="477" 
d="M271 -9q-100 0 -166.5 62.5t-66.5 160.5q0 96 66.5 158.5t166.5 62.5q111 0 179 -85l-96 -78q-12 20 -35 32.5t-48 12.5q-45 0 -70 -28.5t-25 -74.5q0 -48 25 -77t70 -29q46 0 86 40l91 -80q-69 -77 -177 -77zM257 497q-35 0 -60.5 24t-25.5 61q0 36 25.5 60t60.5 24
t60 -24t25 -60q0 -37 -25 -61t-60 -24z" />
    <glyph glyph-name="Ccaron" unicode="&#x10c;" horiz-adv-x="715" 
d="M398 -9q-147 0 -248.5 99.5t-101.5 249.5t101 249t249 99q183 0 272 -139l-107 -76q-55 89 -165 89q-91 0 -148.5 -63t-57.5 -159t57.5 -160t148.5 -64q62 0 102.5 26t72.5 74l109 -75q-96 -150 -284 -150zM374 729l-159 216h108l56 -65l57 65h108l-159 -216h-11z" />
    <glyph glyph-name="ccaron" unicode="&#x10d;" horiz-adv-x="477" 
d="M271 -9q-100 0 -166.5 62.5t-66.5 160.5q0 96 66.5 158.5t166.5 62.5q111 0 179 -85l-96 -78q-12 20 -35 32.5t-48 12.5q-45 0 -70 -28.5t-25 -74.5q0 -48 25 -77t70 -29q46 0 86 40l91 -80q-69 -77 -177 -77zM249 481l-159 216h108l56 -65l57 65h108l-159 -216h-11z" />
    <glyph glyph-name="Dcaron" unicode="&#x10e;" horiz-adv-x="685" 
d="M71 0v680h209q157 0 257.5 -95t100.5 -245t-100 -245t-258 -95h-209zM211 123h62q109 0 164.5 59t55.5 158t-55.5 158t-164.5 59h-62v-434zM286 729l-159 216h108l56 -65l57 65h108l-159 -216h-11z" />
    <glyph glyph-name="dcaron" unicode="&#x10f;" horiz-adv-x="693" 
d="M551 420l38 114q-45 21 -45 73q0 34 24 57t56 23q33 0 57.5 -23t24.5 -56q0 -34 -30 -86l-60 -102h-65zM232 -9q-80 0 -136.5 63.5t-56.5 159.5t56 158.5t135 62.5q89 0 133 -69v356h135v-722h-135l3 62q-38 -71 -134 -71zM271 109q44 0 70 27.5t26 77.5q0 47 -26 74.5
t-70 27.5q-43 0 -68 -27.5t-25 -74.5q0 -50 25 -77.5t68 -27.5z" />
    <glyph glyph-name="Dcroat" unicode="&#x110;" horiz-adv-x="685" 
d="M71 0v278h-59v121h59v281h209q157 0 257.5 -95t100.5 -245t-100 -245t-258 -95h-209zM211 123h62q109 0 164.5 59t55.5 158t-55.5 158t-164.5 59h-62v-158h151v-121h-151v-155z" />
    <glyph glyph-name="dcroat" unicode="&#x111;" horiz-adv-x="551" 
d="M363 488h-123v112h123v122h135v-122h64v-112h-64v-488h-135l3 62q-38 -71 -134 -71q-80 0 -136.5 63.5t-56.5 159.5t56 158.5t135 62.5q89 0 133 -69v122zM271 109q44 0 70 27.5t26 77.5q0 47 -26 74.5t-70 27.5q-43 0 -68 -27.5t-25 -74.5q0 -50 25 -77.5t68 -27.5z" />
    <glyph glyph-name="Emacron" unicode="&#x112;" horiz-adv-x="594" 
d="M71 0v680h450v-123h-310v-156h273v-120h-273v-158h324v-123h-464zM170 749v99h264v-99h-264z" />
    <glyph glyph-name="emacron" unicode="&#x113;" horiz-adv-x="538" 
d="M176 172q20 -69 110 -69q59 0 107 34l77 -83q-72 -63 -182 -63q-113 0 -181.5 62t-68.5 161q0 96 67.5 158.5t167.5 62.5q112 0 173 -74t53 -189h-323zM174 250h189q-10 75 -89 75q-84 0 -100 -75zM137 516v99h264v-99h-264z" />
    <glyph glyph-name="Edotaccent" unicode="&#x116;" horiz-adv-x="594" 
d="M71 0v680h450v-123h-310v-156h273v-120h-273v-158h324v-123h-464zM303 730q-35 0 -60.5 24t-25.5 61q0 36 25.5 60t60.5 24t60 -24t25 -60q0 -37 -25 -61t-60 -24z" />
    <glyph glyph-name="edotaccent" unicode="&#x117;" horiz-adv-x="538" 
d="M176 172q20 -69 110 -69q59 0 107 34l77 -83q-72 -63 -182 -63q-113 0 -181.5 62t-68.5 161q0 96 67.5 158.5t167.5 62.5q112 0 173 -74t53 -189h-323zM174 250h189q-10 75 -89 75q-84 0 -100 -75zM270 497q-35 0 -60.5 24t-25.5 61q0 36 25.5 60t60.5 24t60 -24t25 -60
q0 -37 -25 -61t-60 -24z" />
    <glyph glyph-name="Eogonek" unicode="&#x118;" horiz-adv-x="594" 
d="M417 -240q-46 0 -76.5 26t-30.5 75q0 44 40 94l35 45h-314v680h450v-123h-310v-156h273v-120h-273v-158h324v-123h-71l-41 -69q-26 -44 -26 -68q0 -29 28 -29q24 0 41 26l66 -38q-36 -62 -115 -62z" />
    <glyph glyph-name="eogonek" unicode="&#x119;" horiz-adv-x="538" 
d="M355 -240q-46 0 -76.5 26t-30.5 75q0 44 40 94l30 39q-16 -3 -30 -3q-112 0 -181 62t-69 161q0 96 67.5 158.5t167.5 62.5q112 0 173 -74t53 -189h-323q20 -69 110 -69q59 0 107 34l77 -83q-70 -58 -109 -123q-26 -42 -26 -68q0 -29 28 -29q24 0 41 26l66 -38
q-36 -62 -115 -62zM174 250h189q-10 75 -89 75q-84 0 -100 -75z" />
    <glyph glyph-name="Ecaron" unicode="&#x11a;" horiz-adv-x="594" 
d="M71 0v680h450v-123h-310v-156h273v-120h-273v-158h324v-123h-464zM295 729l-159 216h108l56 -65l57 65h108l-159 -216h-11z" />
    <glyph glyph-name="ecaron" unicode="&#x11b;" horiz-adv-x="538" 
d="M176 172q20 -69 110 -69q59 0 107 34l77 -83q-72 -63 -182 -63q-113 0 -181.5 62t-68.5 161q0 96 67.5 158.5t167.5 62.5q112 0 173 -74t53 -189h-323zM174 250h189q-10 75 -89 75q-84 0 -100 -75zM262 481l-159 216h108l56 -65l57 65h108l-159 -216h-11z" />
    <glyph glyph-name="Gcircumflex" unicode="&#x11c;" horiz-adv-x="739" 
d="M417 -9q-165 0 -267 98.5t-102 250.5t97 250t250 98q165 0 247 -94l-95 -94q-29 30 -63 46t-89 16q-91 0 -147 -62.5t-56 -159.5q0 -98 60 -161t165 -63q82 0 133 25v110h-164v123h292v-304q-36 -30 -106.5 -54.5t-154.5 -24.5zM213 738l159 216h11l159 -216h-108l-56 65
l-57 -65h-108z" />
    <glyph glyph-name="gcircumflex" unicode="&#x11d;" horiz-adv-x="552" 
d="M269 -222q-149 0 -227 105l95 74q54 -66 126 -66q48 0 74.5 29t26.5 86v51q-39 -66 -132 -66q-80 0 -136.5 63.5t-56.5 159.5t56 158.5t135 62.5q95 0 137 -75l-3 66h135v-425q0 -114 -64.5 -168.5t-165.5 -54.5zM271 109q44 0 70 27.5t26 77.5q0 47 -26 74.5t-70 27.5
q-43 0 -68 -27.5t-25 -74.5q0 -50 25 -77.5t68 -27.5zM111 500l159 216h11l159 -216h-108l-56 65l-57 -65h-108z" />
    <glyph glyph-name="Gbreve" unicode="&#x11e;" horiz-adv-x="739" 
d="M417 -9q-165 0 -267 98.5t-102 250.5t97 250t250 98q165 0 247 -94l-95 -94q-29 30 -63 46t-89 16q-91 0 -147 -62.5t-56 -159.5q0 -98 60 -161t165 -63q82 0 133 25v110h-164v123h292v-304q-36 -30 -106.5 -54.5t-154.5 -24.5zM379 737q-70 0 -113 39t-49 101l103 15
q8 -57 59 -57t59 57l103 -15q-6 -62 -49 -101t-113 -39z" />
    <glyph glyph-name="gbreve" unicode="&#x11f;" horiz-adv-x="552" 
d="M269 -222q-149 0 -227 105l95 74q54 -66 126 -66q48 0 74.5 29t26.5 86v51q-39 -66 -132 -66q-80 0 -136.5 63.5t-56.5 159.5t56 158.5t135 62.5q95 0 137 -75l-3 66h135v-425q0 -114 -64.5 -168.5t-165.5 -54.5zM271 109q44 0 70 27.5t26 77.5q0 47 -26 74.5t-70 27.5
q-43 0 -68 -27.5t-25 -74.5q0 -50 25 -77.5t68 -27.5zM277 500q-70 0 -113 39t-49 101l103 15q8 -57 59 -57t59 57l103 -15q-6 -62 -49 -101t-113 -39z" />
    <glyph glyph-name="Gdotaccent" unicode="&#x120;" horiz-adv-x="739" 
d="M417 -9q-165 0 -267 98.5t-102 250.5t97 250t250 98q165 0 247 -94l-95 -94q-29 30 -63 46t-89 16q-91 0 -147 -62.5t-56 -159.5q0 -98 60 -161t165 -63q82 0 133 25v110h-164v123h292v-304q-36 -30 -106.5 -54.5t-154.5 -24.5zM380 730q-35 0 -60.5 24t-25.5 61
q0 36 25.5 60t60.5 24t60 -24t25 -60q0 -37 -25 -61t-60 -24z" />
    <glyph glyph-name="gdotaccent" unicode="&#x121;" horiz-adv-x="552" 
d="M269 -222q-149 0 -227 105l95 74q54 -66 126 -66q48 0 74.5 29t26.5 86v51q-39 -66 -132 -66q-80 0 -136.5 63.5t-56.5 159.5t56 158.5t135 62.5q95 0 137 -75l-3 66h135v-425q0 -114 -64.5 -168.5t-165.5 -54.5zM271 109q44 0 70 27.5t26 77.5q0 47 -26 74.5t-70 27.5
q-43 0 -68 -27.5t-25 -74.5q0 -50 25 -77.5t68 -27.5zM278 497q-35 0 -60.5 24t-25.5 61q0 36 25.5 60t60.5 24t60 -24t25 -60q0 -37 -25 -61t-60 -24z" />
    <glyph glyph-name="Gcommaaccent" unicode="&#x122;" horiz-adv-x="739" 
d="M417 -9q-165 0 -267 98.5t-102 250.5t97 250t250 98q165 0 247 -94l-95 -94q-29 30 -63 46t-89 16q-91 0 -147 -62.5t-56 -159.5q0 -98 60 -161t165 -63q82 0 133 25v110h-164v123h292v-304q-36 -30 -106.5 -54.5t-154.5 -24.5zM312 -283l31 97q-41 20 -41 69
q0 32 22.5 54t53.5 22t54.5 -21.5t23.5 -53.5q0 -40 -26 -82l-52 -85h-66z" />
    <glyph glyph-name="gcommaaccent" unicode="&#x123;" horiz-adv-x="552" 
d="M269 -222q-149 0 -227 105l95 74q54 -66 126 -66q48 0 74.5 29t26.5 86v51q-39 -66 -132 -66q-80 0 -136.5 63.5t-56.5 159.5t56 158.5t135 62.5q95 0 137 -75l-3 66h135v-425q0 -114 -64.5 -168.5t-165.5 -54.5zM271 109q44 0 70 27.5t26 77.5q0 47 -26 74.5t-70 27.5
q-43 0 -68 -27.5t-25 -74.5q0 -50 25 -77.5t68 -27.5zM344 738l-31 -97q41 -21 41 -69q0 -32 -22.5 -54t-53.5 -22t-54.5 21.5t-23.5 53.5q0 40 26 82l52 85h66z" />
    <glyph glyph-name="Hcircumflex" unicode="&#x124;" horiz-adv-x="713" 
d="M71 0v680h140v-288h291v288h140v-680h-140v267h-291v-267h-140zM190 738l159 216h11l159 -216h-108l-56 65l-57 -65h-108z" />
    <glyph glyph-name="hcircumflex" unicode="&#x125;" horiz-adv-x="530" 
d="M53 0v722h135v-363q40 76 132 76q71 0 115.5 -50t44.5 -139v-246h-135v237q0 75 -71 75q-41 0 -63.5 -22t-22.5 -62v-228h-135zM98 765l159 216h11l159 -216h-108l-56 65l-57 -65h-108z" />
    <glyph glyph-name="Hbar" unicode="&#x126;" horiz-adv-x="713" 
d="M1 463v95h70v122h140v-122h291v122h140v-122h70v-95h-70v-463h-140v267h-291v-267h-140v463h-70zM211 392h291v71h-291v-71z" />
    <glyph glyph-name="hbar" unicode="&#x127;" horiz-adv-x="530" 
d="M-11 488v112h64v122h135v-122h123v-112h-123v-129q40 76 132 76q71 0 115.5 -50t44.5 -139v-246h-135v237q0 75 -71 75q-41 0 -63.5 -22t-22.5 -62v-228h-135v488h-64z" />
    <glyph glyph-name="Imacron" unicode="&#x12a;" horiz-adv-x="287" 
d="M74 0v680h140v-680h-140zM12 749v99h264v-99h-264z" />
    <glyph glyph-name="imacron" unicode="&#x12b;" horiz-adv-x="251" 
d="M58 0v426h135v-426h-135zM13 516v99h224v-99h-224z" />
    <glyph glyph-name="Iogonek" unicode="&#x12e;" horiz-adv-x="287" 
d="M116 0h-42v680h140v-648l-60 -101q-17 -29 -21.5 -40.5t-4.5 -27.5q0 -29 28 -29q24 0 41 26l66 -38q-36 -62 -115 -62q-46 0 -76.5 26t-30.5 75q0 44 40 94z" />
    <glyph glyph-name="iogonek" unicode="&#x12f;" horiz-adv-x="251" 
d="M126 497q-35 0 -60.5 24t-25.5 61q0 36 25.5 60t60.5 24t60 -24t25 -60q0 -37 -25 -61t-60 -24zM99 0h-41v426h135v-401l-56 -94q-26 -44 -26 -68q0 -29 28 -29q24 0 41 26l66 -38q-36 -62 -115 -62q-46 0 -76.5 26t-30.5 75q0 44 40 94z" />
    <glyph glyph-name="Idotaccent" unicode="&#x130;" horiz-adv-x="287" 
d="M74 0v680h140v-680h-140zM145 730q-35 0 -60.5 24t-25.5 61q0 36 25.5 60t60.5 24t60 -24t25 -60q0 -37 -25 -61t-60 -24z" />
    <glyph glyph-name="dotlessi" unicode="&#x131;" horiz-adv-x="251" 
d="M58 0v426h135v-426h-135z" />
    <glyph glyph-name="Jcircumflex" unicode="&#x134;" horiz-adv-x="496" 
d="M223 -9q-150 0 -210 128l114 69q14 -25 23 -37.5t26.5 -23.5t40.5 -11q37 0 56 19t19 69v476h140v-478q0 -105 -56 -158t-153 -53zM194 738l159 216h11l159 -216h-108l-56 65l-57 -65h-108z" />
    <glyph glyph-name="jcircumflex" unicode="&#x135;" horiz-adv-x="250" 
d="M40 -222q-35 0 -65.5 15t-47.5 36l67 80q18 -16 33 -16q31 0 31 34v499h135v-494q0 -74 -39 -114t-114 -40zM-43 500l159 216h11l159 -216h-108l-56 65l-57 -65h-108z" />
    <glyph glyph-name="Kcommaaccent" unicode="&#x136;" horiz-adv-x="645" 
d="M71 0v680h140v-225q0 -37 -9 -114q30 67 60 106l182 233h159l-232 -298l256 -382h-169l-181 277l-66 -79v-198h-140zM263 -283l31 97q-41 20 -41 69q0 32 22.5 54t53.5 22t54.5 -21.5t23.5 -53.5q0 -40 -26 -82l-52 -85h-66z" />
    <glyph glyph-name="kcommaaccent" unicode="&#x137;" horiz-adv-x="494" 
d="M188 123v-123h-135v722h135v-368q0 -45 -7 -92l140 164h150l-151 -174l167 -252h-157l-106 161zM173 -283l31 97q-41 20 -41 69q0 32 22.5 54t53.5 22t54.5 -21.5t23.5 -53.5q0 -40 -26 -82l-52 -85h-66z" />
    <glyph glyph-name="Lacute" unicode="&#x139;" horiz-adv-x="561" 
d="M71 0v680h140v-557h308v-123h-448zM87 738l52 188h154l-104 -188h-102z" />
    <glyph glyph-name="lacute" unicode="&#x13a;" horiz-adv-x="246" 
d="M56 0v722h134v-722h-134zM72 765l52 188h154l-104 -188h-102z" />
    <glyph glyph-name="Lcommaaccent" unicode="&#x13b;" horiz-adv-x="561" 
d="M71 0v680h140v-557h308v-123h-448zM218 -283l31 97q-41 20 -41 69q0 32 22.5 54t53.5 22t54.5 -21.5t23.5 -53.5q0 -40 -26 -82l-52 -85h-66z" />
    <glyph glyph-name="lcommaaccent" unicode="&#x13c;" horiz-adv-x="246" 
d="M56 0v722h134v-722h-134zM56 -283l31 97q-41 20 -41 69q0 32 22.5 54t53.5 22t54.5 -21.5t23.5 -53.5q0 -40 -26 -82l-52 -85h-66z" />
    <glyph glyph-name="Lcaron" unicode="&#x13d;" horiz-adv-x="561" 
d="M324 420l38 114q-45 21 -45 73q0 34 24 57t56 23q33 0 57.5 -23t24.5 -56q0 -34 -30 -86l-60 -102h-65zM71 0v680h140v-557h308v-123h-448z" />
    <glyph glyph-name="lcaron" unicode="&#x13e;" horiz-adv-x="385" 
d="M243 420l38 114q-45 21 -45 73q0 34 24 57t56 23q33 0 57.5 -23t24.5 -56q0 -34 -30 -86l-60 -102h-65zM56 0v722h134v-722h-134z" />
    <glyph glyph-name="Lslash" unicode="&#x141;" horiz-adv-x="571" 
d="M81 0v217l-74 -25v122l74 25v341h140v-292l180 62v-122l-180 -62v-143h308v-123h-448z" />
    <glyph glyph-name="lslash" unicode="&#x142;" horiz-adv-x="286" 
d="M76 0v207l-68 -38v130l68 38v385h134v-310l73 41v-130l-73 -41v-282h-134z" />
    <glyph glyph-name="Nacute" unicode="&#x143;" horiz-adv-x="701" 
d="M616 -6l-343 322q-15 14 -35.5 37.5l-33.5 39.5l-12 16q10 -75 10 -124v-285h-131v686h14l343 -322q15 -14 35 -37l33 -39l12 -17q-9 77 -9 124v285h131v-686h-14zM296 738l52 188h154l-104 -188h-102z" />
    <glyph glyph-name="nacute" unicode="&#x144;" horiz-adv-x="530" 
d="M53 0v426h135l-3 -70q40 79 135 79q71 0 115.5 -50t44.5 -139v-246h-135v237q0 75 -71 75q-41 0 -63.5 -22t-22.5 -62v-228h-135zM210 500l52 188h154l-104 -188h-102z" />
    <glyph glyph-name="Ncommaaccent" unicode="&#x145;" horiz-adv-x="701" 
d="M616 -6l-343 322q-15 14 -35.5 37.5l-33.5 39.5l-12 16q10 -75 10 -124v-285h-131v686h14l343 -322q15 -14 35 -37l33 -39l12 -17q-9 77 -9 124v285h131v-686h-14zM308 -283l31 97q-41 20 -41 69q0 32 22.5 54t53.5 22t54.5 -21.5t23.5 -53.5q0 -40 -26 -82l-52 -85h-66z
" />
    <glyph glyph-name="ncommaaccent" unicode="&#x146;" horiz-adv-x="530" 
d="M53 0v426h135l-3 -70q40 79 135 79q71 0 115.5 -50t44.5 -139v-246h-135v237q0 75 -71 75q-41 0 -63.5 -22t-22.5 -62v-228h-135zM194 -283l31 97q-41 20 -41 69q0 32 22.5 54t53.5 22t54.5 -21.5t23.5 -53.5q0 -40 -26 -82l-52 -85h-66z" />
    <glyph glyph-name="Ncaron" unicode="&#x147;" horiz-adv-x="701" 
d="M616 -6l-343 322q-15 14 -35.5 37.5l-33.5 39.5l-12 16q10 -75 10 -124v-285h-131v686h14l343 -322q15 -14 35 -37l33 -39l12 -17q-9 77 -9 124v285h131v-686h-14zM339 729l-159 216h108l56 -65l57 65h108l-159 -216h-11z" />
    <glyph glyph-name="ncaron" unicode="&#x148;" horiz-adv-x="530" 
d="M53 0v426h135l-3 -70q40 79 135 79q71 0 115.5 -50t44.5 -139v-246h-135v237q0 75 -71 75q-41 0 -63.5 -22t-22.5 -62v-228h-135zM254 481l-159 216h108l56 -65l57 65h108l-159 -216h-11z" />
    <glyph glyph-name="Omacron" unicode="&#x14c;" horiz-adv-x="800" 
d="M400 -9q-148 0 -250 99.5t-102 249.5t102 249.5t250 99.5t250 -99.5t102 -249.5t-102 -249.5t-250 -99.5zM400 116q92 0 150 64t58 160t-58 160t-150 64t-150 -64t-58 -160t58 -160t150 -64zM268 749v99h264v-99h-264z" />
    <glyph glyph-name="omacron" unicode="&#x14d;" horiz-adv-x="545" 
d="M273 -9q-100 0 -167.5 62.5t-67.5 158.5q0 97 67.5 160t167.5 63t167 -63t67 -160q0 -96 -67 -158.5t-167 -62.5zM273 105q44 0 70 29.5t26 77.5q0 49 -25.5 78t-70.5 29t-71 -29.5t-26 -77.5t26.5 -77.5t70.5 -29.5zM140 516v99h264v-99h-264z" />
    <glyph glyph-name="Ohungarumlaut" unicode="&#x150;" horiz-adv-x="800" 
d="M400 -9q-148 0 -250 99.5t-102 249.5t102 249.5t250 99.5t250 -99.5t102 -249.5t-102 -249.5t-250 -99.5zM400 116q92 0 150 64t58 160t-58 160t-150 64t-150 -64t-58 -160t58 -160t150 -64zM441 758l51 188h140l-89 -188h-102zM256 758l51 188h140l-89 -188h-102z" />
    <glyph glyph-name="ohungarumlaut" unicode="&#x151;" horiz-adv-x="545" 
d="M273 -9q-100 0 -167.5 62.5t-67.5 158.5q0 97 67.5 160t167.5 63t167 -63t67 -160q0 -96 -67 -158.5t-167 -62.5zM273 105q44 0 70 29.5t26 77.5q0 49 -25.5 78t-70.5 29t-71 -29.5t-26 -77.5t26.5 -77.5t70.5 -29.5zM313 500l51 188h140l-89 -188h-102zM128 500l51 188
h140l-89 -188h-102z" />
    <glyph glyph-name="OE" unicode="&#x152;" horiz-adv-x="997" 
d="M405 0q-157 0 -257.5 95t-100.5 245t100 245t258 95h519v-123h-310v-156h273v-120h-273v-158h324v-123h-533zM412 123h62v434h-62q-109 0 -164.5 -59t-55.5 -158t55.5 -158t164.5 -59z" />
    <glyph glyph-name="oe" unicode="&#x153;" horiz-adv-x="867" 
d="M505 172q20 -69 110 -69q59 0 107 34l77 -83q-72 -63 -182 -63q-118 0 -179 74q-55 -74 -165 -74q-100 0 -167.5 62.5t-67.5 158.5q0 97 67.5 160t167.5 63q108 0 164 -73q56 73 165 73q112 0 172.5 -74.5t53.5 -188.5h-323zM503 250h189q-10 75 -89 75q-84 0 -100 -75z
M273 105q44 0 70 29.5t26 77.5q0 49 -25.5 78t-70.5 29t-71 -29.5t-26 -77.5t26.5 -77.5t70.5 -29.5z" />
    <glyph glyph-name="Racute" unicode="&#x154;" horiz-adv-x="629" 
d="M71 0v680h252q112 0 182.5 -55.5t70.5 -168.5q0 -147 -133 -199l155 -257h-160l-138 236h-89v-236h-140zM211 354h108q113 0 113 102q0 101 -113 101h-108v-203zM251 738l52 188h154l-104 -188h-102z" />
    <glyph glyph-name="racute" unicode="&#x155;" horiz-adv-x="392" 
d="M53 0v426h135l-2 -77q38 86 125 86q34 0 66 -17l-43 -123q-28 13 -52 13q-48 0 -71 -26.5t-23 -92.5v-189h-135zM164 500l52 188h154l-104 -188h-102z" />
    <glyph glyph-name="Rcommaaccent" unicode="&#x156;" horiz-adv-x="629" 
d="M71 0v680h252q112 0 182.5 -55.5t70.5 -168.5q0 -147 -133 -199l155 -257h-160l-138 236h-89v-236h-140zM211 354h108q113 0 113 102q0 101 -113 101h-108v-203zM256 -283l31 97q-41 20 -41 69q0 32 22.5 54t53.5 22t54.5 -21.5t23.5 -53.5q0 -40 -26 -82l-52 -85h-66z
" />
    <glyph glyph-name="rcommaaccent" unicode="&#x157;" horiz-adv-x="392" 
d="M53 0v426h135l-2 -77q38 86 125 86q34 0 66 -17l-43 -123q-28 13 -52 13q-48 0 -71 -26.5t-23 -92.5v-189h-135zM56 -283l31 97q-41 20 -41 69q0 32 22.5 54t53.5 22t54.5 -21.5t23.5 -53.5q0 -40 -26 -82l-52 -85h-66z" />
    <glyph glyph-name="Rcaron" unicode="&#x158;" horiz-adv-x="629" 
d="M71 0v680h252q112 0 182.5 -55.5t70.5 -168.5q0 -147 -133 -199l155 -257h-160l-138 236h-89v-236h-140zM211 354h108q113 0 113 102q0 101 -113 101h-108v-203zM295 729l-159 216h108l56 -65l57 65h108l-159 -216h-11z" />
    <glyph glyph-name="rcaron" unicode="&#x159;" horiz-adv-x="392" 
d="M53 0v426h135l-2 -77q38 86 125 86q34 0 66 -17l-43 -123q-28 13 -52 13q-48 0 -71 -26.5t-23 -92.5v-189h-135zM208 481l-159 216h108l56 -65l57 65h108l-159 -216h-11z" />
    <glyph glyph-name="Sacute" unicode="&#x15a;" horiz-adv-x="537" 
d="M267 -9q-93 0 -157.5 39t-97.5 104l114 66q52 -85 138 -85q43 0 69 19.5t26 49.5q0 23 -14 40t-31.5 26.5t-56.5 26.5l-35 15q-83 36 -125.5 83.5t-42.5 127.5t56.5 132.5t148.5 52.5q68 0 116.5 -26.5t82.5 -85.5l-109 -70q-33 60 -90 60q-30 0 -48.5 -17t-18.5 -43
q0 -30 19 -47t67 -38l35 -15q97 -42 141.5 -89.5t44.5 -130.5q0 -92 -64.5 -143.5t-167.5 -51.5zM202 738l52 188h154l-104 -188h-102z" />
    <glyph glyph-name="sacute" unicode="&#x15b;" horiz-adv-x="421" 
d="M216 -9q-126 0 -194 81l79 70q47 -45 106 -45q58 0 58 26q0 5 -1.5 8.5t-5.5 6.5t-8.5 5t-14 4.5l-17.5 4.5l-22.5 5.5l-26.5 6.5q-123 32 -123 136q0 68 46 101.5t119 33.5q98 0 155 -59l-72 -77q-38 32 -82 32q-46 0 -46 -25q0 -15 13.5 -21t53.5 -15q12 -3 18 -4
q140 -32 140 -133q0 -142 -175 -142zM160 500l52 188h154l-104 -188h-102z" />
    <glyph glyph-name="Scircumflex" unicode="&#x15c;" horiz-adv-x="537" 
d="M267 -9q-93 0 -157.5 39t-97.5 104l114 66q52 -85 138 -85q43 0 69 19.5t26 49.5q0 23 -14 40t-31.5 26.5t-56.5 26.5l-35 15q-83 36 -125.5 83.5t-42.5 127.5t56.5 132.5t148.5 52.5q68 0 116.5 -26.5t82.5 -85.5l-109 -70q-33 60 -90 60q-30 0 -48.5 -17t-18.5 -43
q0 -30 19 -47t67 -38l35 -15q97 -42 141.5 -89.5t44.5 -130.5q0 -92 -64.5 -143.5t-167.5 -51.5zM91 738l159 216h11l159 -216h-108l-56 65l-57 -65h-108z" />
    <glyph glyph-name="scircumflex" unicode="&#x15d;" horiz-adv-x="421" 
d="M216 -9q-126 0 -194 81l79 70q47 -45 106 -45q58 0 58 26q0 5 -1.5 8.5t-5.5 6.5t-8.5 5t-14 4.5l-17.5 4.5l-22.5 5.5l-26.5 6.5q-123 32 -123 136q0 68 46 101.5t119 33.5q98 0 155 -59l-72 -77q-38 32 -82 32q-46 0 -46 -25q0 -15 13.5 -21t53.5 -15q12 -3 18 -4
q140 -32 140 -133q0 -142 -175 -142zM45 500l159 216h11l159 -216h-108l-56 65l-57 -65h-108z" />
    <glyph glyph-name="Scedilla" unicode="&#x15e;" horiz-adv-x="537" 
d="M269 -240q-83 0 -118 60l64 39q15 -28 43 -28q15 0 25.5 9t10.5 25q0 34 -41 34h-34v95q-147 19 -207 140l114 66q52 -85 138 -85q43 0 69 19.5t26 49.5q0 23 -14 40t-31.5 26.5t-56.5 26.5l-35 15q-83 36 -125.5 83.5t-42.5 127.5t56.5 132.5t148.5 52.5
q68 0 116.5 -26.5t82.5 -85.5l-109 -70q-33 60 -90 60q-30 0 -48.5 -17t-18.5 -43q0 -30 19 -47t67 -38l35 -15q97 -42 141.5 -89.5t44.5 -130.5q0 -87 -58 -138t-153 -56v-31q38 -7 63.5 -33.5t25.5 -70.5q0 -43 -32.5 -70t-75.5 -27z" />
    <glyph glyph-name="scedilla" unicode="&#x15f;" horiz-adv-x="421" 
d="M215 -240q-83 0 -118 60l64 39q15 -28 43 -28q15 0 25.5 9t10.5 25q0 34 -41 34h-34v96q-90 13 -143 77l79 70q47 -45 106 -45q58 0 58 26q0 5 -1.5 8.5t-5.5 6.5t-8.5 5t-14 4.5l-17.5 4.5l-22.5 5.5l-26.5 6.5q-123 32 -123 136q0 68 46 101.5t119 33.5q98 0 155 -59
l-72 -77q-38 32 -82 32q-46 0 -46 -25q0 -15 13.5 -21t53.5 -15q12 -3 18 -4q140 -32 140 -133q0 -134 -157 -141v-31q38 -7 63.5 -33.5t25.5 -70.5q0 -43 -32.5 -70t-75.5 -27z" />
    <glyph glyph-name="Scaron" unicode="&#x160;" horiz-adv-x="537" 
d="M267 -9q-93 0 -157.5 39t-97.5 104l114 66q52 -85 138 -85q43 0 69 19.5t26 49.5q0 23 -14 40t-31.5 26.5t-56.5 26.5l-35 15q-83 36 -125.5 83.5t-42.5 127.5t56.5 132.5t148.5 52.5q68 0 116.5 -26.5t82.5 -85.5l-109 -70q-33 60 -90 60q-30 0 -48.5 -17t-18.5 -43
q0 -30 19 -47t67 -38l35 -15q97 -42 141.5 -89.5t44.5 -130.5q0 -92 -64.5 -143.5t-167.5 -51.5zM250 729l-159 216h108l56 -65l57 65h108l-159 -216h-11z" />
    <glyph glyph-name="scaron" unicode="&#x161;" horiz-adv-x="421" 
d="M216 -9q-126 0 -194 81l79 70q47 -45 106 -45q58 0 58 26q0 5 -1.5 8.5t-5.5 6.5t-8.5 5t-14 4.5l-17.5 4.5l-22.5 5.5l-26.5 6.5q-123 32 -123 136q0 68 46 101.5t119 33.5q98 0 155 -59l-72 -77q-38 32 -82 32q-46 0 -46 -25q0 -15 13.5 -21t53.5 -15q12 -3 18 -4
q140 -32 140 -133q0 -142 -175 -142zM204 481l-159 216h108l56 -65l57 65h108l-159 -216h-11z" />
    <glyph glyph-name="Tcommaaccent" unicode="&#x162;" horiz-adv-x="592" 
d="M226 0v557h-194v123h528v-123h-194v-557h-140zM229 -283l31 97q-41 20 -41 69q0 32 22.5 54t53.5 22t54.5 -21.5t23.5 -53.5q0 -40 -26 -82l-52 -85h-66z" />
    <glyph glyph-name="tcommaaccent" unicode="&#x163;" horiz-adv-x="382" 
d="M242 -11q-148 0 -148 171v154h-63v112h63v152h134v-152h109v-112h-109v-158q0 -30 9 -41t26 -11q20 0 47 18l51 -94q-48 -39 -119 -39zM142 -283l31 97q-41 20 -41 69q0 32 22.5 54t53.5 22t54.5 -21.5t23.5 -53.5q0 -40 -26 -82l-52 -85h-66z" />
    <glyph glyph-name="Tcaron" unicode="&#x164;" horiz-adv-x="592" 
d="M226 0v557h-194v123h528v-123h-194v-557h-140zM289 729l-159 216h108l56 -65l57 65h108l-159 -216h-11z" />
    <glyph glyph-name="tcaron" unicode="&#x165;" horiz-adv-x="505" 
d="M363 420l38 114q-45 21 -45 73q0 34 24 57t56 23q33 0 57.5 -23t24.5 -56q0 -34 -30 -86l-60 -102h-65zM242 -11q-148 0 -148 171v154h-63v112h63v152h134v-152h109v-112h-109v-158q0 -30 9 -41t26 -11q20 0 47 18l51 -94q-48 -39 -119 -39z" />
    <glyph glyph-name="Umacron" unicode="&#x16a;" horiz-adv-x="686" 
d="M344 -9q-123 0 -199.5 65.5t-76.5 189.5v434h140v-426q0 -73 32.5 -105t103.5 -32q70 0 102 32t32 105v426h140v-434q0 -124 -76 -189.5t-198 -65.5zM211 749v99h264v-99h-264z" />
    <glyph glyph-name="umacron" unicode="&#x16b;" horiz-adv-x="528" 
d="M209 -9q-71 0 -115 50t-44 139v246h135v-237q0 -76 71 -76q40 0 62 22t22 63v228h135v-426h-135l3 70q-40 -79 -134 -79zM133 516v99h264v-99h-264z" />
    <glyph glyph-name="Ubreve" unicode="&#x16c;" horiz-adv-x="686" 
d="M344 -9q-123 0 -199.5 65.5t-76.5 189.5v434h140v-426q0 -73 32.5 -105t103.5 -32q70 0 102 32t32 105v426h140v-434q0 -124 -76 -189.5t-198 -65.5zM343 737q-70 0 -113 39t-49 101l103 15q8 -57 59 -57t59 57l103 -15q-6 -62 -49 -101t-113 -39z" />
    <glyph glyph-name="ubreve" unicode="&#x16d;" horiz-adv-x="528" 
d="M209 -9q-71 0 -115 50t-44 139v246h135v-237q0 -76 71 -76q40 0 62 22t22 63v228h135v-426h-135l3 70q-40 -79 -134 -79zM265 500q-70 0 -113 39t-49 101l103 15q8 -57 59 -57t59 57l103 -15q-6 -62 -49 -101t-113 -39z" />
    <glyph glyph-name="Uring" unicode="&#x16e;" horiz-adv-x="686" 
d="M344 -9q-123 0 -199.5 65.5t-76.5 189.5v434h140v-426q0 -73 32.5 -105t103.5 -32q70 0 102 32t32 105v426h140v-434q0 -124 -76 -189.5t-198 -65.5zM343 702q-54 0 -91.5 35t-37.5 84t37.5 84t91.5 35t91.5 -35t37.5 -84t-37.5 -84t-91.5 -35zM343 776q19 0 31 12t12 33
t-12 33t-31 12t-31 -12t-12 -33t12 -33t31 -12z" />
    <glyph glyph-name="uring" unicode="&#x16f;" horiz-adv-x="528" 
d="M209 -9q-71 0 -115 50t-44 139v246h135v-237q0 -76 71 -76q40 0 62 22t22 63v228h135v-426h-135l3 70q-40 -79 -134 -79zM265 474q-54 0 -91.5 35t-37.5 84t37.5 84t91.5 35t91.5 -35t37.5 -84t-37.5 -84t-91.5 -35zM265 548q19 0 31 12t12 33t-12 33t-31 12t-31 -12
t-12 -33t12 -33t31 -12z" />
    <glyph glyph-name="Uhungarumlaut" unicode="&#x170;" horiz-adv-x="686" 
d="M344 -9q-123 0 -199.5 65.5t-76.5 189.5v434h140v-426q0 -73 32.5 -105t103.5 -32q70 0 102 32t32 105v426h140v-434q0 -124 -76 -189.5t-198 -65.5zM384 758l51 188h140l-89 -188h-102zM199 758l51 188h140l-89 -188h-102z" />
    <glyph glyph-name="uhungarumlaut" unicode="&#x171;" horiz-adv-x="528" 
d="M209 -9q-71 0 -115 50t-44 139v246h135v-237q0 -76 71 -76q40 0 62 22t22 63v228h135v-426h-135l3 70q-40 -79 -134 -79zM306 500l51 188h140l-89 -188h-102zM121 500l51 188h140l-89 -188h-102z" />
    <glyph glyph-name="Uogonek" unicode="&#x172;" horiz-adv-x="686" 
d="M316 -8q-112 7 -180 72t-68 182v434h140v-426q0 -73 32.5 -105t103.5 -32q70 0 102 32t32 105v426h140v-434q0 -109 -60 -173.5t-160 -77.5l-38 -64q-26 -44 -26 -68q0 -29 28 -29q24 0 41 26l66 -38q-36 -62 -115 -62q-46 0 -76.5 26t-30.5 75q0 44 40 94z" />
    <glyph glyph-name="uogonek" unicode="&#x173;" horiz-adv-x="528" 
d="M340 0l3 70q-40 -79 -134 -79q-71 0 -115 50t-44 139v246h135v-237q0 -76 71 -76q40 0 62 22t22 63v228h135v-394l-60 -101q-26 -44 -26 -68q0 -29 28 -29q24 0 41 26l66 -38q-36 -62 -115 -62q-46 0 -76.5 26t-30.5 75q0 44 40 94l35 45h-37z" />
    <glyph glyph-name="Ydieresis" unicode="&#x178;" horiz-adv-x="637" 
d="M256 0v249l-236 431h157l96 -185q28 -56 55 -128q1 3 8.5 23t20.5 51.5t24 53.5l92 185h144l-220 -421v-259h-141zM224 739q-30 0 -53 22.5t-23 53.5t23 53.5t53 22.5t53 -22.5t23 -53.5t-23 -53.5t-53 -22.5zM432 739q-30 0 -53 22.5t-23 53.5t23 53.5t53 22.5t53 -22.5
t23 -53.5t-23 -53.5t-53 -22.5z" />
    <glyph glyph-name="Zacute" unicode="&#x179;" horiz-adv-x="590" 
d="M27 0v12l312 545h-257v123h473v-12l-311 -545h294v-123h-511zM256 738l52 188h154l-104 -188h-102z" />
    <glyph glyph-name="zacute" unicode="&#x17a;" horiz-adv-x="442" 
d="M23 0v11l185 306h-162v109h368v-11l-189 -306h173v-109h-375zM174 500l52 188h154l-104 -188h-102z" />
    <glyph glyph-name="Zdotaccent" unicode="&#x17b;" horiz-adv-x="590" 
d="M27 0v12l312 545h-257v123h473v-12l-311 -545h294v-123h-511zM308 730q-35 0 -60.5 24t-25.5 61q0 36 25.5 60t60.5 24t60 -24t25 -60q0 -37 -25 -61t-60 -24z" />
    <glyph glyph-name="zdotaccent" unicode="&#x17c;" horiz-adv-x="442" 
d="M23 0v11l185 306h-162v109h368v-11l-189 -306h173v-109h-375zM226 497q-35 0 -60.5 24t-25.5 61q0 36 25.5 60t60.5 24t60 -24t25 -60q0 -37 -25 -61t-60 -24z" />
    <glyph glyph-name="Zcaron" unicode="&#x17d;" horiz-adv-x="590" 
d="M27 0v12l312 545h-257v123h473v-12l-311 -545h294v-123h-511zM300 729l-159 216h108l56 -65l57 65h108l-159 -216h-11z" />
    <glyph glyph-name="zcaron" unicode="&#x17e;" horiz-adv-x="442" 
d="M23 0v11l185 306h-162v109h368v-11l-189 -306h173v-109h-375zM218 481l-159 216h108l56 -65l57 65h108l-159 -216h-11z" />
    <glyph glyph-name="florin" unicode="&#x192;" horiz-adv-x="408" 
d="M48 -212l45 393h-60v108h72l19 161q19 168 167 168q82 0 127 -61l-80 -77q-15 24 -39 24q-36 0 -42 -43l-20 -172h106v-108h-118l-45 -393h-132z" />
    <glyph glyph-name="Scommaaccent" unicode="&#x218;" horiz-adv-x="537" 
d="M267 -9q-93 0 -157.5 39t-97.5 104l114 66q52 -85 138 -85q43 0 69 19.5t26 49.5q0 23 -14 40t-31.5 26.5t-56.5 26.5l-35 15q-83 36 -125.5 83.5t-42.5 127.5t56.5 132.5t148.5 52.5q68 0 116.5 -26.5t82.5 -85.5l-109 -70q-33 60 -90 60q-30 0 -48.5 -17t-18.5 -43
q0 -30 19 -47t67 -38l35 -15q97 -42 141.5 -89.5t44.5 -130.5q0 -92 -64.5 -143.5t-167.5 -51.5zM190 -283l31 97q-41 20 -41 69q0 32 22.5 54t53.5 22t54.5 -21.5t23.5 -53.5q0 -40 -26 -82l-52 -85h-66z" />
    <glyph glyph-name="scommaaccent" unicode="&#x219;" horiz-adv-x="421" 
d="M216 -9q-126 0 -194 81l79 70q47 -45 106 -45q58 0 58 26q0 5 -1.5 8.5t-5.5 6.5t-8.5 5t-14 4.5l-17.5 4.5l-22.5 5.5l-26.5 6.5q-123 32 -123 136q0 68 46 101.5t119 33.5q98 0 155 -59l-72 -77q-38 32 -82 32q-46 0 -46 -25q0 -15 13.5 -21t53.5 -15q12 -3 18 -4
q140 -32 140 -133q0 -142 -175 -142zM144 -283l31 97q-41 20 -41 69q0 32 22.5 54t53.5 22t54.5 -21.5t23.5 -53.5q0 -40 -26 -82l-52 -85h-66z" />
    <glyph glyph-name="uni021A" unicode="&#x21a;" horiz-adv-x="592" 
d="M226 0v557h-194v123h528v-123h-194v-557h-39v-39q38 -7 63.5 -33.5t25.5 -70.5q0 -43 -32.5 -70t-75.5 -27q-83 0 -118 60l64 39q15 -28 43 -28q15 0 25.5 9t10.5 25q0 34 -41 34h-34v101h-32z" />
    <glyph glyph-name="uni021B" unicode="&#x21b;" horiz-adv-x="382" 
d="M242 -11h-2v-28q38 -7 63.5 -33.5t25.5 -70.5q0 -43 -32.5 -70t-75.5 -27q-83 0 -118 60l64 39q15 -28 43 -28q15 0 25.5 9t10.5 25q0 34 -41 34h-34v103q-77 34 -77 158v154h-63v112h63v152h134v-152h109v-112h-109v-158q0 -30 9 -41t26 -11q20 0 47 18l51 -94
q-48 -39 -119 -39z" />
    <glyph glyph-name="uni0237" unicode="&#x237;" horiz-adv-x="250" 
d="M40 -222q-35 0 -65.5 15t-47.5 36l67 80q18 -16 33 -16q31 0 31 34v499h135v-494q0 -74 -39 -114t-114 -40z" />
    <glyph glyph-name="circumflex" unicode="&#x2c6;" 
d="M85 500l159 216h11l159 -216h-108l-56 65l-57 -65h-108z" />
    <glyph glyph-name="caron" unicode="&#x2c7;" 
d="M245 481l-159 216h108l56 -65l57 65h108l-159 -216h-11z" />
    <glyph glyph-name="breve" unicode="&#x2d8;" 
d="M250 500q-70 0 -113 39t-49 101l103 15q8 -57 59 -57t59 57l103 -15q-6 -62 -49 -101t-113 -39z" />
    <glyph glyph-name="dotaccent" unicode="&#x2d9;" 
d="M250 497q-35 0 -60.5 24t-25.5 61q0 36 25.5 60t60.5 24t60 -24t25 -60q0 -37 -25 -61t-60 -24z" />
    <glyph glyph-name="ring" unicode="&#x2da;" 
d="M250 474q-54 0 -91.5 35t-37.5 84t37.5 84t91.5 35t91.5 -35t37.5 -84t-37.5 -84t-91.5 -35zM250 548q19 0 31 12t12 33t-12 33t-31 12t-31 -12t-12 -33t12 -33t31 -12z" />
    <glyph glyph-name="ogonek" unicode="&#x2db;" 
d="M243 -240q-46 0 -76.5 26t-30.5 75q0 44 40 94l35 45h79l-41 -69q-26 -44 -26 -68q0 -29 28 -29q24 0 41 26l66 -38q-36 -62 -115 -62z" />
    <glyph glyph-name="tilde" unicode="&#x2dc;" 
d="M170 506l-91 9q4 68 34.5 104t76.5 36q31 0 63 -20l14.5 -9.5l13 -8.5t10 -5t10.5 -2q25 0 29 45l91 -9q-4 -68 -34 -104t-77 -36q-31 0 -63 20l-14.5 9.5t-12.5 8.5t-10 5t-11 2q-25 0 -29 -45z" />
    <glyph glyph-name="hungarumlaut" unicode="&#x2dd;" 
d="M292 500l51 188h140l-89 -188h-102zM107 500l51 188h140l-89 -188h-102z" />
    <glyph glyph-name="endash" unicode="&#x2013;" horiz-adv-x="406" 
d="M30 167v120h346v-120h-346z" />
    <glyph glyph-name="emdash" unicode="&#x2014;" horiz-adv-x="657" 
d="M30 167v120h597v-120h-597z" />
    <glyph glyph-name="quoteleft" unicode="&#x2018;" horiz-adv-x="242" 
d="M122 413q-33 0 -57.5 23t-24.5 56q0 34 30 86l60 102h65l-38 -114q45 -21 45 -73q0 -34 -24 -57t-56 -23z" />
    <glyph glyph-name="quoteright" unicode="&#x2019;" horiz-adv-x="242" 
d="M47 420l38 114q-45 21 -45 73q0 34 24 57t56 23q33 0 57.5 -23t24.5 -56q0 -34 -30 -86l-60 -102h-65z" />
    <glyph glyph-name="quotesinglbase" unicode="&#x201a;" horiz-adv-x="242" 
d="M47 -102l38 114q-45 21 -45 73q0 34 24 57t56 23q33 0 57.5 -23t24.5 -56q0 -34 -30 -86l-60 -102h-65z" />
    <glyph glyph-name="quotedblleft" unicode="&#x201c;" horiz-adv-x="459" 
d="M339 413q-33 0 -57.5 23t-24.5 56q0 34 30 86l60 102h65l-38 -114q45 -21 45 -73q0 -34 -24 -57t-56 -23zM122 413q-33 0 -57.5 23t-24.5 56q0 34 30 86l60 102h65l-38 -114q45 -21 45 -73q0 -34 -24 -57t-56 -23z" />
    <glyph glyph-name="quotedblright" unicode="&#x201d;" horiz-adv-x="459" 
d="M264 420l38 114q-45 21 -45 73q0 34 24 57t56 23q33 0 57.5 -23t24.5 -56q0 -34 -30 -86l-60 -102h-65zM47 420l38 114q-45 21 -45 73q0 34 24 57t56 23q33 0 57.5 -23t24.5 -56q0 -34 -30 -86l-60 -102h-65z" />
    <glyph glyph-name="quotedblbase" unicode="&#x201e;" horiz-adv-x="459" 
d="M264 -102l38 114q-45 21 -45 73q0 34 24 57t56 23q33 0 57.5 -23t24.5 -56q0 -34 -30 -86l-60 -102h-65zM47 -102l38 114q-45 21 -45 73q0 34 24 57t56 23q33 0 57.5 -23t24.5 -56q0 -34 -30 -86l-60 -102h-65z" />
    <glyph glyph-name="dagger" unicode="&#x2020;" horiz-adv-x="362" 
d="M120 241v231h-89v111h89v97h122v-97h89v-111h-89v-231h-122z" />
    <glyph glyph-name="daggerdbl" unicode="&#x2021;" horiz-adv-x="362" 
d="M120 241v97h-89v99h89v47h-89v99h89v97h122v-97h89v-99h-89v-47h89v-99h-89v-97h-122z" />
    <glyph glyph-name="bullet" unicode="&#x2022;" horiz-adv-x="277" 
d="M138 170q-43 0 -75 31.5t-32 76.5q0 46 31.5 77t75.5 31t76 -31t32 -77q0 -45 -32.5 -76.5t-75.5 -31.5z" />
    <glyph glyph-name="ellipsis" unicode="&#x2026;" horiz-adv-x="739" 
d="M615 -6q-35 0 -60 24t-25 61q0 36 25 60t60 24q34 0 59 -24t25 -60q0 -37 -24.5 -61t-59.5 -24zM370 -6q-35 0 -60 24t-25 61q0 36 25 60t60 24q34 0 59 -24t25 -60q0 -37 -24.5 -61t-59.5 -24zM125 -6q-35 0 -60 24t-25 61q0 36 25 60t60 24q34 0 59 -24t25 -60
q0 -37 -24.5 -61t-59.5 -24z" />
    <glyph glyph-name="perthousand" unicode="&#x2030;" horiz-adv-x="1224" 
d="M189 217q-69 0 -116.5 44.5t-47.5 112.5q0 67 48 112t116 45t115.5 -45t47.5 -112q0 -68 -47.5 -112.5t-115.5 -44.5zM196 0l330 522h133l-330 -522h-133zM1036 -9q-69 0 -116.5 44.5t-47.5 112.5q0 67 48 112t116 45t115.5 -45t47.5 -112q0 -68 -47.5 -112.5
t-115.5 -44.5zM667 -9q-69 0 -116.5 44.5t-47.5 112.5q0 67 48 112t116 45t115.5 -45t47.5 -112q0 -68 -47.5 -112.5t-115.5 -44.5zM189 318q21 0 36.5 15.5t15.5 40.5t-15.5 40.5t-36.5 15.5t-36.5 -15.5t-15.5 -40.5t15.5 -40.5t36.5 -15.5zM1036 92q21 0 36.5 15.5
t15.5 40.5t-15.5 40.5t-36.5 15.5t-36.5 -15.5t-15.5 -40.5t15.5 -40.5t36.5 -15.5zM667 92q21 0 36.5 15.5t15.5 40.5t-15.5 40.5t-36.5 15.5t-36.5 -15.5t-15.5 -40.5t15.5 -40.5t36.5 -15.5z" />
    <glyph glyph-name="guilsinglleft" unicode="&#x2039;" horiz-adv-x="289" 
d="M127 32l-95 168v8l95 165h130l-98 -169l98 -172h-130z" />
    <glyph glyph-name="guilsinglright" unicode="&#x203a;" horiz-adv-x="289" 
d="M32 32l98 169l-98 172h130l95 -168v-8l-95 -165h-130z" />
    <glyph glyph-name="fraction" unicode="&#x2044;" horiz-adv-x="452" 
d="M-42 0l402 680h134l-402 -680h-134z" />
    <glyph glyph-name="Euro" unicode="&#x20ac;" horiz-adv-x="598" 
d="M84 283h-58v86h78q31 74 98 118t152 44q69 0 117 -21t87 -69l-93 -78q-42 53 -111 53q-67 0 -105 -47h125v-86h-157q-1 -7 -1 -21t1 -21h157v-86h-125q39 -48 105 -48q76 0 116 61l99 -74q-39 -55 -89 -79t-126 -24q-84 0 -151.5 45t-98.5 119h-78v86h58q-1 7 -1 21t1 21
z" />
    <glyph glyph-name="trademark" unicode="&#x2122;" horiz-adv-x="711" 
d="M341 378v306h10l147 -147l147 147h10v-306h-90v123l-62 -71h-9l-63 71v-123h-90zM116 378v228h-81v74h254v-74h-81v-228h-92z" />
    <glyph glyph-name="summation" unicode="&#x2211;" horiz-adv-x="625" 
d="M42 0v12l247 329l-251 327v12h523v-123h-195l-86 3q32 -32 56 -64l110 -149v-12l-114 -153q-16 -21 -58 -63l6 1q6 0 15 0.5t20 1t23.5 1t22.5 0.5h214v-123h-533z" />
    <glyph glyph-name="minus" unicode="&#x2212;" horiz-adv-x="411" 
d="M372 207h-333v118h333v-118z" />
    <glyph glyph-name="space_uni0326" 
d="M183 -283l31 97q-41 20 -41 69q0 32 22.5 54t53.5 22t54.5 -21.5t23.5 -53.5q0 -40 -26 -82l-52 -85h-66z" />
    <glyph glyph-name="idotaccent" horiz-adv-x="251" 
d="M126 497q-35 0 -60.5 24t-25.5 61q0 36 25.5 60t60.5 24t60 -24t25 -60q0 -37 -25 -61t-60 -24zM58 0v426h135v-426h-135z" />
    <glyph glyph-name="space.lining" horiz-adv-x="221" 
 />
    <glyph glyph-name="dollar.lining" horiz-adv-x="550" 
d="M244 -8q-78 6 -136.5 43t-90.5 97l113 65q25 -40 50 -60t64 -25v172q-96 34 -145 85t-49 134q0 75 53 126t141 58v86h67v-88q116 -14 173 -110l-108 -69q-23 43 -65 57v-155q101 -37 152 -86.5t51 -131.5q0 -91 -55.5 -140t-147.5 -57v-109h-67v108zM244 567
q-27 -5 -41.5 -21.5t-14.5 -37.5q0 -29 12.5 -46t43.5 -30v135zM311 116q63 16 63 69q0 48 -63 75v-144z" />
    <glyph glyph-name="cent.lining" horiz-adv-x="483" 
d="M237 -7q-87 11 -143 72t-56 149t55.5 148t143.5 71v108h67v-108q89 -8 150 -83l-94 -76q-19 31 -56 41v-207q29 8 59 38l89 -78q-59 -67 -148 -75v-109h-67v109zM237 315q-64 -21 -64 -101q0 -39 17 -66.5t47 -38.5v206z" />
    <glyph glyph-name="Euro.lining" horiz-adv-x="664" 
d="M381 -9q-99 0 -176 59.5t-107 168.5h-72v96h58q-1 7 -1 25q0 16 1 23h-58v96h72q28 107 104.5 168t176.5 61q170 0 245 -146l-121 -66q-22 46 -50.5 67.5t-74.5 21.5q-95 0 -135 -106h196v-96h-214q-1 -7 -1 -23q0 -17 1 -25h214v-96h-195q42 -106 137 -106q48 0 79.5 25
t55.5 76l121 -62q-74 -161 -256 -161z" />
    <glyph glyph-name="sterling.lining" horiz-adv-x="644" 
d="M194 273h-106v96h57q-28 61 -28 114q0 91 64 148t169 57q153 0 220 -130l-113 -60q-36 71 -107 71q-91 0 -91 -86q0 -45 31 -114h201v-96h-162q15 -45 15 -88q0 -26 -6 -50q52 -27 96 -27q53 0 96 50l85 -80q-41 -49 -79.5 -68t-101.5 -19q-80 0 -145 54
q-56 -54 -143 -54q-55 0 -91 31.5t-36 81.5t36 82.5t91 32.5q39 0 72 -14q-6 34 -24 68zM210 116q-30 22 -57 22q-41 0 -41 -32q0 -14 11 -23t29 -9q42 0 58 42z" />
    <glyph glyph-name="yen.lining" horiz-adv-x="659" 
d="M267 0v123h-202v96h202v30l-16 28h-186v96h134l-168 307h157l98 -187q11 -21 25 -53t22 -54l8 -21q28 78 53 128l90 187h144l-157 -307h139v-96h-188l-14 -27v-31h202v-96h-202v-123h-141z" />
    <glyph glyph-name="florin.lining" horiz-adv-x="410" 
d="M50 -212l49 428h-66v108h78l23 196q19 168 167 168q83 0 128 -61l-81 -77q-15 24 -39 24q-36 0 -42 -43l-24 -207h105v-108h-117l-49 -428h-132z" />
    <glyph glyph-name="zero.lining" horiz-adv-x="678" 
d="M339 -9q-58 0 -110.5 21t-95.5 62t-68 110t-25 156t25 156t68 110t95.5 62t110.5 21t110.5 -21t95.5 -62t68 -110t25 -156t-25 -156t-68 -110t-95.5 -62t-110.5 -21zM339 115q69 0 111 56.5t42 168.5t-42 168.5t-111 56.5t-111 -56.5t-42 -168.5t42 -168.5t111 -56.5z
" />
    <glyph glyph-name="one.lining" horiz-adv-x="366" 
d="M153 0v555h-122v125h263v-680h-141z" />
    <glyph glyph-name="two.lining" horiz-adv-x="565" 
d="M8 0v12l280 292q94 98 94 166q0 38 -23.5 63.5t-67.5 25.5q-88 0 -121 -112l-142 28q22 96 90.5 154.5t173.5 58.5q106 0 169.5 -60.5t63.5 -156.5q0 -56 -27 -109t-87 -116l-84 -88q-8 -8 -20 -18t-20 -16l-8 -5q31 4 56 4h186v-123h-513z" />
    <glyph glyph-name="three.lining" horiz-adv-x="567" 
d="M275 -9q-93 0 -166.5 44.5t-104.5 115.5l120 62q49 -95 145 -95q55 0 88 31.5t33 81.5q0 51 -37 81t-103 30q-54 0 -98 -17l-7 11l138 185l34 39q-30 -3 -54 -3h-196v123h462v-12l-133 -180q-10 -14 -21 -26t-17 -18l-6 -5q79 -18 130 -73t51 -142q0 -111 -73 -172
t-185 -61z" />
    <glyph glyph-name="four.lining" horiz-adv-x="648" 
d="M380 0v99h-342v106l471 489h12v-480h89v-115h-89v-99h-141zM248 254q-17 -18 -56 -49q45 9 69 9h119v127l7 67q-21 -31 -47 -58z" />
    <glyph glyph-name="five.lining" horiz-adv-x="581" 
d="M281 -9q-95 0 -165 42t-103 110l120 62q47 -87 148 -87q55 0 87 29.5t32 78.5q0 51 -37 77.5t-102 26.5q-91 0 -170 -63l-12 6v407h417v-123h-295v-128q37 18 95 18q111 0 180.5 -60.5t69.5 -158.5q0 -111 -72.5 -174t-192.5 -63z" />
    <glyph glyph-name="six.lining" horiz-adv-x="598" 
d="M299 -9q-114 0 -188.5 68.5t-74.5 168.5q0 87 67 187l179 265h158l-100 -148q-12 -19 -31 -39.5t-31 -31.5l-13 -11q31 12 69 12q96 0 162 -64t66 -164q0 -102 -73.5 -172.5t-189.5 -70.5zM298 117q55 0 87 34t32 83q0 50 -31.5 85t-87.5 35q-54 0 -86.5 -35t-32.5 -85
q0 -48 32.5 -82.5t86.5 -34.5z" />
    <glyph glyph-name="seven.lining" horiz-adv-x="572" 
d="M88 0l264 555h-327v125h532v-12l-320 -668h-149z" />
    <glyph glyph-name="eight.lining" horiz-adv-x="581" 
d="M291 -9q-116 0 -185 61t-69 157q0 58 30.5 101t86.5 66q-71 46 -71 132q0 77 62 128.5t148 51.5t148 -51.5t62 -128.5q0 -87 -73 -133q114 -50 114 -166q0 -96 -69 -157t-184 -61zM291 115q50 0 80.5 28t30.5 73t-30.5 72.5t-80.5 27.5q-51 0 -81 -27.5t-30 -72.5t30 -73
t81 -28zM293 424q31 0 52.5 20.5t21.5 50.5q0 31 -21 50.5t-53 19.5t-53 -19.5t-21 -50.5q0 -30 21.5 -50.5t52.5 -20.5z" />
    <glyph glyph-name="nine.lining" horiz-adv-x="598" 
d="M161 0l103 153q12 19 27.5 38t24.5 29l10 9q-26 -12 -64 -12q-97 0 -161.5 64t-64.5 165q0 102 73.5 172.5t189.5 70.5q114 0 188.5 -68.5t74.5 -168.5q0 -86 -67 -187l-179 -265h-155zM299 326q54 0 86.5 35t32.5 85q0 48 -32.5 82.5t-86.5 34.5q-55 0 -87 -34t-32 -83
q0 -50 31.5 -85t87.5 -35z" />
    <glyph glyph-name="percent.lining" horiz-adv-x="947" 
d="M216 322q-76 0 -132 53t-56 130q0 78 55.5 130.5t132.5 52.5t133 -52.5t56 -130.5q0 -77 -56.5 -130t-132.5 -53zM194 0l425 680h134l-425 -680h-134zM730 -9q-76 0 -132 53t-56 130q0 78 55.5 130.5t132.5 52.5t133 -52.5t56 -130.5q0 -77 -56.5 -130t-132.5 -53z
M216 428q30 0 50 22t20 55q0 34 -20 55.5t-50 21.5t-49.5 -21.5t-19.5 -55.5q0 -33 19.5 -55t49.5 -22zM730 97q30 0 50 22t20 55q0 34 -20 55.5t-50 21.5t-49.5 -21.5t-19.5 -55.5q0 -33 19.5 -55t49.5 -22z" />
    <glyph glyph-name="perthousand.lining" horiz-adv-x="1371" 
d="M216 322q-76 0 -132 53t-56 130q0 78 55.5 130.5t132.5 52.5t133 -52.5t56 -130.5q0 -77 -56.5 -130t-132.5 -53zM194 0l425 680h134l-425 -680h-134zM1154 -9q-76 0 -132 53t-56 130q0 78 55.5 130.5t132.5 52.5t133 -52.5t56 -130.5q0 -77 -56.5 -130t-132.5 -53z
M730 -9q-76 0 -132 53t-56 130q0 78 55.5 130.5t132.5 52.5t133 -52.5t56 -130.5q0 -77 -56.5 -130t-132.5 -53zM216 428q30 0 50 22t20 55q0 34 -20 55.5t-50 21.5t-49.5 -21.5t-19.5 -55.5q0 -33 19.5 -55t49.5 -22zM1154 97q30 0 50 22t20 55q0 34 -20 55.5t-50 21.5
t-49.5 -21.5t-19.5 -55.5q0 -33 19.5 -55t49.5 -22zM730 97q30 0 50 22t20 55q0 34 -20 55.5t-50 21.5t-49.5 -21.5t-19.5 -55.5q0 -33 19.5 -55t49.5 -22z" />
    <glyph glyph-name="plus.lining" horiz-adv-x="451" 
d="M165 127v130h-126v118h126v130h121v-130h126v-118h-126v-130h-121z" />
    <glyph glyph-name="minus.lining" horiz-adv-x="451" 
d="M412 257h-373v118h373v-118z" />
    <glyph glyph-name="multiply.lining" horiz-adv-x="441" 
d="M220 227l-110 -110l-78 78l110 110l-111 111l78 78l111 -111l112 112l78 -78l-112 -112l111 -111l-78 -78z" />
    <glyph glyph-name="divide.lining" horiz-adv-x="451" 
d="M412 257h-373v118h373v-118zM226 421q-35 0 -59.5 24t-24.5 61q0 36 24.5 60t59.5 24q34 0 59 -24t25 -60q0 -37 -24.5 -61t-59.5 -24zM226 42q-35 0 -59.5 24t-24.5 61q0 36 24.5 60t59.5 24q34 0 59 -24t25 -60q0 -37 -24.5 -61t-59.5 -24z" />
    <glyph glyph-name="equal.lining" horiz-adv-x="445" 
d="M36 328v115h373v-115h-373zM36 153v115h373v-115h-373z" />
    <glyph glyph-name="less.lining" horiz-adv-x="398" 
d="M361 122l-338 187v10l338 185v-117l-147 -74l147 -74v-117z" />
    <glyph glyph-name="greater.lining" horiz-adv-x="398" 
d="M37 122v117l147 74l-147 74v117l338 -187v-10z" />
    <glyph glyph-name="degree.lining" horiz-adv-x="374" 
d="M187 393q-65 0 -111 43.5t-46 104.5q0 62 46 104.5t111 42.5t111 -42.5t46 -104.5q0 -61 -46 -104.5t-111 -43.5zM187 480q26 0 42.5 17t16.5 44t-16.5 43.5t-42.5 16.5t-42.5 -16.5t-16.5 -43.5t16.5 -44t42.5 -17z" />
    <glyph glyph-name="period.lining" horiz-adv-x="249" 
d="M125 -6q-35 0 -60 24t-25 61q0 36 25 60t60 24q34 0 59 -24t25 -60q0 -37 -24.5 -61t-59.5 -24z" />
    <glyph glyph-name="comma.lining" horiz-adv-x="249" 
d="M52 -115l38 120q-50 23 -50 76q0 35 25 58.5t60 23.5q34 0 59 -24t25 -60q0 -31 -30 -85l-59 -109h-68z" />
    <glyph glyph-name="colon.lining" horiz-adv-x="259" 
d="M130 224q-35 0 -60 24t-25 61q0 36 25 60t60 24q34 0 59 -24t25 -60q0 -37 -24.5 -61t-59.5 -24zM130 -6q-35 0 -60 24t-25 61q0 36 25 60t60 24q34 0 59 -24t25 -60q0 -37 -24.5 -61t-59.5 -24z" />
    <glyph glyph-name="semicolon.lining" horiz-adv-x="259" 
d="M130 224q-35 0 -60 24t-25 61q0 36 25 60t60 24q34 0 59 -24t25 -60q0 -37 -24.5 -61t-59.5 -24zM57 -115l38 120q-50 23 -50 76q0 35 25 58.5t60 23.5q34 0 59 -24t25 -60q0 -31 -30 -85l-59 -109h-68z" />
    <glyph glyph-name="parenleft.lining" horiz-adv-x="344" 
d="M238 -137q-189 183 -189 428t189 428l81 -65q-64 -77 -96 -163t-32 -200q0 -208 128 -363z" />
    <glyph glyph-name="parenright.lining" horiz-adv-x="344" 
d="M106 -137l-81 65q64 77 96 163t32 200q0 208 -128 363l81 65q189 -183 189 -428t-189 -428z" />
    <glyph glyph-name="bracketleft.lining" horiz-adv-x="337" 
d="M60 -128v850h247v-114h-112v-622h112v-114h-247z" />
    <glyph glyph-name="bracketright.lining" horiz-adv-x="337" 
d="M30 -128v114h112v622h-112v114h247v-850h-247z" />
    <glyph glyph-name="braceleft.lining" horiz-adv-x="414" 
d="M299 -128q-158 0 -158 144v156q0 35 -13.5 50.5t-43.5 15.5h-58v114h58q30 0 43.5 15.5t13.5 50.5v160q0 144 158 144h85v-114h-73q-20 0 -27 -8t-7 -26v-173q0 -91 -93 -106q93 -15 93 -106v-169q0 -18 7 -26t27 -8h73v-114h-85z" />
    <glyph glyph-name="braceright.lining" horiz-adv-x="414" 
d="M30 -128v114h73q20 0 27 8t7 26v169q0 91 93 106q-93 15 -93 106v173q0 18 -7 26t-27 8h-73v114h85q158 0 158 -144v-160q0 -35 13.5 -50.5t43.5 -15.5h58v-114h-58q-30 0 -43.5 -15.5t-13.5 -50.5v-156q0 -144 -158 -144h-85z" />
    <glyph glyph-name="section.lining" horiz-adv-x="575" 
d="M274 -180q-79 0 -138.5 31.5t-93.5 80.5l106 76q45 -66 119 -66q40 0 57.5 12t17.5 29t-14 29t-54 31l-111 52q-67 31 -98.5 69.5t-31.5 92.5q0 97 99 132q-42 50 -42 117q0 77 54.5 129.5t148.5 52.5q123 0 192 -101l-110 -74q-35 54 -82 54q-29 0 -43.5 -16t-14.5 -37
t11 -36t42 -29l111 -51q75 -35 109 -76t34 -100q0 -90 -95 -132q40 -47 40 -110q0 -73 -56.5 -116.5t-156.5 -43.5zM372 151q35 17 35 50q0 25 -14.5 38.5t-51.5 30.5l-111 51l-24 12q-38 -15 -38 -49q0 -21 12 -33.5t40 -25.5l111 -52q27 -12 41 -22z" />
    <glyph glyph-name="numbersign.lining" horiz-adv-x="526" 
d="M61 203l25 101h-54v102h79l19 75h-54v102h79l25 97h105l-25 -97h75l25 97h105l-24 -97h53v-102h-78l-19 -75h53v-102h-79l-25 -101h-105l25 101h-75l-25 -101h-105zM217 406h75l19 75h-75z" />
    <glyph glyph-name="space.tab" horiz-adv-x="200" 
 />
    <glyph glyph-name="dollar.tab" horiz-adv-x="520" 
d="M227 -7q-136 11 -196 122l99 56q19 -33 40.5 -50.5t56.5 -23.5v118q-92 27 -130.5 66.5t-38.5 100.5t43.5 101.5t125.5 46.5v101h67v-103q87 -13 145 -88l-87 -66q-25 39 -58 50v-101q178 -54 178 -175q0 -147 -178 -156v-108h-67v109zM294 97q53 6 53 44q0 19 -10.5 31
t-42.5 23v-98zM227 429q-47 -7 -47 -38q0 -18 10 -28.5t37 -20.5v87z" />
    <glyph glyph-name="cent.tab" horiz-adv-x="520" 
d="M255 -7q-87 11 -143 72t-56 149q0 87 56 147.5t143 71.5v108h67v-108q89 -8 150 -83l-94 -76q-17 30 -56 41v-207q28 7 59 38l89 -78q-60 -67 -148 -76v-108h-67v109zM255 315q-64 -21 -64 -101q0 -83 64 -104v205z" />
    <glyph glyph-name="Euro.tab" horiz-adv-x="520" 
d="M67 283h-46v86h64q27 74 87.5 118t138.5 44q125 0 193 -96l-94 -74q-39 56 -99 56q-58 0 -86 -48h111v-86h-133q-1 -7 -1 -21t1 -21h133v-86h-113q26 -49 88 -49q61 0 99 62l102 -64q-66 -113 -199 -113q-78 0 -139.5 45t-88.5 119h-64v86h46q-1 7 -1 21t1 21z" />
    <glyph glyph-name="sterling.tab" horiz-adv-x="520" 
d="M149 245h-94v102h50q-19 50 -19 88q0 80 53 131.5t149 51.5q133 0 189 -114l-111 -63q-16 31 -32.5 44t-45.5 13q-30 0 -48 -18.5t-18 -54.5q0 -30 16 -78h127v-102h-91q18 -54 18 -104q0 -8 -1 -12q40 -21 73 -21q25 0 39.5 7t31.5 26l79 -81q-51 -69 -144 -69
q-64 0 -124 45q-45 -45 -110 -45q-62 0 -97 30.5t-35 79.5q0 47 31.5 74.5t78.5 27.5q30 0 55 -9q-7 23 -20 51zM175 102q-26 23 -48 23q-14 0 -22 -7.5t-8 -20.5t8.5 -20.5t22.5 -7.5q33 0 47 33z" />
    <glyph glyph-name="yen.tab" horiz-adv-x="520" 
d="M35 96v86h156v7l-25 49h-131v86h86l-103 198h150l67 -144q16 -32 30 -95q9 51 31 95l68 144h138l-103 -198h85v-86h-130l-26 -50v-6h156v-86h-156v-96h-137v96h-156z" />
    <glyph glyph-name="florin.tab" horiz-adv-x="520" 
d="M149 181h-86v108h99l17 152q10 86 55.5 131.5t120.5 45.5q103 0 152 -81l-90 -69q-21 36 -55 36q-44 0 -51 -60l-17 -155h124v-108h-137l-11 -99l-22 -196l-11 -98h-132l7.5 65.5l14.5 126.5t16 144z" />
    <glyph glyph-name="zero.tab" horiz-adv-x="520" 
d="M260 -9q-101 0 -166.5 75t-65.5 196q0 122 65.5 195.5t166.5 73.5t166.5 -73.5t65.5 -195.5q0 -121 -65.5 -196t-166.5 -75zM260 111q43 0 66 39t23 112q0 72 -23 110.5t-66 38.5q-42 0 -65.5 -38.5t-23.5 -110.5t23.5 -111.5t65.5 -39.5z" />
    <glyph glyph-name="one.tab" horiz-adv-x="520" 
d="M201 112v298h-108v112h245v-410h107v-112h-360v112h116z" />
    <glyph glyph-name="two.tab" horiz-adv-x="520" 
d="M35 0v12l199 211q37 39 49 52.5t23.5 34.5t11.5 42q0 26 -17.5 41.5t-45.5 15.5q-60 0 -87 -80l-126 34q18 79 75.5 123.5t136.5 44.5q99 0 151.5 -49.5t52.5 -120.5q0 -77 -105 -189l-15 -16q-29 -30 -60 -46l14 1q14 1 30.5 2.5t24.5 1.5h116v-115h-428z" />
    <glyph glyph-name="three.tab" horiz-adv-x="520" 
d="M244 -103q-88 0 -144.5 39.5t-82.5 100.5l118 59q31 -79 109 -79q42 0 66.5 27.5t24.5 75.5q0 47 -34 70.5t-85 23.5q-46 0 -80 -18l-10 12l120 168q7 10 15 19.5t13 14.5l5 5q-31 -5 -61 -5h-146v112h402v-11l-126 -171q-6 -9 -30 -33q66 -12 113 -62t47 -128
q0 -88 -60.5 -154t-173.5 -66z" />
    <glyph glyph-name="four.tab" horiz-adv-x="520" 
d="M431 101h66v-101h-66v-94h-134v94h-275v89l395 439h14v-427zM301 97v98q0 51 5 61l-4 -7l-12.5 -18t-15.5 -19l-72 -80q-8 -9 -19 -18.5l-17 -14.5l-7 -5q25 3 52 3h90z" />
    <glyph glyph-name="five.tab" horiz-adv-x="520" 
d="M250 -103q-86 0 -143.5 38t-80.5 94l118 59q27 -71 104 -71q43 0 67.5 25t24.5 64q0 42 -27 65.5t-78 23.5q-72 0 -133 -49l-12 5v371h350v-112h-238v-116q24 15 73 15q93 0 151 -58t58 -146q0 -90 -60 -149t-174 -59z" />
    <glyph glyph-name="six.tab" horiz-adv-x="520" 
d="M262 -9q-92 0 -155 54.5t-63 144.5q0 92 77 200l155 219h152l-132 -187q-18 -25 -65 -58q32 17 62 17q79 0 132.5 -51.5t53.5 -136.5q0 -91 -62.5 -146.5t-154.5 -55.5zM261 108q39 0 61.5 24.5t22.5 60.5t-22.5 61t-61.5 25q-38 0 -60.5 -25t-22.5 -61q0 -35 22.5 -60
t60.5 -25z" />
    <glyph glyph-name="seven.tab" horiz-adv-x="520" 
d="M73 -94l221 504h-250v112h435v-11l-263 -605h-143z" />
    <glyph glyph-name="eight.tab" horiz-adv-x="520" 
d="M261 -10q-99 0 -162 53t-63 139q0 104 102 149q-73 38 -73 119q0 73 51 120.5t146 47.5q96 0 146 -47.5t50 -120.5q0 -81 -73 -119q100 -44 100 -149q0 -86 -62 -139t-162 -53zM261 110q41 0 64 22t23 61q0 40 -23.5 63t-63.5 23q-41 0 -64.5 -23t-23.5 -63
q0 -39 23.5 -61t64.5 -22zM261 382q28 0 45 17t17 46q0 30 -17 46.5t-45 16.5q-29 0 -47 -16.5t-18 -46.5q0 -29 18.5 -46t46.5 -17z" />
    <glyph glyph-name="nine.tab" horiz-adv-x="520" 
d="M87 -94l137 194q23 32 65 57q-32 -16 -62 -16q-79 0 -132.5 51.5t-53.5 136.5q0 91 62.5 146.5t154.5 55.5t155 -54.5t63 -144.5q0 -92 -77 -200l-160 -226h-152zM259 243q38 0 60.5 25t22.5 61q0 35 -22.5 60t-60.5 25q-39 0 -61.5 -24.5t-22.5 -60.5t22.5 -61t61.5 -25
z" />
    <glyph glyph-name="percent.tab" horiz-adv-x="750" 
d="M160 217q-63 0 -104.5 44t-41.5 113q0 68 41.5 112.5t104.5 44.5q62 0 103.5 -44.5t41.5 -112.5t-41.5 -112.5t-103.5 -44.5zM143 0l330 522h133l-330 -522h-133zM591 -9q-63 0 -104.5 44t-41.5 113q0 68 41.5 112.5t104.5 44.5q62 0 103.5 -44.5t41.5 -112.5
t-41.5 -112.5t-103.5 -44.5zM160 314q40 0 40 60t-40 60t-40 -60t40 -60zM591 88q40 0 40 60t-40 60t-40 -60t40 -60z" />
    <glyph glyph-name="perthousand.tab" horiz-adv-x="1100" 
d="M167 217q-63 0 -104.5 44t-41.5 113q0 68 41.5 112.5t104.5 44.5q62 0 103.5 -44.5t41.5 -112.5t-41.5 -112.5t-103.5 -44.5zM154 0l330 522h133l-330 -522h-133zM934 -9q-63 0 -104.5 44t-41.5 113q0 68 41.5 112.5t104.5 44.5q62 0 103.5 -44.5t41.5 -112.5
t-41.5 -112.5t-103.5 -44.5zM606 -9q-63 0 -104.5 44t-41.5 113q0 68 41.5 112.5t104.5 44.5q62 0 103.5 -44.5t41.5 -112.5t-41.5 -112.5t-103.5 -44.5zM167 314q40 0 40 60t-40 60t-40 -60t40 -60zM934 88q40 0 40 60t-40 60t-40 -60t40 -60zM606 88q40 0 40 60t-40 60
t-40 -60t40 -60z" />
    <glyph glyph-name="plus.tab" horiz-adv-x="520" 
d="M320 207v-130h-121v130h-126v118h126v130h121v-130h126v-118h-126z" />
    <glyph glyph-name="minus.tab" horiz-adv-x="520" 
d="M73 207v118h374v-118h-374z" />
    <glyph glyph-name="multiply.tab" horiz-adv-x="520" 
d="M260 184l-105 -105l-82 82l105 105l-105 105l82 82l105 -105l105 105l82 -82l-105 -105l105 -105l-82 -82z" />
    <glyph glyph-name="divide.tab" horiz-adv-x="520" 
d="M260 360q-34 0 -57.5 23t-23.5 58t23.5 57.5t57.5 22.5q33 0 56.5 -22.5t23.5 -57.5t-23.5 -58t-56.5 -23zM73 207v118h373v-118h-373zM260 11q-34 0 -57.5 23t-23.5 58t23.5 57.5t57.5 22.5q33 0 56.5 -22.5t23.5 -57.5t-23.5 -58t-56.5 -23z" />
    <glyph glyph-name="equal.tab" horiz-adv-x="520" 
d="M70 279v115h380v-115h-380zM70 115v115h380v-115h-380z" />
    <glyph glyph-name="less.tab" horiz-adv-x="520" 
d="M417 52l-348 187v10l348 185v-117l-147 -74l147 -74v-117z" />
    <glyph glyph-name="greater.tab" horiz-adv-x="520" 
d="M103 52v117l147 74l-147 74v117l348 -187v-10z" />
    <glyph glyph-name="degree.tab" horiz-adv-x="350" 
d="M175 268q-57 0 -98.5 38.5t-41.5 93.5q0 56 41 93.5t99 37.5t99 -37.5t41 -93.5q0 -55 -41 -93.5t-99 -38.5zM175 348q22 0 36 14.5t14 37.5t-14 37t-36 14t-36 -14t-14 -37t14 -37.5t36 -14.5z" />
    <glyph glyph-name="period.tab" horiz-adv-x="200" 
d="M100 -6q-34 0 -57.5 23t-23.5 58t23.5 57.5t57.5 22.5q33 0 56.5 -22.5t23.5 -57.5t-23.5 -58t-56.5 -23z" />
    <glyph glyph-name="comma.tab" horiz-adv-x="200" 
d="M29 -115l38 120q-48 22 -48 72q0 33 24 55.5t57 22.5t56.5 -22.5t23.5 -57.5q0 -27 -29 -81l-58 -109h-64z" />
    <glyph glyph-name="colon.tab" horiz-adv-x="200" 
d="M100 228q-34 0 -57.5 23t-23.5 58q0 34 24 57t57 23t56.5 -23t23.5 -57q0 -35 -23.5 -58t-56.5 -23zM100 -6q-34 0 -57.5 23t-23.5 58t23.5 57.5t57.5 22.5q33 0 56.5 -22.5t23.5 -57.5t-23.5 -58t-56.5 -23z" />
    <glyph glyph-name="semicolon.tab" horiz-adv-x="200" 
d="M100 228q-34 0 -57.5 23t-23.5 58q0 34 24 57t57 23t56.5 -23t23.5 -57q0 -35 -23.5 -58t-56.5 -23zM29 -115l38 120q-48 22 -48 72q0 33 24 55.5t57 22.5t56.5 -22.5t23.5 -57.5q0 -27 -29 -81l-58 -109h-64z" />
    <glyph glyph-name="parenleft.tab" horiz-adv-x="300" 
d="M201 -134q-76 84 -121.5 183.5t-45.5 241.5q0 98 26.5 183t59.5 137t81 105l83 -59q-56 -78 -82 -163.5t-26 -202.5q0 -116 26 -202t82 -164z" />
    <glyph glyph-name="parenright.tab" horiz-adv-x="300" 
d="M99 -134l-83 59q56 78 82 164t26 202q0 117 -26 202.5t-82 163.5l83 59q48 -53 81 -105t59.5 -137t26.5 -183q0 -142 -45.5 -241.5t-121.5 -183.5z" />
    <glyph glyph-name="bracketleft.tab" horiz-adv-x="300" 
d="M41 -128v850h237v-114h-102v-622h102v-114h-237z" />
    <glyph glyph-name="bracketright.tab" horiz-adv-x="300" 
d="M21 -128v114h102v622h-102v114h237v-850h-237z" />
    <glyph glyph-name="braceleft.tab" horiz-adv-x="300" 
d="M232 -128q-158 0 -158 144v156q0 35 -13.5 50.5t-43.5 15.5h-18v114h18q30 0 43.5 15.5t13.5 50.5v160q0 144 158 144h47v-114h-35q-20 0 -27 -8t-7 -26v-173q0 -91 -93 -106q93 -15 93 -106v-169q0 -18 7 -26t27 -8h35v-114h-47z" />
    <glyph glyph-name="braceright.tab" horiz-adv-x="300" 
d="M21 -128v114h35q20 0 27 8t7 26v169q0 91 93 106q-93 15 -93 106v173q0 18 -7 26t-27 8h-35v114h47q158 0 158 -144v-160q0 -35 13.5 -50.5t43.5 -15.5h18v-114h-18q-30 0 -43.5 -15.5t-13.5 -50.5v-156q0 -144 -158 -144h-47z" />
    <glyph glyph-name="section.tab" horiz-adv-x="520" 
d="M253 -103q-71 0 -125 31.5t-72 75.5l105 55q27 -53 85 -53q56 0 56 30q0 24 -38 38l-94 36q-75 29 -108.5 65.5t-33.5 91.5q0 79 91 112q-30 38 -30 89q0 66 49 108t123 42q66 0 107.5 -25t69.5 -77l-107 -52q-26 46 -64 46q-26 0 -38.5 -10.5t-12.5 -26.5q0 -32 37 -45
l103 -38q141 -52 141 -151q0 -79 -85 -118q25 -34 25 -83q0 -66 -48.5 -103.5t-135.5 -37.5zM344 173q29 14 29 42q0 38 -52 58l-103 39q-24 8 -40 18q-26 -12 -26 -42q0 -41 49 -59l97 -36q24 -9 46 -20z" />
    <glyph glyph-name="numbersign.tab" horiz-adv-x="520" 
d="M127 416h-54v106h80l24 97h109l-24 -97h68l24 97h108l-24 -97h53v-106h-79l-17 -67h52v-106h-79l-25 -101h-108l25 101h-69l-25 -101h-108l25 101h-54v106h81zM304 416h-69l-17 -67h69z" />
    <glyph glyph-name="space.tablining" horiz-adv-x="200" 
 />
    <glyph glyph-name="dollar.tablining" horiz-adv-x="580" 
d="M257 -8q-155 11 -227 140l113 65q17 -27 28 -41t33.5 -27.5t52.5 -16.5v173q-96 34 -145 84.5t-49 132.5q0 73 52 125.5t142 59.5v86h67v-88q116 -14 173 -110l-108 -69q-23 43 -65 57v-155q97 -34 150 -85t53 -133q0 -87 -52 -138.5t-151 -58.5v-109h-67v108zM324 115
q63 14 63 70q0 46 -63 74v-144zM257 567q-28 -6 -42 -23.5t-14 -36.5q0 -26 11 -42.5t45 -31.5v134z" />
    <glyph glyph-name="cent.tablining" horiz-adv-x="580" 
d="M280 -7q-87 11 -143 72t-56 149q0 87 56 147.5t143 71.5v108h67v-108q89 -8 150 -83l-94 -76q-17 30 -56 41v-207q28 7 59 38l89 -78q-60 -67 -148 -76v-108h-67v109zM280 315q-64 -21 -64 -101q0 -83 64 -104v205z" />
    <glyph glyph-name="Euro.tablining" horiz-adv-x="580" 
d="M329 -9q-90 0 -158.5 57.5t-94.5 170.5h-62v96h51q-1 7 -1 25q0 15 1 23h-51v96h62q25 111 93 170t159 59q164 0 227 -156l-121 -57q-19 48 -44 69.5t-64 21.5q-79 0 -107 -107h142v-96h-155q-1 -8 -1 -23q0 -17 1 -25h155v-96h-141q15 -52 43.5 -79t64.5 -27q39 0 66 24
t47 76l124 -53q-35 -90 -93 -129.5t-143 -39.5z" />
    <glyph glyph-name="sterling.tablining" horiz-adv-x="580" 
d="M172 273h-103v96h58q-26 61 -26 114q0 91 59.5 148t160.5 57q140 0 196 -118l-112 -59q-15 32 -33.5 45t-50.5 13q-35 0 -56.5 -21.5t-21.5 -64.5t26 -114h176v-96h-143q13 -46 13 -88q0 -22 -5 -49q44 -28 82 -28q48 0 92 48l86 -81q-69 -84 -170 -84q-71 0 -135 55
q-49 -55 -129 -55q-52 0 -89.5 32t-37.5 81q0 50 35 82.5t88 32.5q32 0 62 -11q-5 29 -22 65zM189 117q-26 21 -50 21q-17 0 -27 -9t-10 -23q0 -13 10.5 -22.5t25.5 -9.5q38 0 51 43z" />
    <glyph glyph-name="yen.tablining" horiz-adv-x="580" 
d="M45 123v96h178v33l-12 25h-166v96h123l-145 307h150l85 -197q19 -44 36 -122q13 66 37 122l85 197h140l-144 -307h123v-96h-165l-12 -25v-33h177v-96h-177v-123h-135v123h-178z" />
    <glyph glyph-name="florin.tablining" horiz-adv-x="580" 
d="M184 216h-86v108h98l22 187q10 86 55.5 131.5t120.5 45.5q103 0 152 -81l-90 -69q-21 36 -55 36q-44 0 -51 -60l-22 -190h125v-108h-137l-49 -428h-132z" />
    <glyph glyph-name="zero.tablining" horiz-adv-x="580" 
d="M290 -9q-115 0 -187 90t-72 259t72 259t187 90t187 -90t72 -259t-72 -259t-187 -90zM290 115q57 0 85 60t28 165t-28 165t-85 60t-85 -60t-28 -165t28 -165t85 -60z" />
    <glyph glyph-name="one.tablining" horiz-adv-x="580" 
d="M260 0v555h-162v125h303v-680h-141z" />
    <glyph glyph-name="two.tablining" horiz-adv-x="580" 
d="M13 0v12l273 291q91 98 91 167q0 39 -22 64t-66 25q-81 0 -113 -110l-140 28q22 98 85.5 154.5t168.5 56.5q106 0 168 -60.5t62 -156.5q0 -106 -111 -226l-81 -87q-8 -9 -20.5 -18.5l-20.5 -15.5l-8 -5q31 4 56 4h181v-123h-503z" />
    <glyph glyph-name="three.tablining" horiz-adv-x="580" 
d="M281 -9q-95 0 -163 42t-101 115l120 62q23 -44 54 -68t84 -24q55 0 86.5 30.5t31.5 81.5q0 52 -37 82t-103 30q-54 0 -98 -17l-7 11l135 185l34 39q-30 -3 -54 -3h-182v123h447v-12l-130 -180q-10 -14 -20.5 -26t-15.5 -17l-6 -5q84 -20 132 -74.5t48 -142.5
q0 -111 -71.5 -171.5t-183.5 -60.5z" />
    <glyph glyph-name="four.tablining" horiz-adv-x="580" 
d="M476 214h83v-115h-83v-99h-139v99h-308v102l435 493h12v-480zM337 214v114l7 68q-20 -33 -41 -56l-74 -82l-25.5 -24.5l-21.5 -19.5l-7 -6q38 6 74 6h88z" />
    <glyph glyph-name="five.tablining" horiz-adv-x="580" 
d="M274 -9q-88 0 -153.5 41t-96.5 107l120 62q40 -85 130 -85q52 0 82 29t30 81q0 51 -35 77.5t-91 26.5q-50 0 -84 -16t-70 -45l-12 5v406h381v-123h-259v-126q34 16 83 16q106 0 169.5 -60.5t63.5 -158.5q0 -110 -71.5 -173.5t-186.5 -63.5z" />
    <glyph glyph-name="six.tablining" horiz-adv-x="580" 
d="M290 -9q-110 0 -180 66.5t-70 163.5q0 93 60 183l184 276h158l-114 -174q-26 -39 -63 -69q25 12 53 12q96 0 159 -62t63 -160q0 -100 -69 -168t-181 -68zM290 115q50 0 79 32.5t29 79.5q0 48 -29 81t-79 33t-79 -32.5t-29 -81.5q0 -47 29 -79.5t79 -32.5z" />
    <glyph glyph-name="seven.tablining" horiz-adv-x="580" 
d="M107 0l242 555h-302v125h499v-12l-290 -668h-149z" />
    <glyph glyph-name="eight.tablining" horiz-adv-x="580" 
d="M290 -9q-116 0 -184.5 61t-68.5 157q0 117 116 167q-71 45 -71 132q0 77 62 128.5t148 51.5t148 -51.5t62 -128.5q0 -87 -73 -133q54 -24 83.5 -67t29.5 -99q0 -96 -68.5 -157t-183.5 -61zM290 115q52 0 81 27t29 73t-29 72.5t-81 26.5t-81 -26.5t-29 -72.5t29 -73
t81 -27zM292 426q32 0 53 20t21 50q0 31 -21 50t-53 19t-53 -19t-21 -50q0 -30 21 -50t53 -20z" />
    <glyph glyph-name="nine.tablining" horiz-adv-x="580" 
d="M133 0l121 173q30 43 61 68q-27 -11 -54 -11q-96 0 -158.5 62t-62.5 160q0 100 69 168t181 68q110 0 180 -66.5t70 -163.5q0 -94 -63 -185l-189 -273h-155zM290 338q50 0 78.5 32.5t28.5 81.5q0 47 -28.5 79.5t-78.5 32.5t-78.5 -32.5t-28.5 -79.5q0 -48 28.5 -81
t78.5 -33z" />
    <glyph glyph-name="percent.tablining" horiz-adv-x="800" 
d="M181 322q-69 0 -116 51.5t-47 131.5q0 81 47 132t116 51t116 -51t47 -132q0 -80 -47 -131.5t-116 -51.5zM120 0l428 680h131l-428 -680h-131zM619 -9q-69 0 -116 51.5t-47 131.5q0 81 47 132t116 51t116 -51t47 -132q0 -80 -47 -131.5t-116 -51.5zM181 424
q25 0 37.5 22.5t12.5 58.5q0 81 -50 81t-50 -81q0 -36 12.5 -58.5t37.5 -22.5zM619 93q25 0 37.5 22.5t12.5 58.5q0 81 -50 81t-50 -81q0 -36 12.5 -58.5t37.5 -22.5z" />
    <glyph glyph-name="perthousand.tablining" horiz-adv-x="1160" 
d="M181 322q-69 0 -116 51.5t-47 131.5q0 81 47 132t116 51t116 -51t47 -132q0 -80 -47 -131.5t-116 -51.5zM120 0l428 680h131l-428 -680h-131zM979 -9q-69 0 -116 51.5t-47 131.5q0 81 47 132t116 51t116 -51t47 -132q0 -80 -47 -131.5t-116 -51.5zM619 -9
q-69 0 -116 51.5t-47 131.5q0 81 47 132t116 51t116 -51t47 -132q0 -80 -47 -131.5t-116 -51.5zM181 424q25 0 37.5 22.5t12.5 58.5q0 81 -50 81t-50 -81q0 -36 12.5 -58.5t37.5 -22.5zM979 93q25 0 37.5 22.5t12.5 58.5q0 81 -50 81t-50 -81q0 -36 12.5 -58.5t37.5 -22.5z
M619 93q25 0 37.5 22.5t12.5 58.5q0 81 -50 81t-50 -81q0 -36 12.5 -58.5t37.5 -22.5z" />
    <glyph glyph-name="plus.tablining" horiz-adv-x="580" 
d="M350 257v-150h-121v150h-146v118h146v150h121v-150h146v-118h-146z" />
    <glyph glyph-name="minus.tablining" horiz-adv-x="580" 
d="M83 257v118h413v-118h-413z" />
    <glyph glyph-name="multiply.tablining" horiz-adv-x="580" 
d="M290 227l-110 -110l-78 78l110 110l-111 111l78 78l111 -111l112 112l78 -78l-112 -112l111 -111l-78 -78z" />
    <glyph glyph-name="divide.tablining" horiz-adv-x="580" 
d="M290 421q-35 0 -59.5 24t-24.5 61q0 36 24.5 60t59.5 24q34 0 59 -24t25 -60q0 -37 -24.5 -61t-59.5 -24zM83 257v118h413v-118h-413zM290 42q-35 0 -59.5 24t-24.5 61q0 36 24.5 60t59.5 24q34 0 59 -24t25 -60q0 -37 -24.5 -61t-59.5 -24z" />
    <glyph glyph-name="equal.tablining" horiz-adv-x="580" 
d="M83 328v115h413v-115h-413zM83 153v115h413v-115h-413z" />
    <glyph glyph-name="less.tablining" horiz-adv-x="580" 
d="M471 107l-388 202v10l388 200v-117l-181 -89l181 -89v-117z" />
    <glyph glyph-name="greater.tablining" horiz-adv-x="580" 
d="M109 107v117l181 89l-181 89v117l388 -200v-10z" />
    <glyph glyph-name="degree.tablining" horiz-adv-x="400" 
d="M200 393q-65 0 -111 43.5t-46 104.5q0 62 46 104.5t111 42.5t111 -42.5t46 -104.5q0 -61 -46 -104.5t-111 -43.5zM200 480q26 0 42.5 17t16.5 44t-16.5 43.5t-42.5 16.5t-42.5 -16.5t-16.5 -43.5t16.5 -44t42.5 -17z" />
    <glyph glyph-name="period.tablining" horiz-adv-x="200" 
d="M100 -6q-34 0 -57.5 23t-23.5 58t23.5 57.5t57.5 22.5q33 0 56.5 -22.5t23.5 -57.5t-23.5 -58t-56.5 -23z" />
    <glyph glyph-name="comma.tablining" horiz-adv-x="200" 
d="M29 -115l38 120q-48 22 -48 72q0 33 24 55.5t57 22.5t56.5 -22.5t23.5 -57.5q0 -27 -29 -81l-58 -109h-64z" />
    <glyph glyph-name="colon.tablining" horiz-adv-x="200" 
d="M100 228q-34 0 -57.5 23t-23.5 58q0 34 24 57t57 23t56.5 -23t23.5 -57q0 -35 -23.5 -58t-56.5 -23zM100 -6q-34 0 -57.5 23t-23.5 58t23.5 57.5t57.5 22.5q33 0 56.5 -22.5t23.5 -57.5t-23.5 -58t-56.5 -23z" />
    <glyph glyph-name="semicolon.tablining" horiz-adv-x="200" 
d="M100 228q-34 0 -57.5 23t-23.5 58q0 34 24 57t57 23t56.5 -23t23.5 -57q0 -35 -23.5 -58t-56.5 -23zM29 -115l38 120q-48 22 -48 72q0 33 24 55.5t57 22.5t56.5 -22.5t23.5 -57.5q0 -27 -29 -81l-58 -109h-64z" />
    <glyph glyph-name="parenleft.tablining" horiz-adv-x="300" 
d="M201 -134q-76 84 -121.5 183.5t-45.5 241.5q0 98 26.5 183t59.5 137t81 105l83 -59q-56 -78 -82 -163.5t-26 -202.5q0 -116 26 -202t82 -164z" />
    <glyph glyph-name="parenright.tablining" horiz-adv-x="300" 
d="M99 -134l-83 59q56 78 82 164t26 202q0 117 -26 202.5t-82 163.5l83 59q48 -53 81 -105t59.5 -137t26.5 -183q0 -142 -45.5 -241.5t-121.5 -183.5z" />
    <glyph glyph-name="bracketleft.tablining" horiz-adv-x="300" 
d="M41 -128v850h237v-114h-102v-622h102v-114h-237z" />
    <glyph glyph-name="bracketright.tablining" horiz-adv-x="300" 
d="M21 -128v114h102v622h-102v114h237v-850h-237z" />
    <glyph glyph-name="braceleft.tablining" horiz-adv-x="300" 
d="M232 -128q-158 0 -158 144v156q0 35 -13.5 50.5t-43.5 15.5h-18v114h18q30 0 43.5 15.5t13.5 50.5v160q0 144 158 144h47v-114h-35q-20 0 -27 -8t-7 -26v-173q0 -91 -93 -106q93 -15 93 -106v-169q0 -18 7 -26t27 -8h35v-114h-47z" />
    <glyph glyph-name="braceright.tablining" horiz-adv-x="300" 
d="M21 -128v114h35q20 0 27 8t7 26v169q0 91 93 106q-93 15 -93 106v173q0 18 -7 26t-27 8h-35v114h47q158 0 158 -144v-160q0 -35 13.5 -50.5t43.5 -15.5h18v-114h-18q-30 0 -43.5 -15.5t-13.5 -50.5v-156q0 -144 -158 -144h-47z" />
    <glyph glyph-name="section.tablining" horiz-adv-x="580" 
d="M132 389q-42 50 -42 117q0 77 54.5 129.5t148.5 52.5q123 0 192 -101l-110 -74q-35 54 -82 54q-29 0 -43.5 -16t-14.5 -37t11 -36t42 -29l111 -51q75 -35 109 -76t34 -100q0 -90 -95 -132q40 -47 40 -110q0 -73 -56.5 -116.5t-156.5 -43.5q-79 0 -138.5 31.5t-93.5 80.5
l106 76q45 -66 119 -66q40 0 57.5 12t17.5 29t-14 29t-54 31l-111 52q-67 31 -98.5 69.5t-31.5 92.5q0 97 99 132zM372 151q35 17 35 50q0 25 -14.5 38.5t-51.5 30.5l-111 51l-24 12q-38 -15 -38 -49q0 -21 12 -33.5t40 -25.5l111 -52q27 -12 41 -22z" />
    <glyph glyph-name="numbersign.tablining" horiz-adv-x="580" 
d="M155 477h-65v106h91l24 97h109l-24 -97h72l24 97h108l-24 -97h64v-106h-90l-17 -67h63v-106h-90l-25 -101h-108l25 101h-73l-25 -101h-108l25 101h-65v106h92zM336 477h-73l-17 -67h73z" />
    <glyph glyph-name="zero.numerator" horiz-adv-x="520" 
d="M260 194q-97 0 -163 68t-66 179t66 179t163 68t163 -68t66 -179t-66 -179t-163 -68zM260 306q45 0 71.5 35t26.5 100t-26.5 100t-71.5 35t-71.5 -35t-26.5 -100t26.5 -100t71.5 -35z" />
    <glyph glyph-name="one.numerator" horiz-adv-x="313" 
d="M124 203v364h-99v113h226v-477h-127z" />
    <glyph glyph-name="two.numerator" horiz-adv-x="445" 
d="M13 203v12l208 212q53 54 53 98q0 22 -16 35.5t-41 13.5q-54 0 -82 -65l-114 40q52 139 197 139q85 0 134.5 -44t49.5 -117q0 -70 -78 -151l-24 -25q-25 -27 -60 -44l12 1q13 2 30.5 3t29.5 1h87v-109h-386z" />
    <glyph glyph-name="three.numerator" horiz-adv-x="433" 
d="M207 195q-148 0 -196 117l111 51q22 -55 84 -55q30 0 49 17t19 46q0 64 -72 64q-40 0 -67 -9l-7 13l65 93l40 45q-44 -5 -61 -5h-110v108h342v-11l-83 -118q-24 -32 -38 -37q53 -10 87 -49.5t34 -100.5q0 -81 -57 -125t-140 -44z" />
    <glyph glyph-name="four.numerator" horiz-adv-x="477" 
d="M267 203v58h-234v98l347 329h10v-331h62v-96h-62v-58h-123zM155 353q41 4 71 4h41v44l4 65q-25 -34 -47 -54l-18 -17z" />
    <glyph glyph-name="five.numerator" horiz-adv-x="448" 
d="M216 195q-148 0 -204 113l106 55q24 -53 89 -53q33 0 54 14.5t21 38.5q0 29 -23.5 44t-62.5 15q-63 0 -120 -34l-12 7v285h302v-109h-194v-61q29 9 60 9q83 0 132 -41t49 -117q0 -75 -53 -120.5t-144 -45.5z" />
    <glyph glyph-name="six.numerator" horiz-adv-x="454" 
d="M228 195q-87 0 -142.5 49t-55.5 120q0 65 55 141l125 175h139l-65 -92q-28 -39 -68 -62q17 5 34 5q78 0 128 -44.5t50 -116.5q0 -74 -55 -124.5t-145 -50.5zM229 299q34 0 53.5 20.5t19.5 49.5t-19.5 49.5t-53.5 20.5t-53.5 -20.5t-19.5 -49.5t19.5 -49.5t53.5 -20.5z
" />
    <glyph glyph-name="seven.numerator" horiz-adv-x="435" 
d="M69 203l175 364h-213v113h390v-11l-222 -466h-130z" />
    <glyph glyph-name="eight.numerator" horiz-adv-x="447" 
d="M224 195q-84 0 -139.5 42t-55.5 109q0 81 88 117q-59 33 -59 94q0 57 44 94t122 37q79 0 122 -37t43 -94q0 -63 -57 -94q86 -37 86 -117q0 -68 -54.5 -109.5t-139.5 -41.5zM224 299q31 0 50.5 16t19.5 43q0 29 -19.5 45.5t-50.5 16.5q-33 0 -52 -16.5t-19 -45.5
q0 -27 19.5 -43t51.5 -16zM226 505q21 0 34.5 12.5t13.5 33.5t-14.5 33t-36.5 12t-35.5 -12t-13.5 -33t15 -33.5t37 -12.5z" />
    <glyph glyph-name="nine.numerator" horiz-adv-x="454" 
d="M101 203l72 93q27 35 64 60q-13 -4 -33 -4q-78 0 -128 44.5t-50 116.5q0 74 55 124.5t145 50.5q87 0 142.5 -49t55.5 -120q0 -70 -56 -143l-129 -173h-138zM225 444q34 0 53.5 20.5t19.5 49.5t-19.5 49.5t-53.5 20.5t-53.5 -20.5t-19.5 -49.5t19.5 -49.5t53.5 -20.5z" />
    <glyph glyph-name="zero.denominator" horiz-adv-x="520" 
d="M260 -7q-97 0 -163 68t-66 179t66 179t163 68t163 -68t66 -179t-66 -179t-163 -68zM260 105q45 0 71.5 35t26.5 100t-26.5 100t-71.5 35t-71.5 -35t-26.5 -100t26.5 -100t71.5 -35z" />
    <glyph glyph-name="one.denominator" horiz-adv-x="313" 
d="M124 0v364h-99v113h226v-477h-127z" />
    <glyph glyph-name="two.denominator" horiz-adv-x="445" 
d="M13 0v12l208 212q53 54 53 98q0 22 -16 35.5t-41 13.5q-54 0 -82 -65l-114 40q52 139 197 139q85 0 134.5 -44t49.5 -117q0 -70 -78 -151l-24 -25q-25 -27 -60 -44l12 1q13 1 30.5 2.5t29.5 1.5h87v-109h-386z" />
    <glyph glyph-name="three.denominator" horiz-adv-x="433" 
d="M207 -8q-148 0 -196 117l111 51q22 -55 84 -55q30 0 49 17t19 46q0 64 -72 64q-40 0 -67 -9l-7 13l65 93l40 45q-44 -5 -61 -5h-110v108h342v-11l-83 -118q-24 -32 -38 -37q53 -10 87 -49.5t34 -100.5q0 -81 -57 -125t-140 -44z" />
    <glyph glyph-name="four.denominator" horiz-adv-x="477" 
d="M267 0v58h-234v98l347 329h10v-331h62v-96h-62v-58h-123zM155 150q41 4 71 4h41v44l4 65q-25 -34 -47 -54l-18 -17z" />
    <glyph glyph-name="five.denominator" horiz-adv-x="448" 
d="M216 -8q-148 0 -204 113l106 55q24 -53 89 -53q33 0 54 14.5t21 38.5q0 29 -23.5 44t-62.5 15q-63 0 -120 -34l-12 7v285h302v-109h-194v-61q29 9 60 9q83 0 132 -41t49 -117q0 -75 -53 -120.5t-144 -45.5z" />
    <glyph glyph-name="six.denominator" horiz-adv-x="454" 
d="M228 -8q-87 0 -142.5 49t-55.5 120q0 65 55 141l125 175h139l-65 -92q-28 -39 -68 -62q17 5 34 5q78 0 128 -44.5t50 -116.5q0 -74 -55 -124.5t-145 -50.5zM229 96q34 0 53.5 20.5t19.5 49.5t-19.5 49.5t-53.5 20.5t-53.5 -20.5t-19.5 -49.5t19.5 -49.5t53.5 -20.5z" />
    <glyph glyph-name="seven.denominator" horiz-adv-x="435" 
d="M69 0l175 364h-213v113h390v-11l-222 -466h-130z" />
    <glyph glyph-name="eight.denominator" horiz-adv-x="447" 
d="M224 -8q-84 0 -139.5 42t-55.5 109q0 81 88 117q-59 33 -59 94q0 57 44 94t122 37q79 0 122 -37t43 -94q0 -62 -57 -94q86 -37 86 -117q0 -68 -54.5 -109.5t-139.5 -41.5zM224 96q31 0 50.5 16t19.5 43q0 29 -19.5 45.5t-50.5 16.5q-33 0 -52 -16.5t-19 -45.5
q0 -27 19.5 -43t51.5 -16zM226 302q21 0 34.5 12.5t13.5 33.5t-14.5 33t-36.5 12t-35.5 -12t-13.5 -33t15 -33.5t37 -12.5z" />
    <glyph glyph-name="nine.denominator" horiz-adv-x="454" 
d="M101 0l72 93q27 35 64 60q-13 -4 -33 -4q-78 0 -128 44.5t-50 116.5q0 74 55 124.5t145 50.5q87 0 142.5 -49t55.5 -120q0 -70 -56 -143l-129 -173h-138zM225 241q34 0 53.5 20.5t19.5 49.5t-19.5 49.5t-53.5 20.5t-53.5 -20.5t-19.5 -49.5t19.5 -49.5t53.5 -20.5z" />
    <glyph glyph-name="zero.subscript" horiz-adv-x="446" 
d="M223 -257q-82 0 -138.5 58t-56.5 152t56 152t139 58t139 -58t56 -152t-56.5 -152t-138.5 -58zM223 -162q38 0 60.5 29.5t22.5 85.5t-22.5 85.5t-60.5 29.5t-60.5 -29.5t-22.5 -85.5t22.5 -85.5t60.5 -29.5z" />
    <glyph glyph-name="one.subscript" horiz-adv-x="265" 
d="M105 -250v309h-84v96h192v-405h-108z" />
    <glyph glyph-name="two.subscript" horiz-adv-x="378" 
d="M11 -250v10l177 180q45 45 45 84q0 19 -13.5 30t-35.5 11q-45 0 -69 -55l-97 34q44 118 167 118q72 0 114.5 -37.5t42.5 -99.5q0 -59 -67 -128l-20 -21q-8 -8 -21 -17.5t-22 -14.5l-8 -6q37 5 61 5h74v-93h-328z" />
    <glyph glyph-name="three.subscript" horiz-adv-x="367" 
d="M176 -257q-125 0 -167 100l95 43q19 -47 71 -47q26 0 42 14.5t16 39.5q0 54 -61 54q-34 0 -57 -7l-6 11l55 79l34 38q-38 -4 -52 -4h-93v91h290v-9l-70 -100q-6 -9 -13.5 -16.5t-12 -11t-6.5 -4.5q45 -9 73.5 -42.5t28.5 -84.5q0 -69 -48.5 -106.5t-118.5 -37.5z" />
    <glyph glyph-name="four.subscript" horiz-adv-x="405" 
d="M227 -250v49h-199v84l295 279h9v-281h52v-82h-52v-49h-105zM132 -122q34 3 60 3h35v37l3 56q-21 -29 -40 -46l-15 -15z" />
    <glyph glyph-name="five.subscript" horiz-adv-x="380" 
d="M184 -257q-127 0 -174 96l90 47q21 -45 76 -45q28 0 46 12t18 33q0 24 -20 37t-53 13q-53 0 -102 -29l-11 6v242h257v-92h-165v-52q28 8 51 8q71 0 112.5 -35t41.5 -100q0 -64 -44.5 -102.5t-122.5 -38.5z" />
    <glyph glyph-name="six.subscript" horiz-adv-x="385" 
d="M193 -257q-74 0 -121 42t-47 102q0 56 46 120l107 148h118l-56 -78q-21 -31 -57 -52q12 4 29 4q66 0 108.5 -37.5t42.5 -99.5q0 -63 -46.5 -106t-123.5 -43zM194 -168q29 0 45.5 17t16.5 42t-16.5 42.5t-45.5 17.5t-45.5 -17.5t-16.5 -42.5t16.5 -42t45.5 -17z" />
    <glyph glyph-name="seven.subscript" horiz-adv-x="369" 
d="M59 -250l148 309h-181v96h332v-9l-189 -396h-110z" />
    <glyph glyph-name="eight.subscript" horiz-adv-x="381" 
d="M191 -257q-72 0 -119 35.5t-47 92.5q0 70 74 101q-49 28 -49 79q0 48 37.5 79.5t103.5 31.5q67 0 103.5 -31t36.5 -80q0 -52 -48 -80q73 -31 73 -100q0 -57 -46.5 -92.5t-118.5 -35.5zM191 -169q26 0 42.5 14t16.5 36q0 25 -16 39t-43 14q-28 0 -44.5 -14t-16.5 -39
q0 -23 16.5 -36.5t44.5 -13.5zM192 6q18 0 29.5 11t11.5 29t-12 28t-31 10t-30.5 -10t-11.5 -28t13 -29t31 -11z" />
    <glyph glyph-name="nine.subscript" horiz-adv-x="385" 
d="M86 -250l61 79q15 20 55 52q-12 -4 -29 -4q-66 0 -108.5 37.5t-42.5 99.5q0 63 46.5 105.5t123.5 42.5q74 0 121 -41.5t47 -101.5q0 -61 -47 -122l-110 -147h-117zM191 -45q29 0 45.5 17t16.5 42t-16.5 42.5t-45.5 17.5t-45.5 -17.5t-16.5 -42.5t16.5 -42t45.5 -17z" />
    <glyph glyph-name="zero.superscript" horiz-adv-x="446" 
d="M223 268q-82 0 -138.5 58t-56.5 152t56 152t139 58t139 -58t56 -152t-56.5 -152t-138.5 -58zM223 363q38 0 60.5 29.5t22.5 85.5t-22.5 85.5t-60.5 29.5t-60.5 -29.5t-22.5 -85.5t22.5 -85.5t60.5 -29.5z" />
    <glyph glyph-name="one.superscript" horiz-adv-x="265" 
d="M105 275v309h-84v96h192v-405h-108z" />
    <glyph glyph-name="two.superscript" horiz-adv-x="378" 
d="M11 275v10l177 180q45 45 45 83q0 19 -13.5 30.5t-35.5 11.5q-45 0 -69 -55l-97 34q44 118 167 118q72 0 114.5 -37.5t42.5 -99.5q0 -59 -67 -128l-20 -22q-8 -8 -21 -17.5t-22 -14.5l-8 -5q37 4 61 4h74v-92h-328z" />
    <glyph glyph-name="three.superscript" horiz-adv-x="367" 
d="M176 268q-125 0 -167 99l95 44q19 -47 71 -47q26 0 42 14.5t16 38.5q0 55 -61 55q-31 0 -57 -8l-6 11l55 79l34 38q-38 -4 -52 -4h-93v92h290v-9l-70 -101q-19 -27 -32 -31q45 -9 73.5 -43t28.5 -85q0 -68 -48 -105.5t-119 -37.5z" />
    <glyph glyph-name="four.superscript" horiz-adv-x="405" 
d="M227 275v49h-199v83l295 280h9v-282h52v-81h-52v-49h-105zM132 402q34 3 60 3h35v38l3 55q-21 -29 -40 -46l-15 -14z" />
    <glyph glyph-name="five.superscript" horiz-adv-x="380" 
d="M184 268q-127 0 -174 96l90 47q21 -45 76 -45q28 0 46 12t18 33q0 24 -20 37t-53 13q-53 0 -102 -29l-11 6v242h257v-93h-165v-51q25 7 51 7q71 0 112.5 -34.5t41.5 -99.5q0 -64 -44.5 -102.5t-122.5 -38.5z" />
    <glyph glyph-name="six.superscript" horiz-adv-x="385" 
d="M193 268q-74 0 -121 41.5t-47 101.5q0 56 46 120l107 149h118l-56 -78q-23 -32 -57 -53q12 4 29 4q66 0 108.5 -37.5t42.5 -98.5q0 -63 -46.5 -106t-123.5 -43zM194 356q29 0 45.5 17.5t16.5 42.5t-16.5 42t-45.5 17t-45.5 -17t-16.5 -42t16.5 -42.5t45.5 -17.5z" />
    <glyph glyph-name="seven.superscript" horiz-adv-x="369" 
d="M59 275l148 309h-181v96h332v-9l-189 -396h-110z" />
    <glyph glyph-name="eight.superscript" horiz-adv-x="381" 
d="M191 268q-72 0 -119 35.5t-47 92.5q0 69 74 100q-49 28 -49 80q0 48 37.5 79.5t103.5 31.5q67 0 103.5 -31t36.5 -80q0 -52 -48 -80q73 -31 73 -100q0 -57 -46.5 -92.5t-118.5 -35.5zM191 356q26 0 42.5 14t16.5 36q0 25 -16 39t-43 14q-28 0 -44.5 -14t-16.5 -39
q0 -23 16.5 -36.5t44.5 -13.5zM192 531q18 0 29.5 11t11.5 29t-12 28t-31 10t-30.5 -10t-11.5 -28t13 -29t31 -11z" />
    <glyph glyph-name="nine.superscript" horiz-adv-x="385" 
d="M86 275l61 79q24 31 55 50q-14 -3 -29 -3q-66 0 -108.5 37.5t-42.5 99.5q0 63 46.5 106t123.5 43q74 0 121 -42t47 -102t-47 -121l-110 -147h-117zM191 479q29 0 45.5 17.5t16.5 42.5t-16.5 42t-45.5 17t-45.5 -17t-16.5 -42t16.5 -42.5t45.5 -17.5z" />
    <glyph glyph-name="G.alt" horiz-adv-x="782" 
d="M402 -9q-154 0 -254 99t-100 250q0 149 102 248.5t250 99.5q185 0 276 -141l-110 -78q-58 93 -166 93q-92 0 -150 -63t-58 -159q0 -97 58 -161t151 -64q75 0 125 36.5t63 90.5h-170v122h318q8 -172 -79.5 -272.5t-255.5 -100.5z" />
    <glyph glyph-name="M.alt" horiz-adv-x="843" 
d="M68 0l55 687h14l238 -321l49 -74q27 45 48 74l234 321h14l55 -687h-139l-18 241l-6 121q-35 -66 -63 -103l-123 -165h-12l-124 164q-12 16 -29 42t-27 44l-11 17q-2 -76 -5 -121l-18 -240h-132z" />
    <glyph glyph-name="Q.alt1" horiz-adv-x="800" 
d="M464 -3v-151h-128v151q-126 21 -207 116t-81 227q0 149 102 248.5t250 99.5t250 -99.5t102 -248.5q0 -132 -81 -227t-207 -116zM336 118v118h128v-118q66 20 105 79t39 143q0 96 -58 159t-150 63t-150 -63t-58 -159q0 -84 39 -143t105 -79z" />
    <glyph glyph-name="Q.alt2" horiz-adv-x="800" 
d="M475 13q46 -44 97 -44q47 0 80 43l91 -79q-62 -86 -170 -86q-15 0 -29.5 2.5l-26 4.5t-26.5 9.5t-23 10.5t-23 14t-20.5 14t-21.5 17t-18.5 16.5t-19.5 18t-18 16.5q-23 21 -35.5 31t-32 19.5t-37.5 9.5q-58 0 -105 -68l-93 78q34 53 88 76q-84 94 -84 225
q0 149 102 248.5t250 99.5t250 -99.5t102 -248.5q0 -128 -77.5 -217t-199.5 -111zM400 122q92 0 150 61.5t58 157.5t-58 159.5t-150 63.5t-150 -63.5t-58 -159.5t58 -157.5t150 -61.5z" />
    <glyph glyph-name="a.alt" horiz-adv-x="544" 
d="M227 -9q-78 0 -133 63t-55 160q0 96 54.5 158.5t135.5 62.5q92 0 130 -73l-2 64h134v-426h-134l2 65q-38 -74 -132 -74zM268 109q43 0 67 28t24 77q0 48 -24 75t-67 27q-42 0 -65.5 -27t-23.5 -75q0 -49 23.5 -77t65.5 -28z" />
    <glyph glyph-name="g.alt" horiz-adv-x="492" 
d="M308 427h164v-96h-63q15 -22 15 -52q0 -69 -49 -113.5t-130 -44.5q-53 0 -87 17q-11 -9 -11 -26q0 -33 44 -34l105 -5q87 -5 134.5 -40t47.5 -97q0 -72 -57 -115t-178 -43q-111 0 -170 38.5t-59 101.5q0 65 78 94q-51 28 -51 86t59 84q-38 41 -38 97q0 69 51 112.5
t132 43.5q33 0 63 -8zM243 219q30 0 46.5 16t16.5 44q0 26 -16.5 41.5t-46.5 15.5t-46.5 -15.5t-16.5 -41.5q0 -28 16.5 -44t46.5 -16zM157 -32q-12 -14 -12 -33q0 -56 98 -56q97 0 97 47q0 18 -15 25.5t-56 9.5z" />
    <glyph glyph-name="u.alt" horiz-adv-x="517" 
d="M253 -11q-99 0 -151 53.5t-52 149.5v234h135v-231q0 -89 73 -89q39 0 56.5 22t17.5 67v231h135v-234q0 -94 -56.5 -148.5t-157.5 -54.5z" />
    <glyph glyph-name="Gbreve.alt" horiz-adv-x="782" 
d="M402 -9q-154 0 -254 99t-100 250q0 149 102 248.5t250 99.5q185 0 276 -141l-110 -78q-58 93 -166 93q-92 0 -150 -63t-58 -159q0 -97 58 -161t151 -64q75 0 125 36.5t63 90.5h-170v122h318q8 -172 -79.5 -272.5t-255.5 -100.5zM394 737q-70 0 -113 39t-49 101l103 15
q8 -57 59 -57t59 57l103 -15q-6 -62 -49 -101t-113 -39z" />
    <glyph glyph-name="Gcircumflex.alt" horiz-adv-x="782" 
d="M402 -9q-154 0 -254 99t-100 250q0 149 102 248.5t250 99.5q185 0 276 -141l-110 -78q-58 93 -166 93q-92 0 -150 -63t-58 -159q0 -97 58 -161t151 -64q75 0 125 36.5t63 90.5h-170v122h318q8 -172 -79.5 -272.5t-255.5 -100.5zM228 738l159 216h11l159 -216h-108l-56 65
l-57 -65h-108z" />
    <glyph glyph-name="Gcommaaccent.alt" horiz-adv-x="782" 
d="M402 -9q-154 0 -254 99t-100 250q0 149 102 248.5t250 99.5q185 0 276 -141l-110 -78q-58 93 -166 93q-92 0 -150 -63t-58 -159q0 -97 58 -161t151 -64q75 0 125 36.5t63 90.5h-170v122h318q8 -172 -79.5 -272.5t-255.5 -100.5zM327 -283l31 97q-41 20 -41 69
q0 32 22.5 54t53.5 22t54.5 -21.5t23.5 -53.5q0 -40 -26 -82l-52 -85h-66z" />
    <glyph glyph-name="Gdotaccent.alt" horiz-adv-x="782" 
d="M402 -9q-154 0 -254 99t-100 250q0 149 102 248.5t250 99.5q185 0 276 -141l-110 -78q-58 93 -166 93q-92 0 -150 -63t-58 -159q0 -97 58 -161t151 -64q75 0 125 36.5t63 90.5h-170v122h318q8 -172 -79.5 -272.5t-255.5 -100.5zM395 730q-35 0 -60.5 24t-25.5 61
q0 36 25.5 60t60.5 24t60 -24t25 -60q0 -37 -25 -61t-60 -24z" />
    <glyph glyph-name="aacute.alt" horiz-adv-x="544" 
d="M227 -9q-78 0 -133 63t-55 160q0 96 54.5 158.5t135.5 62.5q92 0 130 -73l-2 64h134v-426h-134l2 65q-38 -74 -132 -74zM268 109q43 0 67 28t24 77q0 48 -24 75t-67 27q-42 0 -65.5 -27t-23.5 -75q0 -49 23.5 -77t65.5 -28zM234 500l52 188h154l-104 -188h-102z" />
    <glyph glyph-name="abreve.alt" horiz-adv-x="544" 
d="M227 -9q-78 0 -133 63t-55 160q0 96 54.5 158.5t135.5 62.5q92 0 130 -73l-2 64h134v-426h-134l2 65q-38 -74 -132 -74zM268 109q43 0 67 28t24 77q0 48 -24 75t-67 27q-42 0 -65.5 -27t-23.5 -75q0 -49 23.5 -77t65.5 -28zM285 500q-70 0 -113 39t-49 101l103 15
q8 -57 59 -57t59 57l103 -15q-6 -62 -49 -101t-113 -39z" />
    <glyph glyph-name="acircumflex.alt" horiz-adv-x="544" 
d="M227 -9q-78 0 -133 63t-55 160q0 96 54.5 158.5t135.5 62.5q92 0 130 -73l-2 64h134v-426h-134l2 65q-38 -74 -132 -74zM268 109q43 0 67 28t24 77q0 48 -24 75t-67 27q-42 0 -65.5 -27t-23.5 -75q0 -49 23.5 -77t65.5 -28zM119 500l159 216h11l159 -216h-108l-56 65
l-57 -65h-108z" />
    <glyph glyph-name="adieresis.alt" horiz-adv-x="544" 
d="M227 -9q-78 0 -133 63t-55 160q0 96 54.5 158.5t135.5 62.5q92 0 130 -73l-2 64h134v-426h-134l2 65q-38 -74 -132 -74zM268 109q43 0 67 28t24 77q0 48 -24 75t-67 27q-42 0 -65.5 -27t-23.5 -75q0 -49 23.5 -77t65.5 -28zM389 506q-30 0 -53 22.5t-23 53.5t23 53.5
t53 22.5t53 -22.5t23 -53.5t-23 -53.5t-53 -22.5zM181 506q-30 0 -53 22.5t-23 53.5t23 53.5t53 22.5t53 -22.5t23 -53.5t-23 -53.5t-53 -22.5z" />
    <glyph glyph-name="agrave.alt" horiz-adv-x="544" 
d="M227 -9q-78 0 -133 63t-55 160q0 96 54.5 158.5t135.5 62.5q92 0 130 -73l-2 64h134v-426h-134l2 65q-38 -74 -132 -74zM268 109q43 0 67 28t24 77q0 48 -24 75t-67 27q-42 0 -65.5 -27t-23.5 -75q0 -49 23.5 -77t65.5 -28zM236 500l-104 188h154l52 -188h-102z" />
    <glyph glyph-name="amacron.alt" horiz-adv-x="544" 
d="M227 -9q-78 0 -133 63t-55 160q0 96 54.5 158.5t135.5 62.5q92 0 130 -73l-2 64h134v-426h-134l2 65q-38 -74 -132 -74zM268 109q43 0 67 28t24 77q0 48 -24 75t-67 27q-42 0 -65.5 -27t-23.5 -75q0 -49 23.5 -77t65.5 -28zM153 516v99h264v-99h-264z" />
    <glyph glyph-name="aogonek.alt" horiz-adv-x="544" 
d="M491 32l-60 -101q-26 -43 -26 -68q0 -29 28 -29q24 0 41 26l66 -38q-36 -62 -115 -62q-46 0 -76.5 26t-30.5 75q0 44 40 94l35 45h-36l2 65q-38 -74 -132 -74q-78 0 -133 63t-55 160q0 96 54.5 158.5t135.5 62.5q92 0 130 -73l-2 64h134v-394zM268 109q43 0 67 28t24 77
q0 48 -24 75t-67 27q-42 0 -65.5 -27t-23.5 -75q0 -49 23.5 -77t65.5 -28z" />
    <glyph glyph-name="aring.alt" horiz-adv-x="544" 
d="M227 -9q-78 0 -133 63t-55 160q0 96 54.5 158.5t135.5 62.5q92 0 130 -73l-2 64h134v-426h-134l2 65q-38 -74 -132 -74zM268 109q43 0 67 28t24 77q0 48 -24 75t-67 27q-42 0 -65.5 -27t-23.5 -75q0 -49 23.5 -77t65.5 -28zM285 474q-54 0 -91.5 35t-37.5 84t37.5 84
t91.5 35t91.5 -35t37.5 -84t-37.5 -84t-91.5 -35zM285 548q19 0 31 12t12 33t-12 33t-31 12t-31 -12t-12 -33t12 -33t31 -12z" />
    <glyph glyph-name="atilde.alt" horiz-adv-x="544" 
d="M227 -9q-78 0 -133 63t-55 160q0 96 54.5 158.5t135.5 62.5q92 0 130 -73l-2 64h134v-426h-134l2 65q-38 -74 -132 -74zM268 109q43 0 67 28t24 77q0 48 -24 75t-67 27q-42 0 -65.5 -27t-23.5 -75q0 -49 23.5 -77t65.5 -28zM205 506l-91 9q4 68 34.5 104t76.5 36
q31 0 63 -20l14.5 -9.5l13 -8.5t10 -5t10.5 -2q24 0 29 45l91 -9q-4 -68 -34 -104t-77 -36q-31 0 -63 20l-14.5 9.5t-12.5 8.5t-10 5t-11 2q-24 0 -29 -45z" />
    <glyph glyph-name="gbreve.alt" horiz-adv-x="492" 
d="M308 427h164v-96h-63q15 -22 15 -52q0 -69 -49 -113.5t-130 -44.5q-53 0 -87 17q-11 -9 -11 -26q0 -33 44 -34l105 -5q87 -5 134.5 -40t47.5 -97q0 -72 -57 -115t-178 -43q-111 0 -170 38.5t-59 101.5q0 65 78 94q-51 28 -51 86t59 84q-38 41 -38 97q0 69 51 112.5
t132 43.5q33 0 63 -8zM243 219q30 0 46.5 16t16.5 44q0 26 -16.5 41.5t-46.5 15.5t-46.5 -15.5t-16.5 -41.5q0 -28 16.5 -44t46.5 -16zM157 -32q-12 -14 -12 -33q0 -56 98 -56q97 0 97 47q0 18 -15 25.5t-56 9.5zM256 500q-70 0 -113 39t-49 101l103 15q8 -57 59 -57t59 57
l103 -15q-6 -62 -49 -101t-113 -39z" />
    <glyph glyph-name="gcircumflex.alt" horiz-adv-x="492" 
d="M308 427h164v-96h-63q15 -22 15 -52q0 -69 -49 -113.5t-130 -44.5q-53 0 -87 17q-11 -9 -11 -26q0 -33 44 -34l105 -5q87 -5 134.5 -40t47.5 -97q0 -72 -57 -115t-178 -43q-111 0 -170 38.5t-59 101.5q0 65 78 94q-51 28 -51 86t59 84q-38 41 -38 97q0 69 51 112.5
t132 43.5q33 0 63 -8zM243 219q30 0 46.5 16t16.5 44q0 26 -16.5 41.5t-46.5 15.5t-46.5 -15.5t-16.5 -41.5q0 -28 16.5 -44t46.5 -16zM157 -32q-12 -14 -12 -33q0 -56 98 -56q97 0 97 47q0 18 -15 25.5t-56 9.5zM90 500l159 216h11l159 -216h-108l-56 65l-57 -65h-108z" />
    <glyph glyph-name="gcommaaccent.alt" horiz-adv-x="492" 
d="M308 427h164v-96h-63q15 -22 15 -52q0 -69 -49 -113.5t-130 -44.5q-53 0 -87 17q-11 -9 -11 -26q0 -33 44 -34l105 -5q87 -5 134.5 -40t47.5 -97q0 -72 -57 -115t-178 -43q-111 0 -170 38.5t-59 101.5q0 65 78 94q-51 28 -51 86t59 84q-38 41 -38 97q0 69 51 112.5
t132 43.5q33 0 63 -8zM243 219q30 0 46.5 16t16.5 44q0 26 -16.5 41.5t-46.5 15.5t-46.5 -15.5t-16.5 -41.5q0 -28 16.5 -44t46.5 -16zM157 -32q-12 -14 -12 -33q0 -56 98 -56q97 0 97 47q0 18 -15 25.5t-56 9.5zM323 738l-31 -97q41 -21 41 -69q0 -32 -22.5 -54t-53.5 -22
t-54.5 21.5t-23.5 53.5q0 40 26 82l52 85h66z" />
    <glyph glyph-name="gdotaccent.alt" horiz-adv-x="492" 
d="M308 427h164v-96h-63q15 -22 15 -52q0 -69 -49 -113.5t-130 -44.5q-53 0 -87 17q-11 -9 -11 -26q0 -33 44 -34l105 -5q87 -5 134.5 -40t47.5 -97q0 -72 -57 -115t-178 -43q-111 0 -170 38.5t-59 101.5q0 65 78 94q-51 28 -51 86t59 84q-38 41 -38 97q0 69 51 112.5
t132 43.5q33 0 63 -8zM243 219q30 0 46.5 16t16.5 44q0 26 -16.5 41.5t-46.5 15.5t-46.5 -15.5t-16.5 -41.5q0 -28 16.5 -44t46.5 -16zM157 -32q-12 -14 -12 -33q0 -56 98 -56q97 0 97 47q0 18 -15 25.5t-56 9.5zM257 497q-35 0 -60.5 24t-25.5 61q0 36 25.5 60t60.5 24
t60 -24t25 -60q0 -37 -25 -61t-60 -24z" />
    <glyph glyph-name="uacute.alt" horiz-adv-x="517" 
d="M253 -11q-99 0 -151 53.5t-52 149.5v234h135v-231q0 -89 73 -89q39 0 56.5 22t17.5 67v231h135v-234q0 -94 -56.5 -148.5t-157.5 -54.5zM207 500l52 188h154l-104 -188h-102z" />
    <glyph glyph-name="ubreve.alt" horiz-adv-x="517" 
d="M253 -11q-99 0 -151 53.5t-52 149.5v234h135v-231q0 -89 73 -89q39 0 56.5 22t17.5 67v231h135v-234q0 -94 -56.5 -148.5t-157.5 -54.5zM258 500q-70 0 -113 39t-49 101l103 15q8 -57 59 -57t59 57l103 -15q-6 -62 -49 -101t-113 -39z" />
    <glyph glyph-name="ucircumflex.alt" horiz-adv-x="517" 
d="M253 -11q-99 0 -151 53.5t-52 149.5v234h135v-231q0 -89 73 -89q39 0 56.5 22t17.5 67v231h135v-234q0 -94 -56.5 -148.5t-157.5 -54.5zM92 500l159 216h11l159 -216h-108l-56 65l-57 -65h-108z" />
    <glyph glyph-name="udieresis.alt" horiz-adv-x="517" 
d="M253 -11q-99 0 -151 53.5t-52 149.5v234h135v-231q0 -89 73 -89q39 0 56.5 22t17.5 67v231h135v-234q0 -94 -56.5 -148.5t-157.5 -54.5zM362 506q-30 0 -53 22.5t-23 53.5t23 53.5t53 22.5t53 -22.5t23 -53.5t-23 -53.5t-53 -22.5zM154 506q-30 0 -53 22.5t-23 53.5
t23 53.5t53 22.5t53 -22.5t23 -53.5t-23 -53.5t-53 -22.5z" />
    <glyph glyph-name="ugrave.alt" horiz-adv-x="517" 
d="M253 -11q-99 0 -151 53.5t-52 149.5v234h135v-231q0 -89 73 -89q39 0 56.5 22t17.5 67v231h135v-234q0 -94 -56.5 -148.5t-157.5 -54.5zM209 500l-104 188h154l52 -188h-102z" />
    <glyph glyph-name="uhungarumlaut.alt" horiz-adv-x="517" 
d="M253 -11q-99 0 -151 53.5t-52 149.5v234h135v-231q0 -89 73 -89q39 0 56.5 22t17.5 67v231h135v-234q0 -94 -56.5 -148.5t-157.5 -54.5zM299 500l51 188h140l-89 -188h-102zM114 500l51 188h140l-89 -188h-102z" />
    <glyph glyph-name="umacron.alt" horiz-adv-x="517" 
d="M253 -11q-99 0 -151 53.5t-52 149.5v234h135v-231q0 -89 73 -89q39 0 56.5 22t17.5 67v231h135v-234q0 -94 -56.5 -148.5t-157.5 -54.5zM126 516v99h264v-99h-264z" />
    <glyph glyph-name="uogonek.alt" horiz-adv-x="517" 
d="M234 -10q-90 5 -137 58t-47 144v234h135v-231q0 -89 73 -89q39 0 56.5 22t17.5 67v231h135v-234q0 -77 -38.5 -128.5t-109.5 -67.5l-39 -65q-26 -44 -26 -68q0 -29 28 -29q24 0 41 26l66 -38q-36 -62 -115 -62q-46 0 -76.5 26t-30.5 75q0 44 40 94z" />
    <glyph glyph-name="uring.alt" horiz-adv-x="517" 
d="M253 -11q-99 0 -151 53.5t-52 149.5v234h135v-231q0 -89 73 -89q39 0 56.5 22t17.5 67v231h135v-234q0 -94 -56.5 -148.5t-157.5 -54.5zM258 474q-54 0 -91.5 35t-37.5 84t37.5 84t91.5 35t91.5 -35t37.5 -84t-37.5 -84t-91.5 -35zM258 548q19 0 31 12t12 33t-12 33
t-31 12t-31 -12t-12 -33t12 -33t31 -12z" />
    <glyph glyph-name="f_b.alt" horiz-adv-x="888" 
d="M656 -9q-96 0 -134 71l3 -62h-135v526q0 88 -77 88q-76 0 -76 -88v-100h99v-112h-99v-314h-135v314h-71v112h71v96q0 100 60 156.5t151 56.5q92 0 152 -52.5t60 -149.5v-167q46 69 134 69q80 0 135 -62t55 -159q0 -96 -56.5 -159.5t-136.5 -63.5zM617 109q43 0 68 27.5
t25 77.5q0 47 -25 74.5t-68 27.5q-44 0 -70 -27.5t-26 -74.5q0 -50 26 -77.5t70 -27.5z" />
    <glyph glyph-name="f_f_b.alt" horiz-adv-x="1176" 
d="M525 426h99v-112h-99v-314h-135v314h-153v-314h-135v314h-71v112h71v123q0 166 152 166q65 0 111 -40l-56 -97q-14 16 -37 16q-35 0 -35 -43v-125h153v96q0 100 60 156.5t151 56.5q92 0 152 -52.5t60 -149.5v-167q46 69 134 69q80 0 135 -62t55 -159q0 -96 -56.5 -159.5
t-136.5 -63.5q-96 0 -134 71l3 -62h-135v526q0 88 -77 88q-76 0 -76 -88v-100zM905 109q43 0 68 27.5t25 77.5q0 47 -25 74.5t-68 27.5q-44 0 -70 -27.5t-26 -74.5q0 -50 26 -77.5t70 -27.5z" />
    <glyph glyph-name="f_f_f_l.alt" horiz-adv-x="1159" 
d="M390 314h-153v-314h-135v314h-71v112h71v123q0 166 152 166q65 0 111 -40l-56 -97q-14 16 -37 16q-35 0 -35 -43v-125h153v133q0 166 152 166q65 0 111 -40l-56 -97q-14 16 -37 16q-35 0 -35 -43v-135h153v96q0 100 60 156.5t151 56.5q92 0 152 -52.5t60 -149.5v-533
h-135v526q0 88 -77 88q-76 0 -76 -88v-100h99v-112h-99v-314h-135v314h-153v-314h-135v314z" />
    <glyph glyph-name="f_f_h.alt" horiz-adv-x="1155" 
d="M390 426v96q0 100 60 156.5t151 56.5q92 0 152 -52.5t60 -149.5v-174q40 76 132 76q71 0 115.5 -50t44.5 -139v-246h-135v237q0 75 -71 75q-41 0 -63.5 -22t-22.5 -62v-228h-135v526q0 88 -77 88q-76 0 -76 -88v-100h99v-112h-99v-314h-135v314h-153v-314h-135v314h-71
v112h71v123q0 166 152 166q65 0 111 -40l-56 -97q-14 16 -37 16q-35 0 -35 -43v-125h153z" />
    <glyph glyph-name="f_f_k.alt" horiz-adv-x="1119" 
d="M390 426v96q0 100 60 156.5t151 56.5q92 0 152 -52.5t60 -149.5v-179q0 -45 -7 -92l140 164h150l-151 -174l167 -252h-157l-106 161l-36 -38v-123h-135v526q0 88 -77 88q-76 0 -76 -88v-100h99v-112h-99v-314h-135v314h-153v-314h-135v314h-71v112h71v123q0 166 152 166
q65 0 111 -40l-56 -97q-14 16 -37 16q-35 0 -35 -43v-125h153z" />
    <glyph glyph-name="ffl.alt" horiz-adv-x="871" 
d="M102 0v314h-71v112h71v123q0 166 152 166q65 0 111 -40l-56 -97q-14 16 -37 16q-35 0 -35 -43v-125h153v96q0 100 60 156.5t151 56.5q92 0 152 -52.5t60 -149.5v-533h-135v526q0 88 -77 88q-76 0 -76 -88v-100h99v-112h-99v-314h-135v314h-153v-314h-135z" />
    <glyph glyph-name="f_h.alt" horiz-adv-x="867" 
d="M102 0v314h-71v112h71v96q0 100 60 156.5t151 56.5q92 0 152 -52.5t60 -149.5v-174q40 76 132 76q71 0 115.5 -50t44.5 -139v-246h-135v237q0 75 -71 75q-41 0 -63.5 -22t-22.5 -62v-228h-135v526q0 88 -77 88q-76 0 -76 -88v-100h99v-112h-99v-314h-135z" />
    <glyph glyph-name="f_k.alt" horiz-adv-x="831" 
d="M525 123v-123h-135v526q0 88 -77 88q-76 0 -76 -88v-100h99v-112h-99v-314h-135v314h-71v112h71v96q0 100 60 156.5t151 56.5q92 0 152 -52.5t60 -149.5v-179q0 -45 -7 -92l140 164h150l-151 -174l167 -252h-157l-106 161z" />
    <glyph glyph-name="fl.alt" horiz-adv-x="583" 
d="M102 0v314h-71v112h71v96q0 100 60 156.5t151 56.5q92 0 152 -52.5t60 -149.5v-533h-135v526q0 88 -77 88q-76 0 -76 -88v-100h99v-112h-99v-314h-135z" />
    <glyph glyph-name="space.up" horiz-adv-x="221" 
 />
    <glyph glyph-name="hyphen.up" horiz-adv-x="322" 
d="M36 212v120h250v-120h-250z" />
    <glyph glyph-name="endash.up" horiz-adv-x="476" 
d="M40 212v120h396v-120h-396z" />
    <glyph glyph-name="emdash.up" horiz-adv-x="757" 
d="M40 212v120h677v-120h-677z" />
    <glyph glyph-name="guilsinglleft.up" horiz-adv-x="289" 
d="M127 92l-95 168v8l95 165h130l-98 -169l98 -172h-130z" />
    <glyph glyph-name="guilsinglright.up" horiz-adv-x="289" 
d="M32 92l98 169l-98 172h130l95 -168v-8l-95 -165h-130z" />
    <glyph glyph-name="guillemotleft.up" horiz-adv-x="504" 
d="M342 92l-95 168v8l95 165h130l-98 -169l98 -172h-130zM127 92l-95 168v8l95 165h130l-98 -169l98 -172h-130z" />
    <glyph glyph-name="guillemotright.up" horiz-adv-x="504" 
d="M247 92l98 169l-98 172h130l95 -168v-8l-95 -165h-130zM32 92l98 169l-98 172h130l95 -168v-8l-95 -165h-130z" />
    <glyph glyph-name="at.up" horiz-adv-x="925" 
d="M477 -127q-192 0 -315 109t-123 295q0 120 60.5 215t159 145.5t212.5 50.5q186 0 300.5 -102t114.5 -270q0 -117 -48 -179t-137 -62q-107 0 -139 77q-41 -81 -136 -81q-75 0 -125 56t-50 143t50 144t123 57q75 0 108 -60l-2 50h130v-225q0 -33 10.5 -48t35.5 -15
q66 0 66 141q0 138 -79 205t-222 67q-138 0 -223.5 -84.5t-85.5 -223.5q0 -141 81.5 -222t231.5 -81q80 0 159 28l42 -94q-91 -36 -199 -36zM464 180q30 0 49.5 26t19.5 64t-19.5 64t-49.5 26q-34 0 -54.5 -24.5t-20.5 -65.5t20.5 -65.5t54.5 -24.5z" />
    <glyph glyph-name="A.sc" horiz-adv-x="540" 
d="M19 0l245 528h11l246 -528h-141l-25 59h-179l-25 -59h-132zM213 151h109l-15 34q-32 70 -40 109q-27 -82 -39 -109z" />
    <glyph glyph-name="B.sc" horiz-adv-x="505" 
d="M56 0v522h219q76 0 120.5 -39t44.5 -96q0 -80 -74 -108q100 -30 100 -133q0 -69 -49 -107.5t-131 -38.5h-230zM187 111h91q24 0 39.5 15.5t15.5 38.5q0 24 -15.5 39.5t-39.5 15.5h-91v-109zM187 320h77q21 0 33.5 12.5t12.5 34.5q0 21 -12.5 33t-33.5 12h-77v-92z" />
    <glyph glyph-name="C.sc" horiz-adv-x="588" 
d="M318 -9q-125 0 -200 76.5t-75 193.5t75.5 193.5t195.5 76.5q150 0 223 -114l-108 -72q-41 66 -115 66q-61 0 -96.5 -42t-35.5 -108t36.5 -108t98.5 -42q90 0 126 74l110 -63q-30 -61 -91 -96t-144 -35z" />
    <glyph glyph-name="D.sc" horiz-adv-x="559" 
d="M56 0v522h188q118 0 195 -71.5t77 -189.5q0 -117 -77 -189t-195 -72h-188zM192 118h45q140 0 140 143q0 68 -34.5 105.5t-105.5 37.5h-45v-286z" />
    <glyph glyph-name="E.sc" horiz-adv-x="480" 
d="M56 0v522h371v-117h-235v-87h196v-111h-196v-90h245v-117h-381z" />
    <glyph glyph-name="F.sc" horiz-adv-x="459" 
d="M56 0v522h363v-119h-227v-117h203v-119h-203v-167h-136z" />
    <glyph glyph-name="G.sc" horiz-adv-x="585" 
d="M331 -9q-132 0 -210 75.5t-78 194.5t79 194.5t196 75.5q126 0 200 -78l-87 -90q-42 48 -113 48q-63 0 -99.5 -43t-36.5 -107q0 -69 35.5 -112t113.5 -43q46 0 81 14v60h-106v109h230v-246q-29 -20 -84 -36t-121 -16z" />
    <glyph glyph-name="H.sc" horiz-adv-x="577" 
d="M56 0v522h136v-203h193v203h136v-522h-136v198h-193v-198h-136z" />
    <glyph glyph-name="I.sc" horiz-adv-x="252" 
d="M58 0v522h136v-522h-136z" />
    <glyph glyph-name="J.sc" horiz-adv-x="424" 
d="M191 -9q-128 0 -178 111l110 62q11 -21 18 -30.5t19 -17t28 -7.5q47 0 47 58v355h136v-359q0 -88 -49 -130t-131 -42z" />
    <glyph glyph-name="K.sc" horiz-adv-x="546" 
d="M56 0v522h136v-127q0 -51 -11 -131q44 84 72 120l108 138h149l-179 -224l203 -298h-161l-135 203l-46 -53v-150h-136z" />
    <glyph glyph-name="L.sc" horiz-adv-x="462" 
d="M56 0v522h136v-404h230v-118h-366z" />
    <glyph glyph-name="M.sc" horiz-adv-x="655" 
d="M56 0v529h10l264 -280l259 280h10v-529h-131v159q0 19 1.5 43.5t3 40.5t2.5 17l-10 -14q-10 -15 -26.5 -36.5t-31.5 -37.5l-74 -81h-10l-76 81q-12 12 -24.5 28t-20.5 27.5l-15 22.5l-7 10v-7l2.5 -17.5t2.5 -23t1.5 -27t0.5 -26.5v-159h-131z" />
    <glyph glyph-name="N.sc" horiz-adv-x="556" 
d="M489 -8l-243 210q-17 15 -36 34.5t-29 31.5l-10 12q10 -67 10 -110v-170h-125v529h11l241 -208q46 -40 75 -79q-1 1 -2.5 19t-3.5 45.5t-2 46.5v169h125v-530h-11z" />
    <glyph glyph-name="O.sc" horiz-adv-x="648" 
d="M324 -9q-117 0 -199 76.5t-82 193.5q0 118 82 194t199 76t199 -76t82 -194q0 -117 -82 -193.5t-199 -76.5zM324 111q63 0 102.5 41.5t39.5 108.5q0 66 -39.5 108t-102.5 42t-102.5 -42t-39.5 -108q0 -67 39.5 -108.5t102.5 -41.5z" />
    <glyph glyph-name="P.sc" horiz-adv-x="505" 
d="M56 0v522h198q100 0 158 -45.5t58 -138.5t-58 -139t-158 -46h-62v-153h-136zM192 268h59q79 0 79 70q0 68 -79 68h-59v-138z" />
    <glyph glyph-name="Q.sc" horiz-adv-x="648" 
d="M508 -77l-75 88q-52 -20 -109 -20q-117 0 -199 76.5t-82 193.5q0 118 82 194t199 76t199 -76t82 -194q0 -113 -77 -188l68 -79zM324 107q8 0 26 2l-56 65l88 71l63 -74q21 36 21 90q0 66 -39.5 108t-102.5 42t-102.5 -42t-39.5 -108q0 -68 39.5 -111t102.5 -43z" />
    <glyph glyph-name="R.sc" horiz-adv-x="521" 
d="M56 0v522h203q100 0 158 -45.5t58 -138.5q0 -111 -98 -153l115 -185h-153l-98 164h-49v-164h-136zM192 271h64q79 0 79 67q0 68 -79 68h-64v-135z" />
    <glyph glyph-name="S.sc" horiz-adv-x="459" 
d="M230 -9q-77 0 -133.5 33t-83.5 88l106 62q39 -68 109 -68q28 0 46 10t18 28t-15 29t-56 28l-22 9q-72 29 -108 67t-36 103q0 68 47.5 109.5t123.5 41.5q58 0 98.5 -20.5t71.5 -69.5l-103 -59q-23 37 -63 37q-20 0 -32.5 -10t-12.5 -27q0 -13 8 -23t17.5 -15t28.5 -13
l22 -9q84 -34 125 -71.5t41 -105.5q0 -73 -52.5 -113.5t-144.5 -40.5z" />
    <glyph glyph-name="T.sc" horiz-adv-x="505" 
d="M184 0v404h-148v118h433v-118h-148v-404h-137z" />
    <glyph glyph-name="U.sc" horiz-adv-x="556" 
d="M279 -9q-103 0 -164.5 56t-61.5 159v316h136v-314q0 -96 89 -96t89 96v314h136v-316q0 -103 -61.5 -159t-162.5 -56z" />
    <glyph glyph-name="V.sc" horiz-adv-x="542" 
d="M266 -7l-249 529h150l67 -152q18 -42 43 -130q19 78 43 130l67 152h138l-247 -529h-12z" />
    <glyph glyph-name="W.sc" horiz-adv-x="750" 
d="M220 -7l-203 529h146l59 -161q15 -43 33 -114q8 50 39 115l79 166h11l82 -166q12 -25 22.5 -54t14.5 -46l4 -16q14 61 33 115l58 161h135l-200 -529h-12l-101 199q-10 19 -20 45t-15 42.5t-6 20.5q-27 -80 -41 -108l-106 -199h-12z" />
    <glyph glyph-name="X.sc" horiz-adv-x="567" 
d="M20 0l178 289l-147 233h152l43 -73q26 -44 38 -93q19 58 39 93l41 73h145l-145 -234l183 -288h-154l-65 104q-22 34 -50 104q-17 -51 -48 -104l-63 -104h-147z" />
    <glyph glyph-name="Y.sc" horiz-adv-x="521" 
d="M196 0v191l-181 331h155l50 -100q24 -47 48 -131q20 78 47 131l47 100h144l-174 -329v-193h-136z" />
    <glyph glyph-name="Z.sc" horiz-adv-x="496" 
d="M32 0v11l223 394h-184v117h391v-11l-223 -394h207v-117h-414z" />
    <glyph glyph-name="Oslash.sc" horiz-adv-x="648" 
d="M558 415q47 -68 47 -154q0 -117 -82 -193.5t-199 -76.5q-95 0 -169 52l-58 -53l-62 65l56 52q-48 67 -48 154q0 118 82 194t199 76q96 0 170 -52l57 52l62 -65zM189 197l213 197q-33 21 -78 21q-65 0 -105.5 -43t-40.5 -111q0 -34 11 -64zM459 324l-213 -197
q34 -20 78 -20q65 0 105.5 42t40.5 112q0 33 -11 63z" />
    <glyph glyph-name="AE.sc" horiz-adv-x="795" 
d="M14 0l374 522h354v-117h-235v-87h196v-111h-196v-90h245v-117h-377v62h-173l-44 -62h-144zM273 164h102v81q0 23 8 95q-22 -51 -45 -84z" />
    <glyph glyph-name="OE.sc" horiz-adv-x="791" 
d="M315 0q-118 0 -195 71.5t-77 189.5q0 117 77 189t195 72h423v-117h-235v-87h196v-111h-196v-90h245v-117h-433zM322 118h45v286h-45q-140 0 -140 -143q0 -68 34.5 -105.5t105.5 -37.5z" />
    <glyph glyph-name="Eth.sc" horiz-adv-x="559" 
d="M56 0v203h-38v113h38v206h188q118 0 195 -71.5t77 -189.5q0 -117 -77 -189t-195 -72h-188zM192 118h45q140 0 140 143q0 68 -34.5 105.5t-105.5 37.5h-45v-88h103v-113h-103v-85z" />
    <glyph glyph-name="Dcroat.sc" horiz-adv-x="559" 
d="M56 0v203h-38v113h38v206h188q118 0 195 -71.5t77 -189.5q0 -117 -77 -189t-195 -72h-188zM192 118h45q140 0 140 143q0 68 -34.5 105.5t-105.5 37.5h-45v-88h103v-113h-103v-85z" />
    <glyph glyph-name="dotlessi.sc" horiz-adv-x="252" 
d="M58 0v522h136v-522h-136z" />
    <glyph glyph-name="Aacute.sc" horiz-adv-x="540" 
d="M19 0l245 528h11l246 -528h-141l-25 59h-179l-25 -59h-132zM219 585l52 188h154l-104 -188h-102zM213 151h109l-15 34q-32 70 -40 109q-27 -82 -39 -109z" />
    <glyph glyph-name="Abreve.sc" horiz-adv-x="540" 
d="M19 0l245 528h11l246 -528h-141l-25 59h-179l-25 -59h-132zM270 580q-70 0 -113 39t-49 101l103 15q8 -57 59 -57t59 57l103 -15q-6 -62 -49 -101t-113 -39zM213 151h109l-15 34q-32 70 -40 109q-27 -82 -39 -109z" />
    <glyph glyph-name="Acircumflex.sc" horiz-adv-x="540" 
d="M19 0l245 528h11l246 -528h-141l-25 59h-179l-25 -59h-132zM104 575l159 216h11l159 -216h-108l-56 65l-57 -65h-108zM213 151h109l-15 34q-32 70 -40 109q-27 -82 -39 -109z" />
    <glyph glyph-name="Adieresis.sc" horiz-adv-x="540" 
d="M19 0l245 528h11l246 -528h-141l-25 59h-179l-25 -59h-132zM166 581q-30 0 -53 22.5t-23 53.5t23 53.5t53 22.5t53 -22.5t23 -53.5t-23 -53.5t-53 -22.5zM374 581q-30 0 -53 22.5t-23 53.5t23 53.5t53 22.5t53 -22.5t23 -53.5t-23 -53.5t-53 -22.5zM213 151h109l-15 34
q-32 70 -40 109q-27 -82 -39 -109z" />
    <glyph glyph-name="Agrave.sc" horiz-adv-x="540" 
d="M19 0l245 528h11l246 -528h-141l-25 59h-179l-25 -59h-132zM221 585l-104 188h154l52 -188h-102zM213 151h109l-15 34q-32 70 -40 109q-27 -82 -39 -109z" />
    <glyph glyph-name="Amacron.sc" horiz-adv-x="540" 
d="M19 0l245 528h11l246 -528h-141l-25 59h-179l-25 -59h-132zM138 601v99h264v-99h-264zM213 151h109l-15 34q-32 70 -40 109q-27 -82 -39 -109z" />
    <glyph glyph-name="Aogonek.sc" horiz-adv-x="540" 
d="M449 -240q-46 0 -76.5 26t-30.5 75q0 44 40 94l35 45h-37l-25 59h-179l-25 -59h-132l245 528h11l235 -504l-55 -93q-26 -44 -26 -68q0 -29 28 -29q24 0 41 26l66 -38q-36 -62 -115 -62zM213 151h109l-15 34q-32 70 -40 109q-27 -82 -39 -109z" />
    <glyph glyph-name="Aring.sc" horiz-adv-x="540" 
d="M19 0l245 528h11l246 -528h-141l-25 59h-179l-25 -59h-132zM270 559q-54 0 -91.5 35t-37.5 84t37.5 84t91.5 35t91.5 -35t37.5 -84t-37.5 -84t-91.5 -35zM213 151h109l-15 34q-32 70 -40 109q-27 -82 -39 -109zM270 633q19 0 31 12t12 33t-12 33t-31 12t-31 -12t-12 -33
t12 -33t31 -12z" />
    <glyph glyph-name="Atilde.sc" horiz-adv-x="540" 
d="M19 0l245 528h11l246 -528h-141l-25 59h-179l-25 -59h-132zM190 591l-91 9q4 68 34.5 104t76.5 36q31 0 63 -20l14.5 -9.5l13 -8.5t10 -5t10.5 -2q25 0 29 45l91 -9q-4 -68 -34 -104t-77 -36q-31 0 -63 20l-14.5 9.5t-12.5 8.5t-10 5t-11 2q-25 0 -29 -45zM213 151h109
l-15 34q-32 70 -40 109q-27 -82 -39 -109z" />
    <glyph glyph-name="Cacute.sc" horiz-adv-x="588" 
d="M318 -9q-125 0 -200 76.5t-75 193.5t75.5 193.5t195.5 76.5q150 0 223 -114l-108 -72q-41 66 -115 66q-61 0 -96.5 -42t-35.5 -108t36.5 -108t98.5 -42q90 0 126 74l110 -63q-30 -61 -91 -96t-144 -35zM254 585l52 188h154l-104 -188h-102z" />
    <glyph glyph-name="Ccaron.sc" horiz-adv-x="588" 
d="M318 -9q-125 0 -200 76.5t-75 193.5t75.5 193.5t195.5 76.5q150 0 223 -114l-108 -72q-41 66 -115 66q-61 0 -96.5 -42t-35.5 -108t36.5 -108t98.5 -42q90 0 126 74l110 -63q-30 -61 -91 -96t-144 -35zM298 566l-159 216h108l56 -65l57 65h108l-159 -216h-11z" />
    <glyph glyph-name="Ccedilla.sc" horiz-adv-x="588" 
d="M294 -240q-83 0 -118 60l64 39q15 -28 43 -28q15 0 25.5 9t10.5 25q0 34 -41 34h-34v100q-94 22 -147.5 93t-53.5 169q0 117 75.5 193.5t195.5 76.5q150 0 223 -114l-108 -72q-41 66 -115 66q-61 0 -96.5 -42t-35.5 -108t36.5 -108t98.5 -42q90 0 126 74l110 -63
q-30 -61 -91 -96t-144 -35h-5v-30q38 -7 63.5 -33.5t25.5 -70.5q0 -43 -32.5 -70t-75.5 -27z" />
    <glyph glyph-name="Ccircumflex.sc" horiz-adv-x="588" 
d="M318 -9q-125 0 -200 76.5t-75 193.5t75.5 193.5t195.5 76.5q150 0 223 -114l-108 -72q-41 66 -115 66q-61 0 -96.5 -42t-35.5 -108t36.5 -108t98.5 -42q90 0 126 74l110 -63q-30 -61 -91 -96t-144 -35zM139 575l159 216h11l159 -216h-108l-56 65l-57 -65h-108z" />
    <glyph glyph-name="Cdotaccent.sc" horiz-adv-x="588" 
d="M318 -9q-125 0 -200 76.5t-75 193.5t75.5 193.5t195.5 76.5q150 0 223 -114l-108 -72q-41 66 -115 66q-61 0 -96.5 -42t-35.5 -108t36.5 -108t98.5 -42q90 0 126 74l110 -63q-30 -61 -91 -96t-144 -35zM306 572q-35 0 -60.5 24t-25.5 61q0 36 25.5 60t60.5 24t60 -24
t25 -60q0 -37 -25 -61t-60 -24z" />
    <glyph glyph-name="Dcaron.sc" horiz-adv-x="559" 
d="M56 0v522h188q118 0 195 -71.5t77 -189.5q0 -117 -77 -189t-195 -72h-188zM192 118h45q140 0 140 143q0 68 -34.5 105.5t-105.5 37.5h-45v-286zM244 566l-159 216h108l56 -65l57 65h108l-159 -216h-11z" />
    <glyph glyph-name="Eacute.sc" horiz-adv-x="480" 
d="M56 0v522h371v-117h-235v-87h196v-111h-196v-90h245v-117h-381zM195 585l52 188h154l-104 -188h-102z" />
    <glyph glyph-name="Ecaron.sc" horiz-adv-x="480" 
d="M56 0v522h371v-117h-235v-87h196v-111h-196v-90h245v-117h-381zM239 566l-159 216h108l56 -65l57 65h108l-159 -216h-11z" />
    <glyph glyph-name="Ecircumflex.sc" horiz-adv-x="480" 
d="M56 0v522h371v-117h-235v-87h196v-111h-196v-90h245v-117h-381zM80 575l159 216h11l159 -216h-108l-56 65l-57 -65h-108z" />
    <glyph glyph-name="Edieresis.sc" horiz-adv-x="480" 
d="M56 0v522h371v-117h-235v-87h196v-111h-196v-90h245v-117h-381zM350 581q-30 0 -53 22.5t-23 53.5t23 53.5t53 22.5t53 -22.5t23 -53.5t-23 -53.5t-53 -22.5zM142 581q-30 0 -53 22.5t-23 53.5t23 53.5t53 22.5t53 -22.5t23 -53.5t-23 -53.5t-53 -22.5z" />
    <glyph glyph-name="Edotaccent.sc" horiz-adv-x="480" 
d="M56 0v522h371v-117h-235v-87h196v-111h-196v-90h245v-117h-381zM247 572q-35 0 -60.5 24t-25.5 61q0 36 25.5 60t60.5 24t60 -24t25 -60q0 -37 -25 -61t-60 -24z" />
    <glyph glyph-name="Egrave.sc" horiz-adv-x="480" 
d="M56 0v522h371v-117h-235v-87h196v-111h-196v-90h245v-117h-381zM197 585l-104 188h154l52 -188h-102z" />
    <glyph glyph-name="Emacron.sc" horiz-adv-x="480" 
d="M56 0v522h371v-117h-235v-87h196v-111h-196v-90h245v-117h-381zM114 601v99h264v-99h-264z" />
    <glyph glyph-name="Eogonek.sc" horiz-adv-x="480" 
d="M338 -240q-46 0 -76.5 26t-30.5 75q0 44 40 94l35 45h-250v522h371v-117h-235v-87h196v-111h-196v-90h245v-117h-52l-41 -69q-26 -44 -26 -68q0 -29 28 -29q24 0 41 26l66 -38q-36 -62 -115 -62z" />
    <glyph glyph-name="Gbreve.sc" horiz-adv-x="585" 
d="M331 -9q-132 0 -210 75.5t-78 194.5t79 194.5t196 75.5q126 0 200 -78l-87 -90q-42 48 -113 48q-63 0 -99.5 -43t-36.5 -107q0 -69 35.5 -112t113.5 -43q46 0 81 14v60h-106v109h230v-246q-29 -20 -84 -36t-121 -16zM301 580q-70 0 -113 39t-49 101l103 15q8 -57 59 -57
t59 57l103 -15q-6 -62 -49 -101t-113 -39z" />
    <glyph glyph-name="Gcircumflex.sc" horiz-adv-x="585" 
d="M331 -9q-132 0 -210 75.5t-78 194.5t79 194.5t196 75.5q126 0 200 -78l-87 -90q-42 48 -113 48q-63 0 -99.5 -43t-36.5 -107q0 -69 35.5 -112t113.5 -43q46 0 81 14v60h-106v109h230v-246q-29 -20 -84 -36t-121 -16zM135 575l159 216h11l159 -216h-108l-56 65l-57 -65
h-108z" />
    <glyph glyph-name="Gcommaaccent.sc" horiz-adv-x="585" 
d="M331 -9q-132 0 -210 75.5t-78 194.5t79 194.5t196 75.5q126 0 200 -78l-87 -90q-42 48 -113 48q-63 0 -99.5 -43t-36.5 -107q0 -69 35.5 -112t113.5 -43q46 0 81 14v60h-106v109h230v-246q-29 -20 -84 -36t-121 -16zM234 -283l31 97q-41 20 -41 69q0 32 22.5 54t53.5 22
t54.5 -21.5t23.5 -53.5q0 -40 -26 -82l-52 -85h-66z" />
    <glyph glyph-name="Gdotaccent.sc" horiz-adv-x="585" 
d="M331 -9q-132 0 -210 75.5t-78 194.5t79 194.5t196 75.5q126 0 200 -78l-87 -90q-42 48 -113 48q-63 0 -99.5 -43t-36.5 -107q0 -69 35.5 -112t113.5 -43q46 0 81 14v60h-106v109h230v-246q-29 -20 -84 -36t-121 -16zM302 582q-35 0 -60.5 24t-25.5 61q0 36 25.5 60
t60.5 24t60 -24t25 -60q0 -37 -25 -61t-60 -24z" />
    <glyph glyph-name="Hbar.sc" horiz-adv-x="577" 
d="M1 359v87h55v76h136v-76h193v76h136v-76h55v-87h-55v-359h-136v198h-193v-198h-136v359h-55zM192 312h193v47h-193v-47z" />
    <glyph glyph-name="Hcircumflex.sc" horiz-adv-x="577" 
d="M56 0v522h136v-203h193v203h136v-522h-136v198h-193v-198h-136zM122 575l159 216h11l159 -216h-108l-56 65l-57 -65h-108z" />
    <glyph glyph-name="Iacute.sc" horiz-adv-x="252" 
d="M58 0v522h136v-522h-136zM75 585l52 188h154l-104 -188h-102z" />
    <glyph glyph-name="Icircumflex.sc" horiz-adv-x="252" 
d="M58 0v522h136v-522h-136zM-40 575l159 216h11l159 -216h-108l-56 65l-57 -65h-108z" />
    <glyph glyph-name="Idieresis.sc" horiz-adv-x="252" 
d="M58 0v522h136v-522h-136zM226 581q-30 0 -53 22.5t-23 53.5t23 53.5t53 22.5t53 -22.5t23 -53.5t-23 -53.5t-53 -22.5zM26 581q-30 0 -53 22.5t-23 53.5t23 53.5t53 22.5t53 -22.5t23 -53.5t-23 -53.5t-53 -22.5z" />
    <glyph glyph-name="Idotaccent.sc" horiz-adv-x="252" 
d="M58 0v522h136v-522h-136zM126 572q-35 0 -60.5 24t-25.5 61q0 36 25.5 60t60.5 24t60 -24t25 -60q0 -37 -25 -61t-60 -24z" />
    <glyph glyph-name="Igrave.sc" horiz-adv-x="252" 
d="M58 0v522h136v-522h-136zM77 585l-104 188h154l52 -188h-102z" />
    <glyph glyph-name="Imacron.sc" horiz-adv-x="252" 
d="M58 0v522h136v-522h-136zM4 601v99h244v-99h-244z" />
    <glyph glyph-name="Iogonek.sc" horiz-adv-x="252" 
d="M93 0h-35v522h136v-485l-63 -106q-26 -44 -26 -68q0 -29 28 -29q24 0 41 26l66 -38q-36 -62 -115 -62q-46 0 -76.5 26t-30.5 75q0 44 40 94z" />
    <glyph glyph-name="Jcircumflex.sc" horiz-adv-x="424" 
d="M191 -9q-128 0 -178 111l110 62q11 -21 18 -30.5t19 -17t28 -7.5q47 0 47 58v355h136v-359q0 -88 -49 -130t-131 -42zM136 575l159 216h11l159 -216h-108l-56 65l-57 -65h-108z" />
    <glyph glyph-name="Kcommaaccent.sc" horiz-adv-x="546" 
d="M56 0v522h136v-127q0 -51 -11 -131q44 84 72 120l108 138h149l-179 -224l203 -298h-161l-135 203l-46 -53v-150h-136zM206 -283l31 97q-41 20 -41 69q0 32 22.5 54t53.5 22t54.5 -21.5t23.5 -53.5q0 -40 -26 -82l-52 -85h-66z" />
    <glyph glyph-name="Lacute.sc" horiz-adv-x="462" 
d="M56 0v522h136v-404h230v-118h-366zM77 585l52 188h154l-104 -188h-102z" />
    <glyph glyph-name="Lcaron.sc" horiz-adv-x="462" 
d="M287 264l38 114q-45 21 -45 73q0 34 24 57t56 23q33 0 57.5 -23t24.5 -56q0 -34 -30 -86l-60 -102h-65zM56 0v522h136v-404h230v-118h-366z" />
    <glyph glyph-name="Lcommaaccent.sc" horiz-adv-x="462" 
d="M56 0v522h136v-404h230v-118h-366zM164 -283l31 97q-41 20 -41 69q0 32 22.5 54t53.5 22t54.5 -21.5t23.5 -53.5q0 -40 -26 -82l-52 -85h-66z" />
    <glyph glyph-name="Lslash.sc" horiz-adv-x="475" 
d="M66 0v156l-56 -24v113l56 24v253h136v-195l128 55v-113l-128 -55v-96h230v-118h-366z" />
    <glyph glyph-name="Nacute.sc" horiz-adv-x="556" 
d="M489 -8l-243 210q-17 15 -36 34.5t-29 31.5l-10 12q10 -67 10 -110v-170h-125v529h11l241 -208q46 -40 75 -79q-1 1 -2.5 19t-3.5 45.5t-2 46.5v169h125v-530h-11zM225 585l52 188h154l-104 -188h-102z" />
    <glyph glyph-name="Ncaron.sc" horiz-adv-x="556" 
d="M489 -8l-243 210q-17 15 -36 34.5t-29 31.5l-10 12q10 -67 10 -110v-170h-125v529h11l241 -208q46 -40 75 -79q-1 1 -2.5 19t-3.5 45.5t-2 46.5v169h125v-530h-11zM269 566l-159 216h108l56 -65l57 65h108l-159 -216h-11z" />
    <glyph glyph-name="Ncommaaccent.sc" horiz-adv-x="556" 
d="M489 -8l-243 210q-17 15 -36 34.5t-29 31.5l-10 12q10 -67 10 -110v-170h-125v529h11l241 -208q46 -40 75 -79q-1 1 -2.5 19t-3.5 45.5t-2 46.5v169h125v-530h-11zM226 -283l31 97q-41 20 -41 69q0 32 22.5 54t53.5 22t54.5 -21.5t23.5 -53.5q0 -40 -26 -82l-52 -85h-66z
" />
    <glyph glyph-name="Ntilde.sc" horiz-adv-x="556" 
d="M489 -8l-243 210q-17 15 -36 34.5t-29 31.5l-10 12q10 -67 10 -110v-170h-125v529h11l241 -208q46 -40 75 -79q-1 1 -2.5 19t-3.5 45.5t-2 46.5v169h125v-530h-11zM196 591l-91 9q4 68 34.5 104t76.5 36q31 0 63 -20l14.5 -9.5l13 -8.5t10 -5t10.5 -2q25 0 29 45l91 -9
q-4 -68 -34 -104t-77 -36q-31 0 -63 20l-14.5 9.5t-12.5 8.5t-10 5t-11 2q-25 0 -29 -45z" />
    <glyph glyph-name="Oacute.sc" horiz-adv-x="648" 
d="M324 -9q-117 0 -199 76.5t-82 193.5q0 118 82 194t199 76t199 -76t82 -194q0 -117 -82 -193.5t-199 -76.5zM324 111q63 0 102.5 41.5t39.5 108.5q0 66 -39.5 108t-102.5 42t-102.5 -42t-39.5 -108q0 -67 39.5 -108.5t102.5 -41.5zM273 585l52 188h154l-104 -188h-102z
" />
    <glyph glyph-name="Ocircumflex.sc" horiz-adv-x="648" 
d="M324 -9q-117 0 -199 76.5t-82 193.5q0 118 82 194t199 76t199 -76t82 -194q0 -117 -82 -193.5t-199 -76.5zM324 111q63 0 102.5 41.5t39.5 108.5q0 66 -39.5 108t-102.5 42t-102.5 -42t-39.5 -108q0 -67 39.5 -108.5t102.5 -41.5zM158 575l159 216h11l159 -216h-108
l-56 65l-57 -65h-108z" />
    <glyph glyph-name="Odieresis.sc" horiz-adv-x="648" 
d="M324 -9q-117 0 -199 76.5t-82 193.5q0 118 82 194t199 76t199 -76t82 -194q0 -117 -82 -193.5t-199 -76.5zM324 111q63 0 102.5 41.5t39.5 108.5q0 66 -39.5 108t-102.5 42t-102.5 -42t-39.5 -108q0 -67 39.5 -108.5t102.5 -41.5zM428 581q-30 0 -53 22.5t-23 53.5
t23 53.5t53 22.5t53 -22.5t23 -53.5t-23 -53.5t-53 -22.5zM220 581q-30 0 -53 22.5t-23 53.5t23 53.5t53 22.5t53 -22.5t23 -53.5t-23 -53.5t-53 -22.5z" />
    <glyph glyph-name="Ograve.sc" horiz-adv-x="648" 
d="M324 -9q-117 0 -199 76.5t-82 193.5q0 118 82 194t199 76t199 -76t82 -194q0 -117 -82 -193.5t-199 -76.5zM324 111q63 0 102.5 41.5t39.5 108.5q0 66 -39.5 108t-102.5 42t-102.5 -42t-39.5 -108q0 -67 39.5 -108.5t102.5 -41.5zM275 585l-104 188h154l52 -188h-102z
" />
    <glyph glyph-name="Ohungarumlaut.sc" horiz-adv-x="648" 
d="M324 -9q-117 0 -199 76.5t-82 193.5q0 118 82 194t199 76t199 -76t82 -194q0 -117 -82 -193.5t-199 -76.5zM324 111q63 0 102.5 41.5t39.5 108.5q0 66 -39.5 108t-102.5 42t-102.5 -42t-39.5 -108q0 -67 39.5 -108.5t102.5 -41.5zM365 585l51 188h140l-89 -188h-102z
M180 585l51 188h140l-89 -188h-102z" />
    <glyph glyph-name="Omacron.sc" horiz-adv-x="648" 
d="M324 -9q-117 0 -199 76.5t-82 193.5q0 118 82 194t199 76t199 -76t82 -194q0 -117 -82 -193.5t-199 -76.5zM324 111q63 0 102.5 41.5t39.5 108.5q0 66 -39.5 108t-102.5 42t-102.5 -42t-39.5 -108q0 -67 39.5 -108.5t102.5 -41.5zM192 601v99h264v-99h-264z" />
    <glyph glyph-name="Otilde.sc" horiz-adv-x="648" 
d="M324 -9q-117 0 -199 76.5t-82 193.5q0 118 82 194t199 76t199 -76t82 -194q0 -117 -82 -193.5t-199 -76.5zM324 111q63 0 102.5 41.5t39.5 108.5q0 66 -39.5 108t-102.5 42t-102.5 -42t-39.5 -108q0 -67 39.5 -108.5t102.5 -41.5zM244 591l-91 9q4 68 34.5 104t76.5 36
q31 0 63 -20l14.5 -9.5l13 -8.5t10 -5t10.5 -2q25 0 29 45l91 -9q-4 -68 -34 -104t-77 -36q-31 0 -63 20l-14.5 9.5t-12.5 8.5t-10 5t-11 2q-25 0 -29 -45z" />
    <glyph glyph-name="Racute.sc" horiz-adv-x="521" 
d="M56 0v522h203q100 0 158 -45.5t58 -138.5q0 -111 -98 -153l115 -185h-153l-98 164h-49v-164h-136zM192 271h64q79 0 79 67q0 68 -79 68h-64v-135zM191 585l52 188h154l-104 -188h-102z" />
    <glyph glyph-name="Rcaron.sc" horiz-adv-x="521" 
d="M56 0v522h203q100 0 158 -45.5t58 -138.5q0 -111 -98 -153l115 -185h-153l-98 164h-49v-164h-136zM192 271h64q79 0 79 67q0 68 -79 68h-64v-135zM235 566l-159 216h108l56 -65l57 65h108l-159 -216h-11z" />
    <glyph glyph-name="Rcommaaccent.sc" horiz-adv-x="521" 
d="M56 0v522h203q100 0 158 -45.5t58 -138.5q0 -111 -98 -153l115 -185h-153l-98 164h-49v-164h-136zM192 271h64q79 0 79 67q0 68 -79 68h-64v-135zM194 -283l31 97q-41 20 -41 69q0 32 22.5 54t53.5 22t54.5 -21.5t23.5 -53.5q0 -40 -26 -82l-52 -85h-66z" />
    <glyph glyph-name="Sacute.sc" horiz-adv-x="459" 
d="M230 -9q-77 0 -133.5 33t-83.5 88l106 62q39 -68 109 -68q28 0 46 10t18 28t-15 29t-56 28l-22 9q-72 29 -108 67t-36 103q0 68 47.5 109.5t123.5 41.5q58 0 98.5 -20.5t71.5 -69.5l-103 -59q-23 37 -63 37q-20 0 -32.5 -10t-12.5 -27q0 -13 8 -23t17.5 -15t28.5 -13
l22 -9q84 -34 125 -71.5t41 -105.5q0 -73 -52.5 -113.5t-144.5 -40.5zM176 585l52 188h154l-104 -188h-102z" />
    <glyph glyph-name="Scaron.sc" horiz-adv-x="459" 
d="M230 -9q-77 0 -133.5 33t-83.5 88l106 62q39 -68 109 -68q28 0 46 10t18 28t-15 29t-56 28l-22 9q-72 29 -108 67t-36 103q0 68 47.5 109.5t123.5 41.5q58 0 98.5 -20.5t71.5 -69.5l-103 -59q-23 37 -63 37q-20 0 -32.5 -10t-12.5 -27q0 -13 8 -23t17.5 -15t28.5 -13
l22 -9q84 -34 125 -71.5t41 -105.5q0 -73 -52.5 -113.5t-144.5 -40.5zM220 566l-159 216h108l56 -65l57 65h108l-159 -216h-11z" />
    <glyph glyph-name="Scedilla.sc" horiz-adv-x="459" 
d="M239 -240q-83 0 -118 60l64 39q15 -28 43 -28q15 0 25.5 9t10.5 25q0 34 -41 34h-34v95q-62 8 -108 39.5t-68 78.5l106 62q39 -68 109 -68q28 0 46 10t18 28t-15 29t-56 28l-22 9q-72 29 -108 67t-36 103q0 68 47.5 109.5t123.5 41.5q58 0 98.5 -20.5t71.5 -69.5
l-103 -59q-23 37 -63 37q-20 0 -32.5 -10t-12.5 -27q0 -13 8 -23t17.5 -15t28.5 -13l22 -9q84 -34 125 -71.5t41 -105.5q0 -67 -44.5 -107t-124.5 -46v-31q38 -7 63.5 -33.5t25.5 -70.5q0 -43 -32.5 -70t-75.5 -27z" />
    <glyph glyph-name="Scircumflex.sc" horiz-adv-x="459" 
d="M230 -9q-77 0 -133.5 33t-83.5 88l106 62q39 -68 109 -68q28 0 46 10t18 28t-15 29t-56 28l-22 9q-72 29 -108 67t-36 103q0 68 47.5 109.5t123.5 41.5q58 0 98.5 -20.5t71.5 -69.5l-103 -59q-23 37 -63 37q-20 0 -32.5 -10t-12.5 -27q0 -13 8 -23t17.5 -15t28.5 -13
l22 -9q84 -34 125 -71.5t41 -105.5q0 -73 -52.5 -113.5t-144.5 -40.5zM61 575l159 216h11l159 -216h-108l-56 65l-57 -65h-108z" />
    <glyph glyph-name="Scommaaccent.sc" horiz-adv-x="459" 
d="M230 -9q-77 0 -133.5 33t-83.5 88l106 62q39 -68 109 -68q28 0 46 10t18 28t-15 29t-56 28l-22 9q-72 29 -108 67t-36 103q0 68 47.5 109.5t123.5 41.5q58 0 98.5 -20.5t71.5 -69.5l-103 -59q-23 37 -63 37q-20 0 -32.5 -10t-12.5 -27q0 -13 8 -23t17.5 -15t28.5 -13
l22 -9q84 -34 125 -71.5t41 -105.5q0 -73 -52.5 -113.5t-144.5 -40.5zM160 -283l31 97q-41 20 -41 69q0 32 22.5 54t53.5 22t54.5 -21.5t23.5 -53.5q0 -40 -26 -82l-52 -85h-66z" />
    <glyph glyph-name="Tcaron.sc" horiz-adv-x="505" 
d="M184 0v404h-148v118h433v-118h-148v-404h-137zM245 566l-159 216h108l56 -65l57 65h108l-159 -216h-11z" />
    <glyph glyph-name="uni021A.sc" horiz-adv-x="505" 
d="M184 0v404h-148v118h433v-118h-148v-404h-38v-39q38 -7 63.5 -33.5t25.5 -70.5q0 -43 -32.5 -70t-75.5 -27q-83 0 -118 60l64 39q15 -28 43 -28q15 0 25.5 9t10.5 25q0 34 -41 34h-34v101h-30z" />
    <glyph glyph-name="Tcommaaccent.sc" horiz-adv-x="505" 
d="M184 0v404h-148v118h433v-118h-148v-404h-137zM185 -283l31 97q-41 20 -41 69q0 32 22.5 54t53.5 22t54.5 -21.5t23.5 -53.5q0 -40 -26 -82l-52 -85h-66z" />
    <glyph glyph-name="Thorn.sc" horiz-adv-x="505" 
d="M56 0v522h136v-72h62q100 0 158 -44.5t58 -136.5q0 -91 -58 -136.5t-158 -45.5h-62v-87h-136zM192 202h59q79 0 79 67q0 65 -79 65h-59v-132z" />
    <glyph glyph-name="Uacute.sc" horiz-adv-x="556" 
d="M279 -9q-103 0 -164.5 56t-61.5 159v316h136v-314q0 -96 89 -96t89 96v314h136v-316q0 -103 -61.5 -159t-162.5 -56zM227 585l52 188h154l-104 -188h-102z" />
    <glyph glyph-name="Ubreve.sc" horiz-adv-x="556" 
d="M279 -9q-103 0 -164.5 56t-61.5 159v316h136v-314q0 -96 89 -96t89 96v314h136v-316q0 -103 -61.5 -159t-162.5 -56zM278 580q-70 0 -113 39t-49 101l103 15q8 -57 59 -57t59 57l103 -15q-6 -62 -49 -101t-113 -39z" />
    <glyph glyph-name="Ucircumflex.sc" horiz-adv-x="556" 
d="M279 -9q-103 0 -164.5 56t-61.5 159v316h136v-314q0 -96 89 -96t89 96v314h136v-316q0 -103 -61.5 -159t-162.5 -56zM112 575l159 216h11l159 -216h-108l-56 65l-57 -65h-108z" />
    <glyph glyph-name="Udieresis.sc" horiz-adv-x="556" 
d="M279 -9q-103 0 -164.5 56t-61.5 159v316h136v-314q0 -96 89 -96t89 96v314h136v-316q0 -103 -61.5 -159t-162.5 -56zM382 581q-30 0 -53 22.5t-23 53.5t23 53.5t53 22.5t53 -22.5t23 -53.5t-23 -53.5t-53 -22.5zM174 581q-30 0 -53 22.5t-23 53.5t23 53.5t53 22.5
t53 -22.5t23 -53.5t-23 -53.5t-53 -22.5z" />
    <glyph glyph-name="Ugrave.sc" horiz-adv-x="556" 
d="M279 -9q-103 0 -164.5 56t-61.5 159v316h136v-314q0 -96 89 -96t89 96v314h136v-316q0 -103 -61.5 -159t-162.5 -56zM229 585l-104 188h154l52 -188h-102z" />
    <glyph glyph-name="Uhungarumlaut.sc" horiz-adv-x="556" 
d="M279 -9q-103 0 -164.5 56t-61.5 159v316h136v-314q0 -96 89 -96t89 96v314h136v-316q0 -103 -61.5 -159t-162.5 -56zM319 585l51 188h140l-89 -188h-102zM134 585l51 188h140l-89 -188h-102z" />
    <glyph glyph-name="Umacron.sc" horiz-adv-x="556" 
d="M279 -9q-103 0 -164.5 56t-61.5 159v316h136v-314q0 -96 89 -96t89 96v314h136v-316q0 -103 -61.5 -159t-162.5 -56zM146 601v99h264v-99h-264z" />
    <glyph glyph-name="Uogonek.sc" horiz-adv-x="556" 
d="M248 -8q-90 8 -142.5 63.5t-52.5 150.5v316h136v-314q0 -96 89 -96t89 96v314h136v-316q0 -89 -46.5 -143t-126.5 -68l-38 -64q-26 -44 -26 -68q0 -29 28 -29q24 0 41 26l66 -38q-36 -62 -115 -62q-46 0 -76.5 26t-30.5 75q0 44 40 94z" />
    <glyph glyph-name="Uring.sc" horiz-adv-x="556" 
d="M279 -9q-103 0 -164.5 56t-61.5 159v316h136v-314q0 -96 89 -96t89 96v314h136v-316q0 -103 -61.5 -159t-162.5 -56zM278 549q-54 0 -91.5 35t-37.5 84t37.5 84t91.5 35t91.5 -35t37.5 -84t-37.5 -84t-91.5 -35zM278 623q19 0 31 12t12 33t-12 33t-31 12t-31 -12t-12 -33
t12 -33t31 -12z" />
    <glyph glyph-name="Yacute.sc" horiz-adv-x="521" 
d="M196 0v191l-181 331h155l50 -100q12 -24 24 -56.5t18 -53.5l6 -21q21 80 47 131l47 100h144l-174 -329v-193h-136zM218 585l52 188h154l-104 -188h-102z" />
    <glyph glyph-name="Ydieresis.sc" horiz-adv-x="521" 
d="M196 0v191l-181 331h155l50 -100q24 -47 48 -131q20 78 47 131l47 100h144l-174 -329v-193h-136zM165 581q-30 0 -53 22.5t-23 53.5t23 53.5t53 22.5t53 -22.5t23 -53.5t-23 -53.5t-53 -22.5zM373 581q-30 0 -53 22.5t-23 53.5t23 53.5t53 22.5t53 -22.5t23 -53.5
t-23 -53.5t-53 -22.5z" />
    <glyph glyph-name="Zacute.sc" horiz-adv-x="496" 
d="M32 0v11l223 394h-184v117h391v-11l-223 -394h207v-117h-414zM208 585l52 188h154l-104 -188h-102z" />
    <glyph glyph-name="Zcaron.sc" horiz-adv-x="496" 
d="M32 0v11l223 394h-184v117h391v-11l-223 -394h207v-117h-414zM252 566l-159 216h108l56 -65l57 65h108l-159 -216h-11z" />
    <glyph glyph-name="Zdotaccent.sc" horiz-adv-x="496" 
d="M32 0v11l223 394h-184v117h391v-11l-223 -394h207v-117h-414zM260 572q-35 0 -60.5 24t-25.5 61q0 36 25.5 60t60.5 24t60 -24t25 -60q0 -37 -25 -61t-60 -24z" />
    <glyph glyph-name="space.sc" horiz-adv-x="221" 
 />
    <glyph glyph-name="dollar.sc" horiz-adv-x="502" 
d="M218 -7q-147 13 -204 122l99 56q36 -62 105 -73v115q-174 41 -174 163q0 61 44 105t130 49v101h67v-103q97 -15 153 -88l-87 -66q-22 35 -66 49v-100q186 -43 186 -168q0 -153 -186 -163v-108h-67v109zM285 96q61 7 61 45q0 40 -61 57v-102zM218 429q-52 -5 -52 -42
q0 -18 10 -29t42 -19v90z" />
    <glyph glyph-name="cent.sc" horiz-adv-x="444" 
d="M221 -116v109q-81 11 -133 65.5t-52 132.5q0 79 52 134t133 65v100h67v-100q87 -11 134 -73l-87 -75q-19 28 -47 36v-174q29 7 53 33l84 -77q-54 -59 -137 -67v-109h-67zM221 107v169q-52 -20 -52 -85t52 -84z" />
    <glyph glyph-name="Euro.sc" horiz-adv-x="532" 
d="M317 -9q-83 0 -143 45.5t-85 123.5h-64v81h49q-1 11 -1 35h-48v81h61q25 80 86 127t144 47q127 0 192 -98l-98 -74q-37 56 -93 56q-63 0 -90 -58h122v-81h-139q0 -25 1 -35h138v-81h-120q25 -53 89 -53q61 0 99 66l104 -63q-64 -119 -204 -119z" />
    <glyph glyph-name="sterling.sc" horiz-adv-x="539" 
d="M170 213h-96v88h51q-15 38 -15 73q0 70 48.5 113.5t135.5 43.5q124 0 187 -99l-108 -65q-26 48 -71 48q-24 0 -38.5 -13.5t-14.5 -39.5q0 -19 17 -61h149v-88h-113q9 -29 9 -61q0 -9 -2 -27q36 -13 67 -13q44 0 75 38l81 -87q-31 -40 -65 -56t-85 -16q-60 0 -120 43
q-48 -43 -123 -43q-50 0 -81 27t-31 69t29 69t76 27q25 0 54 -8q-3 10 -16 38zM184 94q-23 15 -43 15q-28 0 -28 -22t28 -22q29 0 43 29z" />
    <glyph glyph-name="yen.sc" horiz-adv-x="557" 
d="M212 0v73h-152v87h152v11l-13 24h-139v87h91l-33 60l-65 120l-33 60h153l61 -124q12 -24 24 -58.5t18 -57.5l6 -23q26 88 52 139l62 124h141l-130 -240h93v-87h-140l-12 -23v-12h152v-87h-152v-73h-136z" />
    <glyph glyph-name="florin.sc" horiz-adv-x="418" 
d="M61 -94l32 280h-60v103h72l8 74q19 168 167 168q82 0 127 -61l-80 -77q-15 24 -39 24q-36 0 -42 -43l-10 -85h96v-103h-108l-31 -280h-132z" />
    <glyph glyph-name="zero.sc" horiz-adv-x="572" 
d="M286 -9q-105 0 -177 75.5t-72 194.5t71.5 194.5t177.5 75.5t177.5 -75.5t71.5 -194.5t-72 -194.5t-177 -75.5zM286 111q51 0 79.5 39t28.5 111t-28.5 111t-79.5 39t-79.5 -39t-28.5 -111t28.5 -111t79.5 -39z" />
    <glyph glyph-name="one.sc" horiz-adv-x="339" 
d="M141 0v404h-105v118h241v-522h-136z" />
    <glyph glyph-name="two.sc" horiz-adv-x="471" 
d="M12 0v11l212 220q71 74 71 122q0 25 -15.5 40t-44.5 15q-55 0 -85 -75l-123 34q20 77 76 120.5t137 43.5q88 0 141 -48t53 -124q0 -78 -93 -176l-32 -34q-7 -8 -19 -17t-20 -14l-8 -6q32 4 57 4h115v-116h-422z" />
    <glyph glyph-name="three.sc" horiz-adv-x="488" 
d="M239 -9q-81 0 -138 35.5t-83 96.5l116 54q29 -65 100 -65q35 0 56.5 19.5t21.5 50.5q0 32 -23.5 53t-65.5 21t-77 -14l-6 9l73 108q6 9 18 22t21 21l9 9q-52 -7 -78 -7h-120v118h384v-11l-84 -123q-9 -13 -20.5 -24t-18.5 -16l-7 -5q59 -13 97 -57.5t38 -112.5
q0 -87 -62 -134.5t-151 -47.5z" />
    <glyph glyph-name="four.sc" horiz-adv-x="531" 
d="M282 0v65h-248v105l374 357h11v-355h74v-107h-74v-65h-137zM156 162q35 5 65 5h66v51q0 63 5 73l-8 -11l-19.5 -23.5t-20.5 -21.5l-36 -33z" />
    <glyph glyph-name="five.sc" horiz-adv-x="477" 
d="M233 -9q-79 0 -134 35t-81 84l113 62q33 -60 95 -60q33 0 54.5 18t21.5 47q0 33 -25 51t-72 18q-71 0 -131 -40l-8 4v312h335v-117h-220v-67q21 9 57 9q95 0 149 -46.5t54 -126.5q0 -83 -57 -133t-151 -50z" />
    <glyph glyph-name="six.sc" horiz-adv-x="501" 
d="M252 -9q-93 0 -153 56t-60 137q0 66 55 148l129 190h153l-74 -107q-7 -10 -17 -20.5l-17 -17.5l-14 -14l-8 -7q17 5 35 5q78 0 131.5 -49.5t53.5 -128.5q0 -81 -60 -136.5t-154 -55.5zM251 110q38 0 57 22t19 53q0 33 -18.5 54t-57.5 21q-36 0 -56.5 -21.5t-20.5 -53.5
q0 -30 21 -52.5t56 -22.5z" />
    <glyph glyph-name="seven.sc" horiz-adv-x="487" 
d="M74 0l195 404h-231v118h427v-11l-245 -511h-146z" />
    <glyph glyph-name="eight.sc" horiz-adv-x="492" 
d="M247 -9q-92 0 -153 46t-61 119q0 88 93 128q-64 35 -64 102q0 63 49 104t136 41q89 0 136.5 -41t47.5 -104q0 -68 -63 -102q91 -40 91 -128q0 -74 -60 -119.5t-152 -45.5zM247 107q34 0 55 17t21 47q0 31 -21 49.5t-55 18.5q-35 0 -56.5 -18.5t-21.5 -49.5q0 -30 21 -47
t57 -17zM249 330q23 0 38 13.5t15 36.5t-16 36t-40 13q-25 0 -40 -13t-15 -36t16.5 -36.5t41.5 -13.5z" />
    <glyph glyph-name="nine.sc" horiz-adv-x="503" 
d="M114 0l83 107q14 19 32 36.5t25 21.5q-12 -4 -32 -4q-79 0 -133 49.5t-54 128.5q0 80 61 136t155 56q93 0 153 -56t60 -137q0 -75 -60 -154l-139 -184h-151zM252 262q36 0 56.5 21.5t20.5 53.5q0 30 -21 52.5t-56 22.5q-38 0 -58 -22t-20 -53q0 -32 19.5 -53.5
t58.5 -21.5z" />
    <glyph glyph-name="percent.sc" horiz-adv-x="855" 
d="M189 217q-69 0 -116.5 44.5t-47.5 112.5q0 67 48 112t116 45t115.5 -45t47.5 -112q0 -68 -47.5 -112.5t-115.5 -44.5zM196 0l330 522h133l-330 -522h-133zM667 -9q-69 0 -116.5 44.5t-47.5 112.5q0 67 48 112t116 45t115.5 -45t47.5 -112q0 -68 -47.5 -112.5
t-115.5 -44.5zM189 318q21 0 36.5 15.5t15.5 40.5t-15.5 40.5t-36.5 15.5t-36.5 -15.5t-15.5 -40.5t15.5 -40.5t36.5 -15.5zM667 92q21 0 36.5 15.5t15.5 40.5t-15.5 40.5t-36.5 15.5t-36.5 -15.5t-15.5 -40.5t15.5 -40.5t36.5 -15.5z" />
    <glyph glyph-name="perthousand.sc" horiz-adv-x="1224" 
d="M189 217q-69 0 -116.5 44.5t-47.5 112.5q0 67 48 112t116 45t115.5 -45t47.5 -112q0 -68 -47.5 -112.5t-115.5 -44.5zM196 0l330 522h133l-330 -522h-133zM1036 -9q-69 0 -116.5 44.5t-47.5 112.5q0 67 48 112t116 45t115.5 -45t47.5 -112q0 -68 -47.5 -112.5
t-115.5 -44.5zM667 -9q-69 0 -116.5 44.5t-47.5 112.5q0 67 48 112t116 45t115.5 -45t47.5 -112q0 -68 -47.5 -112.5t-115.5 -44.5zM189 318q21 0 36.5 15.5t15.5 40.5t-15.5 40.5t-36.5 15.5t-36.5 -15.5t-15.5 -40.5t15.5 -40.5t36.5 -15.5zM1036 92q21 0 36.5 15.5
t15.5 40.5t-15.5 40.5t-36.5 15.5t-36.5 -15.5t-15.5 -40.5t15.5 -40.5t36.5 -15.5zM667 92q21 0 36.5 15.5t15.5 40.5t-15.5 40.5t-36.5 15.5t-36.5 -15.5t-15.5 -40.5t15.5 -40.5t36.5 -15.5z" />
    <glyph glyph-name="plus.sc" horiz-adv-x="411" 
d="M145 97v110h-106v118h106v110h121v-110h106v-118h-106v-110h-121z" />
    <glyph glyph-name="minus.sc" horiz-adv-x="411" 
d="M372 207h-333v118h333v-118z" />
    <glyph glyph-name="multiply.sc" horiz-adv-x="408" 
d="M204 184l-89 -89l-82 82l89 89l-89 89l82 82l89 -89l89 89l82 -82l-89 -89l89 -89l-82 -82z" />
    <glyph glyph-name="divide.sc" horiz-adv-x="411" 
d="M372 207h-333v118h333v-118zM206 360q-34 0 -57.5 23t-23.5 58t23.5 57.5t57.5 22.5q33 0 56.5 -22.5t23.5 -57.5t-23.5 -58t-56.5 -23zM206 11q-34 0 -57.5 23t-23.5 58t23.5 57.5t57.5 22.5q33 0 56.5 -22.5t23.5 -57.5t-23.5 -58t-56.5 -23z" />
    <glyph glyph-name="equal.sc" horiz-adv-x="405" 
d="M36 279v115h333v-115h-333zM36 115v115h333v-115h-333z" />
    <glyph glyph-name="less.sc" horiz-adv-x="358" 
d="M321 72l-298 167v10l298 165v-117l-107 -54l107 -54v-117z" />
    <glyph glyph-name="greater.sc" horiz-adv-x="358" 
d="M37 72v117l107 54l-107 54v117l298 -167v-10z" />
    <glyph glyph-name="degree.sc" horiz-adv-x="332" 
d="M166 268q-57 0 -98.5 38.5t-41.5 93.5q0 56 41 93.5t99 37.5t99 -37.5t41 -93.5q0 -55 -41 -93.5t-99 -38.5zM166 348q22 0 36 14.5t14 37.5t-14 37t-36 14t-36 -14t-14 -37t14 -37.5t36 -14.5z" />
    <glyph glyph-name="period.sc" horiz-adv-x="249" 
d="M125 -6q-35 0 -60 24t-25 61q0 36 25 60t60 24q34 0 59 -24t25 -60q0 -37 -24.5 -61t-59.5 -24z" />
    <glyph glyph-name="comma.sc" horiz-adv-x="249" 
d="M52 -115l38 120q-50 23 -50 76q0 35 25 58.5t60 23.5q34 0 59 -24t25 -60q0 -31 -30 -85l-59 -109h-68z" />
    <glyph glyph-name="colon.sc" horiz-adv-x="259" 
d="M130 224q-35 0 -60 24t-25 61q0 36 25 60t60 24q34 0 59 -24t25 -60q0 -37 -24.5 -61t-59.5 -24zM130 -6q-35 0 -60 24t-25 61q0 36 25 60t60 24q34 0 59 -24t25 -60q0 -37 -24.5 -61t-59.5 -24z" />
    <glyph glyph-name="semicolon.sc" horiz-adv-x="259" 
d="M130 224q-35 0 -60 24t-25 61q0 36 25 60t60 24q34 0 59 -24t25 -60q0 -37 -24.5 -61t-59.5 -24zM57 -115l38 120q-50 23 -50 76q0 35 25 58.5t60 23.5q34 0 59 -24t25 -60q0 -31 -30 -85l-59 -109h-68z" />
    <glyph glyph-name="parenleft.sc" horiz-adv-x="344" 
d="M238 -67q-39 38 -67.5 72.5t-59 84.5t-46.5 112.5t-16 133.5t16 133t46.5 112t59 85t67.5 73l81 -65q-64 -78 -96 -156.5t-32 -181.5t32 -181.5t96 -156.5z" />
    <glyph glyph-name="parenright.sc" horiz-adv-x="344" 
d="M106 -67l-81 65q64 78 96 156.5t32 181.5t-32 181.5t-96 156.5l81 65q39 -38 67.5 -73t59 -85t46.5 -112t16 -133t-16 -133.5t-46.5 -112.5t-59 -84.5t-67.5 -72.5z" />
    <glyph glyph-name="bracketleft.sc" horiz-adv-x="337" 
d="M60 -62v794h247v-114h-112v-566h112v-114h-247z" />
    <glyph glyph-name="bracketright.sc" horiz-adv-x="337" 
d="M30 -62v114h112v566h-112v114h247v-794h-247z" />
    <glyph glyph-name="braceleft.sc" horiz-adv-x="414" 
d="M299 -62q-158 0 -158 144v125q0 35 -13.5 50.5t-43.5 15.5h-58v114h58q30 0 43.5 15.5t13.5 50.5v135q0 144 158 144h85v-114h-73q-20 0 -27 -8t-7 -26v-148q0 -51 -24 -75t-69 -31q45 -7 69 -31t24 -75v-138q0 -18 7 -26t27 -8h73v-114h-85z" />
    <glyph glyph-name="braceright.sc" horiz-adv-x="414" 
d="M30 -62v114h73q20 0 27 8t7 26v138q0 51 24 75t69 31q-45 7 -69 31t-24 75v148q0 18 -7 26t-27 8h-73v114h85q158 0 158 -144v-135q0 -35 13.5 -50.5t43.5 -15.5h58v-114h-58q-30 0 -43.5 -15.5t-13.5 -50.5v-125q0 -144 -158 -144h-85z" />
    <glyph glyph-name="slash.sc" horiz-adv-x="404" 
d="M-16 -128l279 850h132l-279 -850h-132z" />
    <glyph glyph-name="section.sc" horiz-adv-x="486" 
d="M108 290q-42 39 -42 100q0 62 49 101.5t127 39.5q113 0 168 -78l-99 -65q-23 34 -67 34q-42 0 -42 -30q0 -21 28 -32l121 -46q104 -40 104 -133q0 -59 -72 -94q42 -39 42 -89q0 -69 -51 -107t-136 -38q-74 0 -127 25.5t-80 65.5l102 71q40 -52 97 -52q54 0 54 29
q0 19 -27 30l-125 48q-100 39 -100 117q0 73 76 103zM301 133q30 9 30 35q0 25 -35 38l-117 45q-27 -9 -27 -32q0 -29 36 -42z" />
    <glyph glyph-name="numbersign.sc" horiz-adv-x="526" 
d="M61 142l25 101h-54v102h79l19 75h-54v102h79l25 97h105l-25 -97h75l25 97h105l-24 -97h53v-102h-78l-19 -75h53v-102h-79l-25 -101h-105l25 101h-75l-25 -101h-105zM217 345h75l19 75h-75z" />
    <glyph glyph-name="summation.sc" horiz-adv-x="510" 
d="M29 0v11l196 251l-199 249v11h427v-117h-128l-67 4q27 -28 45 -52l67 -90v-9l-70 -95q-8 -11 -19.5 -23.5t-18.5 -19.5l-7 -7q37 4 67 4h143v-117h-436z" />
    <glyph glyph-name="G.scalt" horiz-adv-x="621" 
d="M321 -9q-116 0 -197 76t-81 194q0 116 81 193t198 77q148 0 221 -109l-107 -73q-38 62 -116 62q-60 0 -99 -42.5t-39 -107.5q0 -66 38.5 -109t100.5 -43q103 0 126 76h-113v108h249q12 -135 -58.5 -218.5t-203.5 -83.5z" />
    <glyph glyph-name="M.scalt" horiz-adv-x="653" 
d="M47 0l46 527h11l180 -217q9 -10 19.5 -25.5t16.5 -26.5l6 -10q24 38 44 62l179 217h11l46 -527h-132l-11 148q-4 51 -4 101q-23 -47 -55 -85l-73 -88h-10l-74 87q-40 46 -60 86q0 -90 -1 -103l-11 -146h-128z" />
    <glyph glyph-name="Q.scalt1" horiz-adv-x="648" 
d="M384 -1v-112h-120v112q-96 18 -158.5 89.5t-62.5 172.5q0 118 82 194t199 76t199 -76t82 -194q0 -101 -62.5 -172.5t-158.5 -89.5zM264 117v85h120v-85q82 34 82 144q0 66 -39.5 108t-102.5 42t-102.5 -42t-39.5 -108q0 -110 82 -144z" />
    <glyph glyph-name="Q.scalt2" horiz-adv-x="648" 
d="M397 0q32 -27 64 -27q39 0 68 33l82 -80q-52 -71 -148 -71q-56 0 -102.5 29t-100.5 84q-24 25 -43 35.5t-44 10.5q-40 0 -77 -48l-84 82q32 43 79 59q-48 67 -48 154q0 118 82 194t199 76t199 -76t82 -194q0 -97 -58.5 -168t-149.5 -93zM324 111q63 0 102.5 41.5
t39.5 108.5q0 66 -39.5 108t-102.5 42t-102.5 -42t-39.5 -108q0 -67 39.5 -108.5t102.5 -41.5z" />
    <glyph glyph-name="Gbreve.scalt" horiz-adv-x="621" 
d="M321 -9q-116 0 -197 76t-81 194q0 116 81 193t198 77q148 0 221 -109l-107 -73q-38 62 -116 62q-60 0 -99 -42.5t-39 -107.5q0 -66 38.5 -109t100.5 -43q103 0 126 76h-113v108h249q12 -135 -58.5 -218.5t-203.5 -83.5zM311 580q-70 0 -113 39t-49 101l103 15
q8 -57 59 -57t59 57l103 -15q-6 -62 -49 -101t-113 -39z" />
    <glyph glyph-name="Gcircumflex.scalt" horiz-adv-x="621" 
d="M321 -9q-116 0 -197 76t-81 194q0 116 81 193t198 77q148 0 221 -109l-107 -73q-38 62 -116 62q-60 0 -99 -42.5t-39 -107.5q0 -66 38.5 -109t100.5 -43q103 0 126 76h-113v108h249q12 -135 -58.5 -218.5t-203.5 -83.5zM145 575l159 216h11l159 -216h-108l-56 65l-57 -65
h-108z" />
    <glyph glyph-name="Gcommaaccent.scalt" horiz-adv-x="621" 
d="M321 -9q-116 0 -197 76t-81 194q0 116 81 193t198 77q148 0 221 -109l-107 -73q-38 62 -116 62q-60 0 -99 -42.5t-39 -107.5q0 -66 38.5 -109t100.5 -43q103 0 126 76h-113v108h249q12 -135 -58.5 -218.5t-203.5 -83.5zM244 -283l31 97q-41 20 -41 69q0 32 22.5 54
t53.5 22t54.5 -21.5t23.5 -53.5q0 -40 -26 -82l-52 -85h-66z" />
    <glyph glyph-name="Gdotaccent.scalt" horiz-adv-x="621" 
d="M321 -9q-116 0 -197 76t-81 194q0 116 81 193t198 77q148 0 221 -109l-107 -73q-38 62 -116 62q-60 0 -99 -42.5t-39 -107.5q0 -66 38.5 -109t100.5 -43q103 0 126 76h-113v108h249q12 -135 -58.5 -218.5t-203.5 -83.5zM312 582q-35 0 -60.5 24t-25.5 61q0 36 25.5 60
t60.5 24t60 -24t25 -60q0 -37 -25 -61t-60 -24z" />
    <glyph glyph-name="space.sctab" horiz-adv-x="200" 
 />
    <glyph glyph-name="dollar.sctab" 
d="M218 -7q-132 11 -192 122l99 56q19 -33 39 -50.5t54 -23.5v117q-90 28 -127.5 67.5t-37.5 100.5t42 101.5t123 46.5v101h67v-103q88 -13 144 -88l-87 -66q-26 38 -57 49v-100q172 -53 172 -175q0 -145 -172 -156v-108h-67v109zM285 97q47 8 47 44t-47 53v-97zM218 429
q-43 -7 -43 -38q0 -18 9.5 -29t33.5 -20v87z" />
    <glyph glyph-name="cent.sctab" 
d="M316 -7v-109h-67v109q-81 11 -133 65.5t-52 132.5q0 79 52 134t133 65v100h67v-100q87 -11 134 -73l-87 -75q-19 28 -47 36v-174q29 7 53 33l84 -77q-54 -59 -137 -67zM249 107v169q-52 -20 -52 -85t52 -84z" />
    <glyph glyph-name="Euro.sctab" 
d="M301 -9q-80 0 -138.5 45.5t-82.5 123.5h-60v81h45v35h-45v81h57q24 81 82 127.5t139 46.5q121 0 184 -93l-93 -71q-18 27 -38 38.5t-51 11.5q-61 0 -85 -60h116v-81h-130v-35h130v-81h-115q23 -54 86 -54q54 0 89 61l102 -62q-63 -114 -192 -114z" />
    <glyph glyph-name="sterling.sctab" 
d="M152 213h-93v88h48q-15 38 -15 73q0 70 49 113.5t137 43.5q134 0 183 -97l-108 -65q-23 46 -68 46q-50 0 -50 -53q0 -20 15 -61h134v-88h-101q8 -30 8 -61q0 -10 -2 -28q33 -12 60 -12q36 0 62 29l81 -87q-28 -34 -58.5 -48.5t-74.5 -14.5q-57 0 -116 44
q-46 -44 -112 -44q-51 0 -82.5 27t-31.5 69t27.5 69t72.5 27q22 0 50 -7q-6 18 -15 37zM168 96q-20 14 -40 14q-27 0 -27 -20q0 -10 7.5 -18t19.5 -8q28 0 40 32z" />
    <glyph glyph-name="yen.sctab" 
d="M38 73v87h145v21l-7 14h-138v87h94l-121 240h153l60 -134q22 -50 30 -108q13 66 32 108l61 134h141l-119 -240h95v-87h-138l-7 -14v-21h145v-87h-145v-73h-136v73h-145z" />
    <glyph glyph-name="florin.sctab" 
d="M137 186h-77v103h88l8 65q10 86 55.5 131.5t120.5 45.5q103 0 152 -81l-90 -69q-21 36 -55 36q-44 0 -51 -60l-8 -68h115v-103h-127l-31 -280h-132z" />
    <glyph glyph-name="zero.sctab" 
d="M250 -9q-100 0 -162 74.5t-62 196.5q0 123 62 196t162 73q101 0 162.5 -73t61.5 -196q0 -122 -62 -196.5t-162 -74.5zM250 111q81 0 81 151q0 149 -81 149t-81 -149q0 -151 81 -151z" />
    <glyph glyph-name="one.sctab" 
d="M191 112v298h-108v112h245v-410h107v-112h-360v112h116z" />
    <glyph glyph-name="two.sctab" 
d="M22 0v11l210 220q68 71 68 122q0 25 -14.5 40t-42.5 15q-53 0 -83 -75l-123 34q20 77 75 120.5t136 43.5q87 0 139 -47.5t52 -124.5q0 -81 -90 -176l-32 -34q-7 -8 -19 -17t-20 -14l-8 -6q32 4 57 4h112v-116h-417z" />
    <glyph glyph-name="three.sctab" 
d="M244 -9q-161 0 -217 132l116 54q14 -31 35.5 -48t60.5 -17q36 0 56.5 19.5t20.5 50.5q0 32 -22.5 53t-63.5 21q-42 0 -74 -13l-6 9l72 107q7 10 19 23t21 21l8 8q-50 -7 -76 -7h-118v118h380v-11l-84 -123q-9 -13 -20.5 -24t-18.5 -16l-7 -5q59 -15 94.5 -58.5
t35.5 -111.5q0 -88 -60.5 -135t-151.5 -47z" />
    <glyph glyph-name="four.sctab" 
d="M401 172h64v-107h-64v-65h-130v65h-244v105l363 357h11v-355zM277 166v59l5 63q-25 -32 -42 -48l-46 -43q-9 -8 -21 -17t-20 -14l-8 -5q33 5 60 5h72z" />
    <glyph glyph-name="five.sctab" 
d="M246 -9q-78 0 -133.5 35t-81.5 84l113 62q33 -60 95 -60q33 0 54.5 18t21.5 47q0 33 -25 51t-72 18q-72 0 -131 -39l-8 4v311h334v-117h-219v-67q21 9 57 9q95 0 149 -46.5t54 -126.5q0 -83 -57 -133t-151 -50z" />
    <glyph glyph-name="six.sctab" 
d="M249 -9q-93 0 -153 56t-60 137q0 66 55 148l129 190h153l-74 -107q-7 -11 -56 -59q17 5 35 5q78 0 131.5 -49.5t53.5 -128.5q0 -81 -60 -136.5t-154 -55.5zM248 110q38 0 57 22t19 53q0 33 -18.5 54t-57.5 21q-36 0 -56.5 -21.5t-20.5 -53.5q0 -30 21 -52.5t56 -22.5z
" />
    <glyph glyph-name="seven.sctab" 
d="M79 0l192 404h-230v118h427v-11l-241 -511h-148z" />
    <glyph glyph-name="eight.sctab" 
d="M250 -9q-89 0 -148.5 46t-59.5 119q0 87 91 128q-64 35 -64 102q0 62 48.5 103.5t132.5 41.5q85 0 132.5 -41t47.5 -104q0 -69 -63 -102q89 -40 89 -128q0 -73 -58.5 -119t-147.5 -46zM250 107q31 0 50.5 17t19.5 47q0 31 -19.5 49.5t-50.5 18.5q-33 0 -52.5 -18.5
t-19.5 -49.5q0 -30 19.5 -47t52.5 -17zM252 330q22 0 35.5 13t13.5 36t-15 36.5t-37 13.5q-23 0 -37 -13t-14 -37q0 -23 15.5 -36t38.5 -13z" />
    <glyph glyph-name="nine.sctab" 
d="M114 0l83 107q14 19 32 36.5t25 21.5q-12 -4 -32 -4q-79 0 -133 49.5t-54 128.5q0 80 61 136t155 56q93 0 153 -56t60 -137q0 -75 -60 -154l-139 -184h-151zM252 262q36 0 56.5 21.5t20.5 53.5q0 30 -21 52.5t-56 22.5q-38 0 -58 -22t-20 -53q0 -32 19.5 -53.5
t58.5 -21.5z" />
    <glyph glyph-name="percent.sctab" horiz-adv-x="750" 
d="M160 217q-63 0 -104.5 44t-41.5 113q0 68 41.5 112.5t104.5 44.5q62 0 103.5 -44.5t41.5 -112.5t-41.5 -112.5t-103.5 -44.5zM143 0l330 522h133l-330 -522h-133zM591 -9q-63 0 -104.5 44t-41.5 113q0 68 41.5 112.5t104.5 44.5q62 0 103.5 -44.5t41.5 -112.5
t-41.5 -112.5t-103.5 -44.5zM160 314q40 0 40 60t-40 60t-40 -60t40 -60zM591 88q40 0 40 60t-40 60t-40 -60t40 -60z" />
    <glyph glyph-name="perthousand.sctab" horiz-adv-x="1100" 
d="M167 217q-63 0 -104.5 44t-41.5 113q0 68 41.5 112.5t104.5 44.5q62 0 103.5 -44.5t41.5 -112.5t-41.5 -112.5t-103.5 -44.5zM154 0l330 522h133l-330 -522h-133zM934 -9q-63 0 -104.5 44t-41.5 113q0 68 41.5 112.5t104.5 44.5q62 0 103.5 -44.5t41.5 -112.5
t-41.5 -112.5t-103.5 -44.5zM606 -9q-63 0 -104.5 44t-41.5 113q0 68 41.5 112.5t104.5 44.5q62 0 103.5 -44.5t41.5 -112.5t-41.5 -112.5t-103.5 -44.5zM167 314q40 0 40 60t-40 60t-40 -60t40 -60zM934 88q40 0 40 60t-40 60t-40 -60t40 -60zM606 88q40 0 40 60t-40 60
t-40 -60t40 -60z" />
    <glyph glyph-name="plus.sctab" 
d="M310 207v-130h-121v130h-126v118h126v130h121v-130h126v-118h-126z" />
    <glyph glyph-name="minus.sctab" 
d="M63 207v118h374v-118h-374z" />
    <glyph glyph-name="multiply.sctab" 
d="M250 184l-105 -105l-82 82l105 105l-105 105l82 82l105 -105l105 105l82 -82l-105 -105l105 -105l-82 -82z" />
    <glyph glyph-name="divide.sctab" 
d="M250 360q-34 0 -57.5 23t-23.5 58t23.5 57.5t57.5 22.5q33 0 56.5 -22.5t23.5 -57.5t-23.5 -58t-56.5 -23zM63 207v118h373v-118h-373zM250 11q-34 0 -57.5 23t-23.5 58t23.5 57.5t57.5 22.5q33 0 56.5 -22.5t23.5 -57.5t-23.5 -58t-56.5 -23z" />
    <glyph glyph-name="equal.sctab" 
d="M60 279v115h380v-115h-380zM60 115v115h380v-115h-380z" />
    <glyph glyph-name="less.sctab" 
d="M407 52l-348 187v10l348 185v-117l-147 -74l147 -74v-117z" />
    <glyph glyph-name="greater.sctab" 
d="M93 52v117l147 74l-147 74v117l348 -187v-10z" />
    <glyph glyph-name="degree.sctab" horiz-adv-x="332" 
d="M166 268q-57 0 -98.5 38.5t-41.5 93.5q0 56 41 93.5t99 37.5t99 -37.5t41 -93.5q0 -55 -41 -93.5t-99 -38.5zM166 348q22 0 36 14.5t14 37.5t-14 37t-36 14t-36 -14t-14 -37t14 -37.5t36 -14.5z" />
    <glyph glyph-name="period.sctab" horiz-adv-x="200" 
d="M100 -6q-34 0 -57.5 23t-23.5 58t23.5 57.5t57.5 22.5q33 0 56.5 -22.5t23.5 -57.5t-23.5 -58t-56.5 -23z" />
    <glyph glyph-name="comma.sctab" horiz-adv-x="200" 
d="M29 -115l38 120q-48 22 -48 72q0 33 24 55.5t57 22.5t56.5 -22.5t23.5 -57.5q0 -27 -29 -81l-58 -109h-64z" />
    <glyph glyph-name="colon.sctab" horiz-adv-x="200" 
d="M100 228q-34 0 -57.5 23t-23.5 58q0 34 24 57t57 23t56.5 -23t23.5 -57q0 -35 -23.5 -58t-56.5 -23zM100 -6q-34 0 -57.5 23t-23.5 58t23.5 57.5t57.5 22.5q33 0 56.5 -22.5t23.5 -57.5t-23.5 -58t-56.5 -23z" />
    <glyph glyph-name="semicolon.sctab" horiz-adv-x="200" 
d="M100 228q-34 0 -57.5 23t-23.5 58q0 34 24 57t57 23t56.5 -23t23.5 -57q0 -35 -23.5 -58t-56.5 -23zM29 -115l38 120q-48 22 -48 72q0 33 24 55.5t57 22.5t56.5 -22.5t23.5 -57.5q0 -27 -29 -81l-58 -109h-64z" />
    <glyph glyph-name="parenleft.sctab" horiz-adv-x="300" 
d="M196 -66q-78 81 -123.5 174t-45.5 228t45.5 228.5t123.5 173.5l83 -63q-58 -76 -84 -154t-26 -185q0 -106 26 -184.5t84 -154.5z" />
    <glyph glyph-name="parenright.sctab" horiz-adv-x="300" 
d="M104 -66l-83 63q58 76 84 154.5t26 184.5q0 107 -26 185t-84 154l83 63q78 -80 123.5 -173.5t45.5 -228.5t-45.5 -228t-123.5 -174z" />
    <glyph glyph-name="bracketleft.sctab" horiz-adv-x="300" 
d="M41 -62v794h237v-114h-102v-566h102v-114h-237z" />
    <glyph glyph-name="bracketright.sctab" horiz-adv-x="300" 
d="M21 -62v114h102v566h-102v114h237v-794h-237z" />
    <glyph glyph-name="braceleft.sctab" horiz-adv-x="300" 
d="M232 -62q-158 0 -158 144v125q0 35 -13.5 50.5t-43.5 15.5h-18v114h18q30 0 43.5 15.5t13.5 50.5v135q0 144 158 144h47v-114h-35q-20 0 -27 -8t-7 -26v-148q0 -51 -24 -75t-69 -31q45 -7 69 -31t24 -75v-138q0 -18 7 -26t27 -8h35v-114h-47z" />
    <glyph glyph-name="braceright.sctab" horiz-adv-x="300" 
d="M21 -62v114h35q20 0 27 8t7 26v138q0 51 24 75t69 31q-45 7 -69 31t-24 75v148q0 18 -7 26t-27 8h-35v114h47q158 0 158 -144v-135q0 -35 13.5 -50.5t43.5 -15.5h18v-114h-18q-30 0 -43.5 -15.5t-13.5 -50.5v-125q0 -144 -158 -144h-47z" />
    <glyph glyph-name="section.sctab" 
d="M134 288q-37 38 -37 102q0 61 43.5 101t118.5 40q100 0 153 -76l-100 -65q-19 29 -47 29q-32 0 -32 -25q0 -19 29 -32l89 -40q105 -47 105 -127q0 -73 -85 -110q37 -42 37 -93q0 -66 -46 -102.5t-129 -36.5q-61 0 -112 26.5t-76 68.5l103 67q27 -49 74 -49q45 0 45 24
q0 16 -26 28l-103 46q-94 42 -94 117q0 78 90 107zM303 134q28 11 28 31q0 10 -5.5 18t-11.5 11.5t-18 8.5l-96 43h-1q-1 1 -2 1q-13 -2 -21 -10t-8 -20q0 -22 26 -34l107 -48q1 0 1 -0.5t1 -0.5z" />
    <glyph glyph-name="numbersign.sctab" 
d="M123 420h-55v102h81l24 97h102l-24 -97h70l24 97h102l-24 -97h53v-102h-78l-19 -75h53v-102h-79l-25 -101h-102l25 101h-71l-25 -101h-102l25 101h-54v102h80zM295 420h-70l-19 -75h70z" />
    <glyph glyph-name="uni00A0.up" horiz-adv-x="182" 
 />
    </font>
</defs>
</svg>
